%TF.GenerationSoftware,KiCad,Pcbnew,(6.99.0-5015-g618347ef50-dirty)*%
%TF.CreationDate,2022-12-25T14:25:01-05:00*%
%TF.ProjectId,necpc8801mkiisr,6e656370-6338-4383-9031-6d6b69697372,rev?*%
%TF.SameCoordinates,Original*%
%TF.FileFunction,Soldermask,Bot*%
%TF.FilePolarity,Negative*%
%FSLAX46Y46*%
G04 Gerber Fmt 4.6, Leading zero omitted, Abs format (unit mm)*
G04 Created by KiCad (PCBNEW (6.99.0-5015-g618347ef50-dirty)) date 2022-12-25 14:25:01*
%MOMM*%
%LPD*%
G01*
G04 APERTURE LIST*
G04 Aperture macros list*
%AMRoundRect*
0 Rectangle with rounded corners*
0 $1 Rounding radius*
0 $2 $3 $4 $5 $6 $7 $8 $9 X,Y pos of 4 corners*
0 Add a 4 corners polygon primitive as box body*
4,1,4,$2,$3,$4,$5,$6,$7,$8,$9,$2,$3,0*
0 Add four circle primitives for the rounded corners*
1,1,$1+$1,$2,$3*
1,1,$1+$1,$4,$5*
1,1,$1+$1,$6,$7*
1,1,$1+$1,$8,$9*
0 Add four rect primitives between the rounded corners*
20,1,$1+$1,$2,$3,$4,$5,0*
20,1,$1+$1,$4,$5,$6,$7,0*
20,1,$1+$1,$6,$7,$8,$9,0*
20,1,$1+$1,$8,$9,$2,$3,0*%
G04 Aperture macros list end*
%ADD10O,1.070000X1.800000*%
%ADD11R,1.070000X1.800000*%
%ADD12C,5.400000*%
%ADD13C,1.750000*%
%ADD14C,3.987800*%
%ADD15C,3.000000*%
%ADD16C,3.250000*%
%ADD17C,2.250000*%
%ADD18C,1.000000*%
%ADD19R,1.200000X0.900000*%
%ADD20RoundRect,0.250000X0.250000X0.475000X-0.250000X0.475000X-0.250000X-0.475000X0.250000X-0.475000X0*%
%ADD21RoundRect,0.250000X-0.262500X-0.450000X0.262500X-0.450000X0.262500X0.450000X-0.262500X0.450000X0*%
%ADD22R,1.800000X1.100000*%
%ADD23RoundRect,0.250000X-0.475000X0.250000X-0.475000X-0.250000X0.475000X-0.250000X0.475000X0.250000X0*%
%ADD24RoundRect,0.250000X-0.250000X-0.475000X0.250000X-0.475000X0.250000X0.475000X-0.250000X0.475000X0*%
%ADD25RoundRect,0.250000X0.475000X-0.250000X0.475000X0.250000X-0.475000X0.250000X-0.475000X-0.250000X0*%
%ADD26RoundRect,0.150000X-0.150000X-0.625000X0.150000X-0.625000X0.150000X0.625000X-0.150000X0.625000X0*%
%ADD27RoundRect,0.250000X-0.350000X-0.650000X0.350000X-0.650000X0.350000X0.650000X-0.350000X0.650000X0*%
%ADD28RoundRect,0.250000X-0.450000X0.262500X-0.450000X-0.262500X0.450000X-0.262500X0.450000X0.262500X0*%
%ADD29R,0.550000X1.500000*%
%ADD30RoundRect,0.062500X-0.062500X0.475000X-0.062500X-0.475000X0.062500X-0.475000X0.062500X0.475000X0*%
%ADD31R,1.500000X0.550000*%
%ADD32RoundRect,0.062500X-0.475000X0.062500X-0.475000X-0.062500X0.475000X-0.062500X0.475000X0.062500X0*%
%ADD33R,5.200000X5.200000*%
%ADD34R,1.200000X1.400000*%
%ADD35RoundRect,0.250000X0.450000X-0.262500X0.450000X0.262500X-0.450000X0.262500X-0.450000X-0.262500X0*%
%ADD36RoundRect,0.250000X0.262500X0.450000X-0.262500X0.450000X-0.262500X-0.450000X0.262500X-0.450000X0*%
%ADD37R,2.200000X2.200000*%
%TA.AperFunction,Profile*%
%ADD38C,0.150000*%
%TD*%
%TA.AperFunction,Profile*%
%ADD39C,0.050000*%
%TD*%
G04 APERTURE END LIST*
D10*
%TO.C,LED1*%
X198734999Y-114624999D03*
X196194999Y-114624999D03*
D11*
X197464999Y-114624999D03*
D10*
X200004999Y-114624999D03*
%TD*%
%TO.C,LED2*%
X222734999Y-114624999D03*
X220194999Y-114624999D03*
D11*
X221464999Y-114624999D03*
D10*
X224004999Y-114624999D03*
%TD*%
%TO.C,LED3*%
X246734999Y-114624999D03*
X244194999Y-114624999D03*
D11*
X245464999Y-114624999D03*
D10*
X248004999Y-114624999D03*
%TD*%
D12*
%TO.C,H2*%
X126100000Y-116725000D03*
%TD*%
D13*
%TO.C,SW_STP_1*%
X6140000Y-12050000D03*
D14*
X11220000Y-12050000D03*
D15*
X11220000Y-18550000D03*
D13*
X16300000Y-12050000D03*
D16*
X7320000Y-5550000D03*
D17*
X7410000Y-9510000D03*
D18*
X8020000Y-7050000D03*
D17*
X8595000Y-8125000D03*
X13760000Y-6970000D03*
X14595000Y-7800000D03*
D16*
X15120000Y-5550000D03*
%TD*%
D13*
%TO.C,SW_KPMULT_1*%
X371120000Y-59550000D03*
D14*
X376200000Y-59550000D03*
D15*
X376200000Y-66050000D03*
D13*
X381280000Y-59550000D03*
D16*
X372300000Y-53050000D03*
D17*
X372390000Y-57010000D03*
D18*
X373000000Y-54550000D03*
D17*
X373575000Y-55625000D03*
X378740000Y-54470000D03*
X379575000Y-55300000D03*
D16*
X380100000Y-53050000D03*
%TD*%
D13*
%TO.C,SW_RLD_1*%
X281740000Y-12050000D03*
D14*
X286820000Y-12050000D03*
D15*
X286820000Y-18550000D03*
D13*
X291900000Y-12050000D03*
D16*
X282920000Y-5550000D03*
D17*
X283010000Y-9510000D03*
D18*
X283620000Y-7050000D03*
D17*
X284195000Y-8125000D03*
X289360000Y-6970000D03*
X290195000Y-7800000D03*
D16*
X290720000Y-5550000D03*
%TD*%
D13*
%TO.C,SW_LS2_1*%
X34640000Y-97550000D03*
D14*
X39720000Y-97550000D03*
D15*
X39720000Y-104050000D03*
D13*
X44800000Y-97550000D03*
D16*
X35820000Y-91050000D03*
D17*
X35910000Y-95010000D03*
D18*
X36520000Y-92550000D03*
D17*
X37095000Y-93625000D03*
X42260000Y-92470000D03*
X43095000Y-93300000D03*
D16*
X43620000Y-91050000D03*
%TD*%
D13*
%TO.C,SW_F3_1*%
X143940000Y-12050000D03*
D14*
X149020000Y-12050000D03*
D15*
X149020000Y-18550000D03*
D13*
X154100000Y-12050000D03*
D16*
X145120000Y-5550000D03*
D17*
X145210000Y-9510000D03*
D18*
X145820000Y-7050000D03*
D17*
X146395000Y-8125000D03*
X151560000Y-6970000D03*
X152395000Y-7800000D03*
D16*
X152920000Y-5550000D03*
%TD*%
D13*
%TO.C,SW_KP2_1*%
X333120000Y-97550000D03*
D14*
X338200000Y-97550000D03*
D15*
X338200000Y-104050000D03*
D13*
X343280000Y-97550000D03*
D16*
X334300000Y-91050000D03*
D17*
X334390000Y-95010000D03*
D18*
X335000000Y-92550000D03*
D17*
X335575000Y-93625000D03*
X340740000Y-92470000D03*
X341575000Y-93300000D03*
D16*
X342100000Y-91050000D03*
%TD*%
D13*
%TO.C,SW_WE_1*%
X253140000Y-78550000D03*
D14*
X258220000Y-78550000D03*
D15*
X258220000Y-85050000D03*
D13*
X263300000Y-78550000D03*
D16*
X254320000Y-72050000D03*
D17*
X254410000Y-76010000D03*
D18*
X255020000Y-73550000D03*
D17*
X255595000Y-74625000D03*
X260760000Y-73470000D03*
X261595000Y-74300000D03*
D16*
X262120000Y-72050000D03*
%TD*%
D13*
%TO.C,SW_F5_1*%
X219940000Y-12050000D03*
D14*
X225020000Y-12050000D03*
D15*
X225020000Y-18550000D03*
D13*
X230100000Y-12050000D03*
D16*
X221120000Y-5550000D03*
D17*
X221210000Y-9510000D03*
D18*
X221820000Y-7050000D03*
D17*
X222395000Y-8125000D03*
X227560000Y-6970000D03*
X228395000Y-7800000D03*
D16*
X228920000Y-5550000D03*
%TD*%
D13*
%TO.C,SW_LT_1*%
X186640000Y-97550000D03*
D14*
X191720000Y-97550000D03*
D15*
X191720000Y-104050000D03*
D13*
X196800000Y-97550000D03*
D16*
X187820000Y-91050000D03*
D17*
X187910000Y-95010000D03*
D18*
X188520000Y-92550000D03*
D17*
X189095000Y-93625000D03*
X194260000Y-92470000D03*
X195095000Y-93300000D03*
D16*
X195620000Y-91050000D03*
%TD*%
D13*
%TO.C,SW_KP4_1*%
X314120000Y-78550000D03*
D14*
X319200000Y-78550000D03*
D15*
X319200000Y-85050000D03*
D13*
X324280000Y-78550000D03*
D16*
X315300000Y-72050000D03*
D17*
X315390000Y-76010000D03*
D18*
X316000000Y-73550000D03*
D17*
X316575000Y-74625000D03*
X321740000Y-73470000D03*
X322575000Y-74300000D03*
D16*
X323100000Y-72050000D03*
%TD*%
D13*
%TO.C,SW_CAR_1*%
X239120000Y-40550000D03*
D14*
X244200000Y-40550000D03*
D15*
X244200000Y-47050000D03*
D13*
X249280000Y-40550000D03*
D16*
X240300000Y-34050000D03*
D17*
X240390000Y-38010000D03*
D18*
X241000000Y-35550000D03*
D17*
X241575000Y-36625000D03*
X246740000Y-35470000D03*
X247575000Y-36300000D03*
D16*
X248100000Y-34050000D03*
%TD*%
D13*
%TO.C,SW_SUP_1*%
X53640000Y-116650000D03*
D14*
X58720000Y-116650000D03*
D15*
X58720000Y-123150000D03*
D13*
X63800000Y-116650000D03*
D16*
X54820000Y-110150000D03*
D17*
X54910000Y-114110000D03*
D18*
X55520000Y-111650000D03*
D17*
X56095000Y-112725000D03*
X61260000Y-111570000D03*
X62095000Y-112400000D03*
D16*
X62620000Y-110150000D03*
%TD*%
D13*
%TO.C,SW_RLU_1*%
X262740000Y-12050000D03*
D14*
X267820000Y-12050000D03*
D15*
X267820000Y-18550000D03*
D13*
X272900000Y-12050000D03*
D16*
X263920000Y-5550000D03*
D17*
X264010000Y-9510000D03*
D18*
X264620000Y-7050000D03*
D17*
X265195000Y-8125000D03*
X270360000Y-6970000D03*
X271195000Y-7800000D03*
D16*
X271720000Y-5550000D03*
%TD*%
D13*
%TO.C,SW_DEL_1*%
X279495000Y-40550000D03*
D14*
X284575000Y-40550000D03*
D15*
X284575000Y-47050000D03*
D13*
X289655000Y-40550000D03*
D16*
X280675000Y-34050000D03*
D17*
X280765000Y-38010000D03*
D18*
X281375000Y-35550000D03*
D17*
X281950000Y-36625000D03*
X287115000Y-35470000D03*
X287950000Y-36300000D03*
D16*
X288475000Y-34050000D03*
%TD*%
D13*
%TO.C,SW_J_1*%
X158140000Y-78550000D03*
D14*
X163220000Y-78550000D03*
D15*
X163220000Y-85050000D03*
D13*
X168300000Y-78550000D03*
D16*
X159320000Y-72050000D03*
D17*
X159410000Y-76010000D03*
D18*
X160020000Y-73550000D03*
D17*
X160595000Y-74625000D03*
X165760000Y-73470000D03*
X166595000Y-74300000D03*
D16*
X167120000Y-72050000D03*
%TD*%
D13*
%TO.C,SW_KPEQ_1*%
X371120000Y-97550000D03*
D14*
X376200000Y-97550000D03*
D15*
X376200000Y-104050000D03*
D13*
X381280000Y-97550000D03*
D16*
X372300000Y-91050000D03*
D17*
X372390000Y-95010000D03*
D18*
X373000000Y-92550000D03*
D17*
X373575000Y-93625000D03*
X378740000Y-92470000D03*
X379575000Y-93300000D03*
D16*
X380100000Y-91050000D03*
%TD*%
D13*
%TO.C,SW_KP3_1*%
X352120000Y-97550000D03*
D14*
X357200000Y-97550000D03*
D15*
X357200000Y-104050000D03*
D13*
X362280000Y-97550000D03*
D16*
X353300000Y-91050000D03*
D17*
X353390000Y-95010000D03*
D18*
X354000000Y-92550000D03*
D17*
X354575000Y-93625000D03*
X359740000Y-92470000D03*
X360575000Y-93300000D03*
D16*
X361100000Y-91050000D03*
%TD*%
D13*
%TO.C,SW_K_1*%
X177140000Y-78550000D03*
D14*
X182220000Y-78550000D03*
D15*
X182220000Y-85050000D03*
D13*
X187300000Y-78550000D03*
D16*
X178320000Y-72050000D03*
D17*
X178410000Y-76010000D03*
D18*
X179020000Y-73550000D03*
D17*
X179595000Y-74625000D03*
X184760000Y-73470000D03*
X185595000Y-74300000D03*
D16*
X186120000Y-72050000D03*
%TD*%
D13*
%TO.C,SW_SP2_1*%
X167640000Y-116650000D03*
D14*
X172720000Y-116650000D03*
D15*
X172720000Y-123150000D03*
D13*
X177800000Y-116650000D03*
D16*
X168820000Y-110150000D03*
D17*
X168910000Y-114110000D03*
D18*
X169520000Y-111650000D03*
D17*
X170095000Y-112725000D03*
X175260000Y-111570000D03*
X176095000Y-112400000D03*
D16*
X176620000Y-110150000D03*
%TD*%
D13*
%TO.C,SW_F1_1*%
X67940000Y-12050000D03*
D14*
X73020000Y-12050000D03*
D15*
X73020000Y-18550000D03*
D13*
X78100000Y-12050000D03*
D16*
X69120000Y-5550000D03*
D17*
X69210000Y-9510000D03*
D18*
X69820000Y-7050000D03*
D17*
X70395000Y-8125000D03*
X75560000Y-6970000D03*
X76395000Y-7800000D03*
D16*
X76920000Y-5550000D03*
%TD*%
D13*
%TO.C,SW_CPY_1*%
X25140000Y-12050000D03*
D14*
X30220000Y-12050000D03*
D15*
X30220000Y-18550000D03*
D13*
X35300000Y-12050000D03*
D16*
X26320000Y-5550000D03*
D17*
X26410000Y-9510000D03*
D18*
X27020000Y-7050000D03*
D17*
X27595000Y-8125000D03*
X32760000Y-6970000D03*
X33595000Y-7800000D03*
D16*
X34120000Y-5550000D03*
%TD*%
D13*
%TO.C,SW_SP1_1*%
X148640000Y-116650000D03*
D14*
X153720000Y-116650000D03*
D15*
X153720000Y-123150000D03*
D13*
X158800000Y-116650000D03*
D16*
X149820000Y-110150000D03*
D17*
X149910000Y-114110000D03*
D18*
X150520000Y-111650000D03*
D17*
X151095000Y-112725000D03*
X156260000Y-111570000D03*
X157095000Y-112400000D03*
D16*
X157620000Y-110150000D03*
%TD*%
D13*
%TO.C,SW_D_1*%
X82140000Y-78550000D03*
D14*
X87220000Y-78550000D03*
D15*
X87220000Y-85050000D03*
D13*
X92300000Y-78550000D03*
D16*
X83320000Y-72050000D03*
D17*
X83410000Y-76010000D03*
D18*
X84020000Y-73550000D03*
D17*
X84595000Y-74625000D03*
X89760000Y-73470000D03*
X90595000Y-74300000D03*
D16*
X91120000Y-72050000D03*
%TD*%
D13*
%TO.C,SW_A_1*%
X44140000Y-78550000D03*
D14*
X49220000Y-78550000D03*
D15*
X49220000Y-85050000D03*
D13*
X54300000Y-78550000D03*
D16*
X45320000Y-72050000D03*
D17*
X45410000Y-76010000D03*
D18*
X46020000Y-73550000D03*
D17*
X46595000Y-74625000D03*
X51760000Y-73470000D03*
X52595000Y-74300000D03*
D16*
X53120000Y-72050000D03*
%TD*%
D13*
%TO.C,SW_KPPER_1*%
X352120000Y-116550000D03*
D14*
X357200000Y-116550000D03*
D15*
X357200000Y-123050000D03*
D13*
X362280000Y-116550000D03*
D16*
X353300000Y-110050000D03*
D17*
X353390000Y-114010000D03*
D18*
X354000000Y-111550000D03*
D17*
X354575000Y-112625000D03*
X359740000Y-111470000D03*
X360575000Y-112300000D03*
D16*
X361100000Y-110050000D03*
%TD*%
D13*
%TO.C,SW_6_1*%
X125120000Y-40550000D03*
D14*
X130200000Y-40550000D03*
D15*
X130200000Y-47050000D03*
D13*
X135280000Y-40550000D03*
D16*
X126300000Y-34050000D03*
D17*
X126390000Y-38010000D03*
D18*
X127000000Y-35550000D03*
D17*
X127575000Y-36625000D03*
X132740000Y-35470000D03*
X133575000Y-36300000D03*
D16*
X134100000Y-34050000D03*
%TD*%
D13*
%TO.C,SW_KP6_1*%
X352120000Y-78550000D03*
D14*
X357200000Y-78550000D03*
D15*
X357200000Y-85050000D03*
D13*
X362280000Y-78550000D03*
D16*
X353300000Y-72050000D03*
D17*
X353390000Y-76010000D03*
D18*
X354000000Y-73550000D03*
D17*
X354575000Y-74625000D03*
X359740000Y-73470000D03*
X360575000Y-74300000D03*
D16*
X361100000Y-72050000D03*
%TD*%
D13*
%TO.C,SW_9_1*%
X182120000Y-40550000D03*
D14*
X187200000Y-40550000D03*
D15*
X187200000Y-47050000D03*
D13*
X192280000Y-40550000D03*
D16*
X183300000Y-34050000D03*
D17*
X183390000Y-38010000D03*
D18*
X184000000Y-35550000D03*
D17*
X184575000Y-36625000D03*
X189740000Y-35470000D03*
X190575000Y-36300000D03*
D16*
X191100000Y-34050000D03*
%TD*%
D13*
%TO.C,SW_CTRL_1*%
X6140000Y-78550000D03*
D14*
X11220000Y-78550000D03*
D15*
X11220000Y-85050000D03*
D13*
X16300000Y-78550000D03*
D16*
X7320000Y-72050000D03*
D17*
X7410000Y-76010000D03*
D18*
X8020000Y-73550000D03*
D17*
X8595000Y-74625000D03*
X13760000Y-73470000D03*
X14595000Y-74300000D03*
D16*
X15120000Y-72050000D03*
%TD*%
D13*
%TO.C,SW_KP7_1*%
X314120000Y-59550000D03*
D14*
X319200000Y-59550000D03*
D15*
X319200000Y-66050000D03*
D13*
X324280000Y-59550000D03*
D16*
X315300000Y-53050000D03*
D17*
X315390000Y-57010000D03*
D18*
X316000000Y-54550000D03*
D17*
X316575000Y-55625000D03*
X321740000Y-54470000D03*
X322575000Y-55300000D03*
D16*
X323100000Y-53050000D03*
%TD*%
D13*
%TO.C,SW_F4_1*%
X181940000Y-12050000D03*
D14*
X187020000Y-12050000D03*
D15*
X187020000Y-18550000D03*
D13*
X192100000Y-12050000D03*
D16*
X183120000Y-5550000D03*
D17*
X183210000Y-9510000D03*
D18*
X183820000Y-7050000D03*
D17*
X184395000Y-8125000D03*
X189560000Y-6970000D03*
X190395000Y-7800000D03*
D16*
X190920000Y-5550000D03*
%TD*%
D13*
%TO.C,SW_S_1*%
X63140000Y-78550000D03*
D14*
X68220000Y-78550000D03*
D15*
X68220000Y-85050000D03*
D13*
X73300000Y-78550000D03*
D16*
X64320000Y-72050000D03*
D17*
X64410000Y-76010000D03*
D18*
X65020000Y-73550000D03*
D17*
X65595000Y-74625000D03*
X70760000Y-73470000D03*
X71595000Y-74300000D03*
D16*
X72120000Y-72050000D03*
%TD*%
D13*
%TO.C,SW_KPHELP1*%
X333120000Y-40550000D03*
D14*
X338200000Y-40550000D03*
D15*
X338200000Y-47050000D03*
D13*
X343280000Y-40550000D03*
D16*
X334300000Y-34050000D03*
D17*
X334390000Y-38010000D03*
D18*
X335000000Y-35550000D03*
D17*
X335575000Y-36625000D03*
X340740000Y-35470000D03*
X341575000Y-36300000D03*
D16*
X342100000Y-34050000D03*
%TD*%
D13*
%TO.C,SW_2_1*%
X49120000Y-40550000D03*
D14*
X54200000Y-40550000D03*
D15*
X54200000Y-47050000D03*
D13*
X59280000Y-40550000D03*
D16*
X50300000Y-34050000D03*
D17*
X50390000Y-38010000D03*
D18*
X51000000Y-35550000D03*
D17*
X51575000Y-36625000D03*
X56740000Y-35470000D03*
X57575000Y-36300000D03*
D16*
X58100000Y-34050000D03*
%TD*%
D13*
%TO.C,SW_W_1*%
X58290000Y-59525000D03*
D14*
X63370000Y-59525000D03*
D15*
X63370000Y-66025000D03*
D13*
X68450000Y-59525000D03*
D16*
X59470000Y-53025000D03*
D17*
X59560000Y-56985000D03*
D18*
X60170000Y-54525000D03*
D17*
X60745000Y-55600000D03*
X65910000Y-54445000D03*
X66745000Y-55275000D03*
D16*
X67270000Y-53025000D03*
%TD*%
D13*
%TO.C,SW_X_1*%
X72640000Y-97550000D03*
D14*
X77720000Y-97550000D03*
D15*
X77720000Y-104050000D03*
D13*
X82800000Y-97550000D03*
D16*
X73820000Y-91050000D03*
D17*
X73910000Y-95010000D03*
D18*
X74520000Y-92550000D03*
D17*
X75095000Y-93625000D03*
X80260000Y-92470000D03*
X81095000Y-93300000D03*
D16*
X81620000Y-91050000D03*
%TD*%
D13*
%TO.C,SW_G_1*%
X120140000Y-78550000D03*
D14*
X125220000Y-78550000D03*
D15*
X125220000Y-85050000D03*
D13*
X130300000Y-78550000D03*
D16*
X121320000Y-72050000D03*
D17*
X121410000Y-76010000D03*
D18*
X122020000Y-73550000D03*
D17*
X122595000Y-74625000D03*
X127760000Y-73470000D03*
X128595000Y-74300000D03*
D16*
X129120000Y-72050000D03*
%TD*%
D13*
%TO.C,SW_E_1*%
X77290000Y-59525000D03*
D14*
X82370000Y-59525000D03*
D15*
X82370000Y-66025000D03*
D13*
X87450000Y-59525000D03*
D16*
X78470000Y-53025000D03*
D17*
X78560000Y-56985000D03*
D18*
X79170000Y-54525000D03*
D17*
X79745000Y-55600000D03*
X84910000Y-54445000D03*
X85745000Y-55275000D03*
D16*
X86270000Y-53025000D03*
%TD*%
D13*
%TO.C,SW_5_1*%
X106120000Y-40550000D03*
D14*
X111200000Y-40550000D03*
D15*
X111200000Y-47050000D03*
D13*
X116280000Y-40550000D03*
D16*
X107300000Y-34050000D03*
D17*
X107390000Y-38010000D03*
D18*
X108000000Y-35550000D03*
D17*
X108575000Y-36625000D03*
X113740000Y-35470000D03*
X114575000Y-36300000D03*
D16*
X115100000Y-34050000D03*
%TD*%
D13*
%TO.C,SW_I_1*%
X172290000Y-59525000D03*
D14*
X177370000Y-59525000D03*
D15*
X177370000Y-66025000D03*
D13*
X182450000Y-59525000D03*
D16*
X173470000Y-53025000D03*
D17*
X173560000Y-56985000D03*
D18*
X174170000Y-54525000D03*
D17*
X174745000Y-55600000D03*
X179910000Y-54445000D03*
X180745000Y-55275000D03*
D16*
X181270000Y-53025000D03*
%TD*%
D13*
%TO.C,SW_1_1*%
X30120000Y-40550000D03*
D14*
X35200000Y-40550000D03*
D15*
X35200000Y-47050000D03*
D13*
X40280000Y-40550000D03*
D16*
X31300000Y-34050000D03*
D17*
X31390000Y-38010000D03*
D18*
X32000000Y-35550000D03*
D17*
X32575000Y-36625000D03*
X37740000Y-35470000D03*
X38575000Y-36300000D03*
D16*
X39100000Y-34050000D03*
%TD*%
D13*
%TO.C,SW_AMG_1*%
X243640000Y-97550000D03*
D14*
X248720000Y-97550000D03*
D15*
X248720000Y-104050000D03*
D13*
X253800000Y-97550000D03*
D16*
X244820000Y-91050000D03*
D17*
X244910000Y-95010000D03*
D18*
X245520000Y-92550000D03*
D17*
X246095000Y-93625000D03*
X251260000Y-92470000D03*
X252095000Y-93300000D03*
D16*
X252620000Y-91050000D03*
%TD*%
D13*
%TO.C,SW_V_1*%
X110640000Y-97550000D03*
D14*
X115720000Y-97550000D03*
D15*
X115720000Y-104050000D03*
D13*
X120800000Y-97550000D03*
D16*
X111820000Y-91050000D03*
D17*
X111910000Y-95010000D03*
D18*
X112520000Y-92550000D03*
D17*
X113095000Y-93625000D03*
X118260000Y-92470000D03*
X119095000Y-93300000D03*
D16*
X119620000Y-91050000D03*
%TD*%
D13*
%TO.C,SW_L_1*%
X196140000Y-78550000D03*
D14*
X201220000Y-78550000D03*
D15*
X201220000Y-85050000D03*
D13*
X206300000Y-78550000D03*
D16*
X197320000Y-72050000D03*
D17*
X197410000Y-76010000D03*
D18*
X198020000Y-73550000D03*
D17*
X198595000Y-74625000D03*
X203760000Y-73470000D03*
X204595000Y-74300000D03*
D16*
X205120000Y-72050000D03*
%TD*%
D13*
%TO.C,SW_YEN_1*%
X258120000Y-40550000D03*
D14*
X263200000Y-40550000D03*
D15*
X263200000Y-47050000D03*
D13*
X268280000Y-40550000D03*
D16*
X259300000Y-34050000D03*
D17*
X259390000Y-38010000D03*
D18*
X260000000Y-35550000D03*
D17*
X260575000Y-36625000D03*
X265740000Y-35470000D03*
X266575000Y-36300000D03*
D16*
X267100000Y-34050000D03*
%TD*%
D13*
%TO.C,SW_M_1*%
X167640000Y-97550000D03*
D14*
X172720000Y-97550000D03*
D15*
X172720000Y-104050000D03*
D13*
X177800000Y-97550000D03*
D16*
X168820000Y-91050000D03*
D17*
X168910000Y-95010000D03*
D18*
X169520000Y-92550000D03*
D17*
X170095000Y-93625000D03*
X175260000Y-92470000D03*
X176095000Y-93300000D03*
D16*
X176620000Y-91050000D03*
%TD*%
D13*
%TO.C,SW_F2_1*%
X105940000Y-12050000D03*
D14*
X111020000Y-12050000D03*
D15*
X111020000Y-18550000D03*
D13*
X116100000Y-12050000D03*
D16*
X107120000Y-5550000D03*
D17*
X107210000Y-9510000D03*
D18*
X107820000Y-7050000D03*
D17*
X108395000Y-8125000D03*
X113560000Y-6970000D03*
X114395000Y-7800000D03*
D16*
X114920000Y-5550000D03*
%TD*%
D13*
%TO.C,SW_KP9_1*%
X352120000Y-59550000D03*
D14*
X357200000Y-59550000D03*
D15*
X357200000Y-66050000D03*
D13*
X362280000Y-59550000D03*
D16*
X353300000Y-53050000D03*
D17*
X353390000Y-57010000D03*
D18*
X354000000Y-54550000D03*
D17*
X354575000Y-55625000D03*
X359740000Y-54470000D03*
X360575000Y-55300000D03*
D16*
X361100000Y-53050000D03*
%TD*%
D13*
%TO.C,SW_KPHOME_1*%
X314120000Y-40550000D03*
D14*
X319200000Y-40550000D03*
D15*
X319200000Y-47050000D03*
D13*
X324280000Y-40550000D03*
D16*
X315300000Y-34050000D03*
D17*
X315390000Y-38010000D03*
D18*
X316000000Y-35550000D03*
D17*
X316575000Y-36625000D03*
X321740000Y-35470000D03*
X322575000Y-36300000D03*
D16*
X323100000Y-34050000D03*
%TD*%
D13*
%TO.C,SW_CAPS_1*%
X25140000Y-78550000D03*
D14*
X30220000Y-78550000D03*
D15*
X30220000Y-85050000D03*
D13*
X35300000Y-78550000D03*
D16*
X26320000Y-72050000D03*
D17*
X26410000Y-76010000D03*
D18*
X27020000Y-73550000D03*
D17*
X27595000Y-74625000D03*
X32760000Y-73470000D03*
X33595000Y-74300000D03*
D16*
X34120000Y-72050000D03*
%TD*%
D13*
%TO.C,SW_KPDIV_1*%
X371120000Y-40550000D03*
D14*
X376200000Y-40550000D03*
D15*
X376200000Y-47050000D03*
D13*
X381280000Y-40550000D03*
D16*
X372300000Y-34050000D03*
D17*
X372390000Y-38010000D03*
D18*
X373000000Y-35550000D03*
D17*
X373575000Y-36625000D03*
X378740000Y-35470000D03*
X379575000Y-36300000D03*
D16*
X380100000Y-34050000D03*
%TD*%
D13*
%TO.C,SW_C_1*%
X91640000Y-97550000D03*
D14*
X96720000Y-97550000D03*
D15*
X96720000Y-104050000D03*
D13*
X101800000Y-97550000D03*
D16*
X92820000Y-91050000D03*
D17*
X92910000Y-95010000D03*
D18*
X93520000Y-92550000D03*
D17*
X94095000Y-93625000D03*
X99260000Y-92470000D03*
X100095000Y-93300000D03*
D16*
X100620000Y-91050000D03*
%TD*%
D13*
%TO.C,SW_Q_1*%
X39290000Y-59525000D03*
D14*
X44370000Y-59525000D03*
D15*
X44370000Y-66025000D03*
D13*
X49450000Y-59525000D03*
D16*
X40470000Y-53025000D03*
D17*
X40560000Y-56985000D03*
D18*
X41170000Y-54525000D03*
D17*
X41745000Y-55600000D03*
X46910000Y-54445000D03*
X47745000Y-55275000D03*
D16*
X48270000Y-53025000D03*
%TD*%
D13*
%TO.C,SW_MN_1*%
X220120000Y-40550000D03*
D14*
X225200000Y-40550000D03*
D15*
X225200000Y-47050000D03*
D13*
X230280000Y-40550000D03*
D16*
X221300000Y-34050000D03*
D17*
X221390000Y-38010000D03*
D18*
X222000000Y-35550000D03*
D17*
X222575000Y-36625000D03*
X227740000Y-35470000D03*
X228575000Y-36300000D03*
D16*
X229100000Y-34050000D03*
%TD*%
D13*
%TO.C,SW_DOWN_1*%
X333120000Y-12050000D03*
D14*
X338200000Y-12050000D03*
D15*
X338200000Y-18550000D03*
D13*
X343280000Y-12050000D03*
D16*
X334300000Y-5550000D03*
D17*
X334390000Y-9510000D03*
D18*
X335000000Y-7050000D03*
D17*
X335575000Y-8125000D03*
X340740000Y-6970000D03*
X341575000Y-7800000D03*
D16*
X342100000Y-5550000D03*
%TD*%
D13*
%TO.C,SW_3_1*%
X68120000Y-40550000D03*
D14*
X73200000Y-40550000D03*
D15*
X73200000Y-47050000D03*
D13*
X78280000Y-40550000D03*
D16*
X69300000Y-34050000D03*
D17*
X69390000Y-38010000D03*
D18*
X70000000Y-35550000D03*
D17*
X70575000Y-36625000D03*
X75740000Y-35470000D03*
X76575000Y-36300000D03*
D16*
X77100000Y-34050000D03*
%TD*%
D13*
%TO.C,SW_AT_1*%
X229290000Y-59525000D03*
D14*
X234370000Y-59525000D03*
D15*
X234370000Y-66025000D03*
D13*
X239450000Y-59525000D03*
D16*
X230470000Y-53025000D03*
D17*
X230560000Y-56985000D03*
D18*
X231170000Y-54525000D03*
D17*
X231745000Y-55600000D03*
X236910000Y-54445000D03*
X237745000Y-55275000D03*
D16*
X238270000Y-53025000D03*
%TD*%
D13*
%TO.C,SW_GT_1*%
X205640000Y-97550000D03*
D14*
X210720000Y-97550000D03*
D15*
X210720000Y-104050000D03*
D13*
X215800000Y-97550000D03*
D16*
X206820000Y-91050000D03*
D17*
X206910000Y-95010000D03*
D18*
X207520000Y-92550000D03*
D17*
X208095000Y-93625000D03*
X213260000Y-92470000D03*
X214095000Y-93300000D03*
D16*
X214620000Y-91050000D03*
%TD*%
D13*
%TO.C,SW_Z_1*%
X53640000Y-97550000D03*
D14*
X58720000Y-97550000D03*
D15*
X58720000Y-104050000D03*
D13*
X63800000Y-97550000D03*
D16*
X54820000Y-91050000D03*
D17*
X54910000Y-95010000D03*
D18*
X55520000Y-92550000D03*
D17*
X56095000Y-93625000D03*
X61260000Y-92470000D03*
X62095000Y-93300000D03*
D16*
X62620000Y-91050000D03*
%TD*%
D13*
%TO.C,SW_O_1*%
X191290000Y-59525000D03*
D14*
X196370000Y-59525000D03*
D15*
X196370000Y-66025000D03*
D13*
X201450000Y-59525000D03*
D16*
X192470000Y-53025000D03*
D17*
X192560000Y-56985000D03*
D18*
X193170000Y-54525000D03*
D17*
X193745000Y-55600000D03*
X198910000Y-54445000D03*
X199745000Y-55275000D03*
D16*
X200270000Y-53025000D03*
%TD*%
D13*
%TO.C,SW_H_1*%
X139140000Y-78550000D03*
D14*
X144220000Y-78550000D03*
D15*
X144220000Y-85050000D03*
D13*
X149300000Y-78550000D03*
D16*
X140320000Y-72050000D03*
D17*
X140410000Y-76010000D03*
D18*
X141020000Y-73550000D03*
D17*
X141595000Y-74625000D03*
X146760000Y-73470000D03*
X147595000Y-74300000D03*
D16*
X148120000Y-72050000D03*
%TD*%
D13*
%TO.C,SW_FC_1*%
X248290000Y-59525000D03*
D14*
X253370000Y-59525000D03*
D15*
X253370000Y-66025000D03*
D13*
X258450000Y-59525000D03*
D16*
X249470000Y-53025000D03*
D17*
X249560000Y-56985000D03*
D18*
X250170000Y-54525000D03*
D17*
X250745000Y-55600000D03*
X255910000Y-54445000D03*
X256745000Y-55275000D03*
D16*
X257270000Y-53025000D03*
%TD*%
D13*
%TO.C,SW_KPENT_1*%
X371120000Y-116550000D03*
D14*
X376200000Y-116550000D03*
D15*
X376200000Y-123050000D03*
D13*
X381280000Y-116550000D03*
D16*
X372300000Y-110050000D03*
D17*
X372390000Y-114010000D03*
D18*
X373000000Y-111550000D03*
D17*
X373575000Y-112625000D03*
X378740000Y-111470000D03*
X379575000Y-112300000D03*
D16*
X380100000Y-110050000D03*
%TD*%
D13*
%TO.C,SW_B_1*%
X129640000Y-97550000D03*
D14*
X134720000Y-97550000D03*
D15*
X134720000Y-104050000D03*
D13*
X139800000Y-97550000D03*
D16*
X130820000Y-91050000D03*
D17*
X130910000Y-95010000D03*
D18*
X131520000Y-92550000D03*
D17*
X132095000Y-93625000D03*
X137260000Y-92470000D03*
X138095000Y-93300000D03*
D16*
X138620000Y-91050000D03*
%TD*%
D13*
%TO.C,SW_R_1*%
X96290000Y-59525000D03*
D14*
X101370000Y-59525000D03*
D15*
X101370000Y-66025000D03*
D13*
X106450000Y-59525000D03*
D16*
X97470000Y-53025000D03*
D17*
X97560000Y-56985000D03*
D18*
X98170000Y-54525000D03*
D17*
X98745000Y-55600000D03*
X103910000Y-54445000D03*
X104745000Y-55275000D03*
D16*
X105270000Y-53025000D03*
%TD*%
D13*
%TO.C,SW_0_1*%
X201120000Y-40550000D03*
D14*
X206200000Y-40550000D03*
D15*
X206200000Y-47050000D03*
D13*
X211280000Y-40550000D03*
D16*
X202300000Y-34050000D03*
D17*
X202390000Y-38010000D03*
D18*
X203000000Y-35550000D03*
D17*
X203575000Y-36625000D03*
X208740000Y-35470000D03*
X209575000Y-36300000D03*
D16*
X210100000Y-34050000D03*
%TD*%
D13*
%TO.C,SW_8_1*%
X163120000Y-40550000D03*
D14*
X168200000Y-40550000D03*
D15*
X168200000Y-47050000D03*
D13*
X173280000Y-40550000D03*
D16*
X164300000Y-34050000D03*
D17*
X164390000Y-38010000D03*
D18*
X165000000Y-35550000D03*
D17*
X165575000Y-36625000D03*
X170740000Y-35470000D03*
X171575000Y-36300000D03*
D16*
X172100000Y-34050000D03*
%TD*%
D13*
%TO.C,SW_RIGHT_1*%
X371120000Y-12050000D03*
D14*
X376200000Y-12050000D03*
D15*
X376200000Y-18550000D03*
D13*
X381280000Y-12050000D03*
D16*
X372300000Y-5550000D03*
D17*
X372390000Y-9510000D03*
D18*
X373000000Y-7050000D03*
D17*
X373575000Y-8125000D03*
X378740000Y-6970000D03*
X379575000Y-7800000D03*
D16*
X380100000Y-5550000D03*
%TD*%
D13*
%TO.C,SW_KP0_1*%
X314120000Y-116550000D03*
D14*
X319200000Y-116550000D03*
D15*
X319200000Y-123050000D03*
D13*
X324280000Y-116550000D03*
D16*
X315300000Y-110050000D03*
D17*
X315390000Y-114010000D03*
D18*
X316000000Y-111550000D03*
D17*
X316575000Y-112625000D03*
X321740000Y-111470000D03*
X322575000Y-112300000D03*
D16*
X323100000Y-110050000D03*
%TD*%
D13*
%TO.C,SW_Y_1*%
X134290000Y-59525000D03*
D14*
X139370000Y-59525000D03*
D15*
X139370000Y-66025000D03*
D13*
X144450000Y-59525000D03*
D16*
X135470000Y-53025000D03*
D17*
X135560000Y-56985000D03*
D18*
X136170000Y-54525000D03*
D17*
X136745000Y-55600000D03*
X141910000Y-54445000D03*
X142745000Y-55275000D03*
D16*
X143270000Y-53025000D03*
%TD*%
D13*
%TO.C,SW_RSH_1*%
X272140000Y-97550000D03*
D14*
X277220000Y-97550000D03*
D15*
X277220000Y-104050000D03*
D13*
X282300000Y-97550000D03*
D16*
X273320000Y-91050000D03*
D17*
X273410000Y-95010000D03*
D18*
X274020000Y-92550000D03*
D17*
X274595000Y-93625000D03*
X279760000Y-92470000D03*
X280595000Y-93300000D03*
D16*
X281120000Y-91050000D03*
%TD*%
D13*
%TO.C,SW_COL_1*%
X234140000Y-78550000D03*
D14*
X239220000Y-78550000D03*
D15*
X239220000Y-85050000D03*
D13*
X244300000Y-78550000D03*
D16*
X235320000Y-72050000D03*
D17*
X235410000Y-76010000D03*
D18*
X236020000Y-73550000D03*
D17*
X236595000Y-74625000D03*
X241760000Y-73470000D03*
X242595000Y-74300000D03*
D16*
X243120000Y-72050000D03*
%TD*%
D13*
%TO.C,SW_ED_1*%
X276890000Y-78550000D03*
D14*
X281970000Y-78550000D03*
D15*
X281970000Y-85050000D03*
D13*
X287050000Y-78550000D03*
D16*
X278070000Y-72050000D03*
D17*
X278160000Y-76010000D03*
D18*
X278770000Y-73550000D03*
D17*
X279345000Y-74625000D03*
X284510000Y-73470000D03*
X285345000Y-74300000D03*
D16*
X285870000Y-72050000D03*
%TD*%
D13*
%TO.C,SW_LS1_1*%
X6140000Y-97550000D03*
D14*
X11220000Y-97550000D03*
D15*
X11220000Y-104050000D03*
D13*
X16300000Y-97550000D03*
D16*
X7320000Y-91050000D03*
D17*
X7410000Y-95010000D03*
D18*
X8020000Y-92550000D03*
D17*
X8595000Y-93625000D03*
X13760000Y-92470000D03*
X14595000Y-93300000D03*
D16*
X15120000Y-91050000D03*
%TD*%
D13*
%TO.C,SW_4_1*%
X87120000Y-40550000D03*
D14*
X92200000Y-40550000D03*
D15*
X92200000Y-47050000D03*
D13*
X97280000Y-40550000D03*
D16*
X88300000Y-34050000D03*
D17*
X88390000Y-38010000D03*
D18*
X89000000Y-35550000D03*
D17*
X89575000Y-36625000D03*
X94740000Y-35470000D03*
X95575000Y-36300000D03*
D16*
X96100000Y-34050000D03*
%TD*%
D13*
%TO.C,SW_LEFT_1*%
X352120000Y-12050000D03*
D14*
X357200000Y-12050000D03*
D15*
X357200000Y-18550000D03*
D13*
X362280000Y-12050000D03*
D16*
X353300000Y-5550000D03*
D17*
X353390000Y-9510000D03*
D18*
X354000000Y-7050000D03*
D17*
X354575000Y-8125000D03*
X359740000Y-6970000D03*
X360575000Y-7800000D03*
D16*
X361100000Y-5550000D03*
%TD*%
D13*
%TO.C,SW_KPMIN_1*%
X352120000Y-40550000D03*
D14*
X357200000Y-40550000D03*
D15*
X357200000Y-47050000D03*
D13*
X362280000Y-40550000D03*
D16*
X353300000Y-34050000D03*
D17*
X353390000Y-38010000D03*
D18*
X354000000Y-35550000D03*
D17*
X354575000Y-36625000D03*
X359740000Y-35470000D03*
X360575000Y-36300000D03*
D16*
X361100000Y-34050000D03*
%TD*%
D13*
%TO.C,SW_U_1*%
X153290000Y-59525000D03*
D14*
X158370000Y-59525000D03*
D15*
X158370000Y-66025000D03*
D13*
X163450000Y-59525000D03*
D16*
X154470000Y-53025000D03*
D17*
X154560000Y-56985000D03*
D18*
X155170000Y-54525000D03*
D17*
X155745000Y-55600000D03*
X160910000Y-54445000D03*
X161745000Y-55275000D03*
D16*
X162270000Y-53025000D03*
%TD*%
D13*
%TO.C,SW_ET_1*%
X274415000Y-59525000D03*
D14*
X279495000Y-59525000D03*
D15*
X279495000Y-66025000D03*
D13*
X284575000Y-59525000D03*
D16*
X275595000Y-53025000D03*
D17*
X275685000Y-56985000D03*
D18*
X276295000Y-54525000D03*
D17*
X276870000Y-55600000D03*
X282035000Y-54445000D03*
X282870000Y-55275000D03*
D16*
X283395000Y-53025000D03*
%TD*%
D13*
%TO.C,SW_KPCOM_1*%
X333120000Y-116550000D03*
D14*
X338200000Y-116550000D03*
D15*
X338200000Y-123050000D03*
D13*
X343280000Y-116550000D03*
D16*
X334300000Y-110050000D03*
D17*
X334390000Y-114010000D03*
D18*
X335000000Y-111550000D03*
D17*
X335575000Y-112625000D03*
X340740000Y-111470000D03*
X341575000Y-112300000D03*
D16*
X342100000Y-110050000D03*
%TD*%
D13*
%TO.C,SW_KP5_1*%
X333120000Y-78550000D03*
D14*
X338200000Y-78550000D03*
D15*
X338200000Y-85050000D03*
D13*
X343280000Y-78550000D03*
D16*
X334300000Y-72050000D03*
D17*
X334390000Y-76010000D03*
D18*
X335000000Y-73550000D03*
D17*
X335575000Y-74625000D03*
X340740000Y-73470000D03*
X341575000Y-74300000D03*
D16*
X342100000Y-72050000D03*
%TD*%
D13*
%TO.C,SW_KP8_1*%
X333120000Y-59550000D03*
D14*
X338200000Y-59550000D03*
D15*
X338200000Y-66050000D03*
D13*
X343280000Y-59550000D03*
D16*
X334300000Y-53050000D03*
D17*
X334390000Y-57010000D03*
D18*
X335000000Y-54550000D03*
D17*
X335575000Y-55625000D03*
X340740000Y-54470000D03*
X341575000Y-55300000D03*
D16*
X342100000Y-53050000D03*
%TD*%
D13*
%TO.C,SW_T_1*%
X115290000Y-59525000D03*
D14*
X120370000Y-59525000D03*
D15*
X120370000Y-66025000D03*
D13*
X125450000Y-59525000D03*
D16*
X116470000Y-53025000D03*
D17*
X116560000Y-56985000D03*
D18*
X117170000Y-54525000D03*
D17*
X117745000Y-55600000D03*
X122910000Y-54445000D03*
X123745000Y-55275000D03*
D16*
X124270000Y-53025000D03*
%TD*%
D13*
%TO.C,SW_P_1*%
X210290000Y-59525000D03*
D14*
X215370000Y-59525000D03*
D15*
X215370000Y-66025000D03*
D13*
X220450000Y-59525000D03*
D16*
X211470000Y-53025000D03*
D17*
X211560000Y-56985000D03*
D18*
X212170000Y-54525000D03*
D17*
X212745000Y-55600000D03*
X217910000Y-54445000D03*
X218745000Y-55275000D03*
D16*
X219270000Y-53025000D03*
%TD*%
D13*
%TO.C,SW_KP1_1*%
X314120000Y-97550000D03*
D14*
X319200000Y-97550000D03*
D15*
X319200000Y-104050000D03*
D13*
X324280000Y-97550000D03*
D16*
X315300000Y-91050000D03*
D17*
X315390000Y-95010000D03*
D18*
X316000000Y-92550000D03*
D17*
X316575000Y-93625000D03*
X321740000Y-92470000D03*
X322575000Y-93300000D03*
D16*
X323100000Y-91050000D03*
%TD*%
D13*
%TO.C,SW_TAB_1*%
X13165000Y-59525000D03*
D14*
X18245000Y-59525000D03*
D15*
X18245000Y-66025000D03*
D13*
X23325000Y-59525000D03*
D16*
X14345000Y-53025000D03*
D17*
X14435000Y-56985000D03*
D18*
X15045000Y-54525000D03*
D17*
X15620000Y-55600000D03*
X20785000Y-54445000D03*
X21620000Y-55275000D03*
D16*
X22145000Y-53025000D03*
%TD*%
D13*
%TO.C,SW_UP_1*%
X314120000Y-12050000D03*
D14*
X319200000Y-12050000D03*
D15*
X319200000Y-18550000D03*
D13*
X324280000Y-12050000D03*
D16*
X315300000Y-5550000D03*
D17*
X315390000Y-9510000D03*
D18*
X316000000Y-7050000D03*
D17*
X316575000Y-8125000D03*
X321740000Y-6970000D03*
X322575000Y-7800000D03*
D16*
X323100000Y-5550000D03*
%TD*%
D13*
%TO.C,SW_ESC_1*%
X8420000Y-40550000D03*
D14*
X13500000Y-40550000D03*
D15*
X13500000Y-47050000D03*
D13*
X18580000Y-40550000D03*
D16*
X9600000Y-34050000D03*
D17*
X9690000Y-38010000D03*
D18*
X10300000Y-35550000D03*
D17*
X10875000Y-36625000D03*
X16040000Y-35470000D03*
X16875000Y-36300000D03*
D16*
X17400000Y-34050000D03*
%TD*%
D13*
%TO.C,SW_KPPLUS_1*%
X371120000Y-78550000D03*
D14*
X376200000Y-78550000D03*
D15*
X376200000Y-85050000D03*
D13*
X381280000Y-78550000D03*
D16*
X372300000Y-72050000D03*
D17*
X372390000Y-76010000D03*
D18*
X373000000Y-73550000D03*
D17*
X373575000Y-74625000D03*
X378740000Y-73470000D03*
X379575000Y-74300000D03*
D16*
X380100000Y-72050000D03*
%TD*%
D13*
%TO.C,SW_N_1*%
X148640000Y-97550000D03*
D14*
X153720000Y-97550000D03*
D15*
X153720000Y-104050000D03*
D13*
X158800000Y-97550000D03*
D16*
X149820000Y-91050000D03*
D17*
X149910000Y-95010000D03*
D18*
X150520000Y-92550000D03*
D17*
X151095000Y-93625000D03*
X156260000Y-92470000D03*
X157095000Y-93300000D03*
D16*
X157620000Y-91050000D03*
%TD*%
D13*
%TO.C,SW_7_1*%
X144120000Y-40550000D03*
D14*
X149200000Y-40550000D03*
D15*
X149200000Y-47050000D03*
D13*
X154280000Y-40550000D03*
D16*
X145300000Y-34050000D03*
D17*
X145390000Y-38010000D03*
D18*
X146000000Y-35550000D03*
D17*
X146575000Y-36625000D03*
X151740000Y-35470000D03*
X152575000Y-36300000D03*
D16*
X153100000Y-34050000D03*
%TD*%
D13*
%TO.C,SW_F_1*%
X101140000Y-78550000D03*
D14*
X106220000Y-78550000D03*
D15*
X106220000Y-85050000D03*
D13*
X111300000Y-78550000D03*
D16*
X102320000Y-72050000D03*
D17*
X102410000Y-76010000D03*
D18*
X103020000Y-73550000D03*
D17*
X103595000Y-74625000D03*
X108760000Y-73470000D03*
X109595000Y-74300000D03*
D16*
X110120000Y-72050000D03*
%TD*%
D13*
%TO.C,SW_SLS_1*%
X224640000Y-97550000D03*
D14*
X229720000Y-97550000D03*
D15*
X229720000Y-104050000D03*
D13*
X234800000Y-97550000D03*
D16*
X225820000Y-91050000D03*
D17*
X225910000Y-95010000D03*
D18*
X226520000Y-92550000D03*
D17*
X227095000Y-93625000D03*
X232260000Y-92470000D03*
X233095000Y-93300000D03*
D16*
X233620000Y-91050000D03*
%TD*%
D13*
%TO.C,SW_SMI_1*%
X215140000Y-78550000D03*
D14*
X220220000Y-78550000D03*
D15*
X220220000Y-85050000D03*
D13*
X225300000Y-78550000D03*
D16*
X216320000Y-72050000D03*
D17*
X216410000Y-76010000D03*
D18*
X217020000Y-73550000D03*
D17*
X217595000Y-74625000D03*
X222760000Y-73470000D03*
X223595000Y-74300000D03*
D16*
X224120000Y-72050000D03*
%TD*%
D13*
%TO.C,SW_ALT_1*%
X72640000Y-116650000D03*
D14*
X77720000Y-116650000D03*
D15*
X77720000Y-123150000D03*
D13*
X82800000Y-116650000D03*
D16*
X73820000Y-110150000D03*
D17*
X73910000Y-114110000D03*
D18*
X74520000Y-111650000D03*
D17*
X75095000Y-112725000D03*
X80260000Y-111570000D03*
X81095000Y-112400000D03*
D16*
X81620000Y-110150000D03*
%TD*%
D19*
%TO.C,D16*%
X68274999Y-92799999D03*
X68274999Y-89499999D03*
%TD*%
D20*
%TO.C,C8*%
X216164000Y-114295000D03*
X214264000Y-114295000D03*
%TD*%
%TO.C,C9*%
X198956000Y-108961000D03*
X197056000Y-108961000D03*
%TD*%
%TO.C,C10*%
X244294000Y-110485000D03*
X242394000Y-110485000D03*
%TD*%
D21*
%TO.C,R1*%
X250240000Y-111000000D03*
X252065000Y-111000000D03*
%TD*%
D22*
%TO.C,SW1*%
X298474999Y-76799999D03*
X304674999Y-73099999D03*
X298474999Y-73099999D03*
X304674999Y-76799999D03*
%TD*%
D23*
%TO.C,C1*%
X286582143Y-105329622D03*
X286582143Y-107229622D03*
%TD*%
D24*
%TO.C,C2*%
X299094143Y-124728872D03*
X300994143Y-124728872D03*
%TD*%
%TO.C,C5*%
X299094143Y-122347622D03*
X300994143Y-122347622D03*
%TD*%
D25*
%TO.C,C6*%
X294859623Y-103293767D03*
X294859623Y-101393767D03*
%TD*%
D24*
%TO.C,C7*%
X304734500Y-103720000D03*
X306634500Y-103720000D03*
%TD*%
D19*
%TO.C,D1*%
X20799999Y-6899999D03*
X20799999Y-3599999D03*
%TD*%
%TO.C,D2*%
X22779999Y-35349999D03*
X22779999Y-32049999D03*
%TD*%
%TO.C,D3*%
X27599999Y-54049999D03*
X27599999Y-50749999D03*
%TD*%
%TO.C,D4*%
X20474999Y-73424999D03*
X20474999Y-70124999D03*
%TD*%
%TO.C,D5*%
X20824999Y-92374999D03*
X20824999Y-89074999D03*
%TD*%
%TO.C,D6*%
X49499999Y-92474999D03*
X49499999Y-89174999D03*
%TD*%
%TO.C,D7*%
X39699999Y-73574999D03*
X39699999Y-70274999D03*
%TD*%
%TO.C,D8*%
X53849999Y-54124999D03*
X53849999Y-50824999D03*
%TD*%
%TO.C,D9*%
X44529999Y-35449999D03*
X44529999Y-32149999D03*
%TD*%
%TO.C,D10*%
X39774999Y-6924999D03*
X39774999Y-3624999D03*
%TD*%
%TO.C,D12*%
X82799999Y-6999999D03*
X82799999Y-3699999D03*
%TD*%
%TO.C,D13*%
X63279999Y-35999999D03*
X63279999Y-32699999D03*
%TD*%
%TO.C,D14*%
X72924999Y-54599999D03*
X72924999Y-51299999D03*
%TD*%
%TO.C,D15*%
X58999999Y-73449999D03*
X58999999Y-70149999D03*
%TD*%
%TO.C,D17*%
X68174999Y-111724999D03*
X68174999Y-108424999D03*
%TD*%
%TO.C,D18*%
X86874999Y-92549999D03*
X86874999Y-89249999D03*
%TD*%
%TO.C,D19*%
X77799999Y-73224999D03*
X77799999Y-69924999D03*
%TD*%
%TO.C,D20*%
X91799999Y-54174999D03*
X91799999Y-50874999D03*
%TD*%
%TO.C,D21*%
X82329999Y-35999999D03*
X82329999Y-32699999D03*
%TD*%
%TO.C,D23*%
X120699999Y-7149999D03*
X120699999Y-3849999D03*
%TD*%
%TO.C,D24*%
X101379999Y-35999999D03*
X101379999Y-32699999D03*
%TD*%
%TO.C,D25*%
X111024999Y-54249999D03*
X111024999Y-50949999D03*
%TD*%
%TO.C,D26*%
X96699999Y-73224999D03*
X96699999Y-69924999D03*
%TD*%
%TO.C,D27*%
X105949999Y-92349999D03*
X105949999Y-89049999D03*
%TD*%
%TO.C,D28*%
X87324999Y-111624999D03*
X87324999Y-108324999D03*
%TD*%
%TO.C,D29*%
X125124999Y-92624999D03*
X125124999Y-89324999D03*
%TD*%
%TO.C,D30*%
X115499999Y-73224999D03*
X115499999Y-69924999D03*
%TD*%
%TO.C,D31*%
X129899999Y-54124999D03*
X129899999Y-50824999D03*
%TD*%
%TO.C,D32*%
X120429999Y-35999999D03*
X120429999Y-32699999D03*
%TD*%
%TO.C,D34*%
X158699999Y-7049999D03*
X158699999Y-3749999D03*
%TD*%
%TO.C,D35*%
X139579999Y-35649999D03*
X139579999Y-32349999D03*
%TD*%
%TO.C,D36*%
X148949999Y-54124999D03*
X148949999Y-50824999D03*
%TD*%
%TO.C,D37*%
X134949999Y-73224999D03*
X134949999Y-69924999D03*
%TD*%
%TO.C,D38*%
X144199999Y-92174999D03*
X144199999Y-88874999D03*
%TD*%
%TO.C,D39*%
X162974999Y-111624999D03*
X162974999Y-108324999D03*
%TD*%
%TO.C,D40*%
X163099999Y-92324999D03*
X163099999Y-89024999D03*
%TD*%
%TO.C,D41*%
X153974999Y-73424999D03*
X153974999Y-70124999D03*
%TD*%
%TO.C,D42*%
X167849999Y-53874999D03*
X167849999Y-50574999D03*
%TD*%
%TO.C,D44*%
X158779999Y-35449999D03*
X158779999Y-32149999D03*
%TD*%
%TO.C,D45*%
X196299999Y-6949999D03*
X196299999Y-3649999D03*
%TD*%
%TO.C,D46*%
X177679999Y-35649999D03*
X177679999Y-32349999D03*
%TD*%
%TO.C,D47*%
X186849999Y-54374999D03*
X186849999Y-51074999D03*
%TD*%
%TO.C,D48*%
X172774999Y-73549999D03*
X172774999Y-70249999D03*
%TD*%
%TO.C,D49*%
X182199999Y-92374999D03*
X182199999Y-89074999D03*
%TD*%
%TO.C,D50*%
X182049999Y-111999999D03*
X182049999Y-108699999D03*
%TD*%
%TO.C,D51*%
X201324999Y-92549999D03*
X201324999Y-89249999D03*
%TD*%
%TO.C,D52*%
X191999999Y-73224999D03*
X191999999Y-69924999D03*
%TD*%
%TO.C,D53*%
X205749999Y-54274999D03*
X205749999Y-50974999D03*
%TD*%
%TO.C,D54*%
X196729999Y-35649999D03*
X196729999Y-32349999D03*
%TD*%
%TO.C,D56*%
X234599999Y-7449999D03*
X234599999Y-4149999D03*
%TD*%
%TO.C,D57*%
X215579999Y-35449999D03*
X215579999Y-32149999D03*
%TD*%
%TO.C,D58*%
X224674999Y-54674999D03*
X224674999Y-51374999D03*
%TD*%
%TO.C,D59*%
X210799999Y-73224999D03*
X210799999Y-69924999D03*
%TD*%
%TO.C,D60*%
X220499999Y-92649999D03*
X220499999Y-89349999D03*
%TD*%
%TO.C,D61*%
X239174999Y-92199999D03*
X239174999Y-88899999D03*
%TD*%
%TO.C,D62*%
X229549999Y-73174999D03*
X229549999Y-69874999D03*
%TD*%
%TO.C,D63*%
X243424999Y-54774999D03*
X243424999Y-51474999D03*
%TD*%
%TO.C,D64*%
X234379999Y-35599999D03*
X234379999Y-32299999D03*
%TD*%
%TO.C,D65*%
X253379999Y-35449999D03*
X253379999Y-32149999D03*
%TD*%
%TO.C,D67*%
X277199999Y-7449999D03*
X277199999Y-4149999D03*
%TD*%
%TO.C,D68*%
X272374999Y-35299999D03*
X272374999Y-31999999D03*
%TD*%
%TO.C,D69*%
X263074999Y-54099999D03*
X263074999Y-50799999D03*
%TD*%
%TO.C,D70*%
X248724999Y-73374999D03*
X248724999Y-70074999D03*
%TD*%
%TO.C,D71*%
X258399999Y-92474999D03*
X258399999Y-89174999D03*
%TD*%
%TO.C,D72*%
X366799999Y-6649999D03*
X366799999Y-3349999D03*
%TD*%
%TO.C,D73*%
X267449999Y-73424999D03*
X267449999Y-70124999D03*
%TD*%
%TO.C,D75*%
X289049999Y-54299999D03*
X289049999Y-50999999D03*
%TD*%
%TO.C,D76*%
X293824999Y-35349999D03*
X293824999Y-32049999D03*
%TD*%
%TO.C,D78*%
X296599999Y-7349999D03*
X296599999Y-4049999D03*
%TD*%
%TO.C,D81*%
X291724999Y-73274999D03*
X291724999Y-69974999D03*
%TD*%
%TO.C,D82*%
X266499999Y-94074999D03*
X266499999Y-90774999D03*
%TD*%
%TO.C,D83*%
X366559999Y-21129999D03*
X366559999Y-17829999D03*
%TD*%
%TO.C,D84*%
X347749999Y-6374999D03*
X347749999Y-3074999D03*
%TD*%
%TO.C,D85*%
X328724999Y-9124999D03*
X328724999Y-5824999D03*
%TD*%
%TO.C,D89*%
X328749999Y-35174999D03*
X328749999Y-31874999D03*
%TD*%
%TO.C,D90*%
X327899999Y-54324999D03*
X327899999Y-51024999D03*
%TD*%
%TO.C,D91*%
X328549999Y-73474999D03*
X328549999Y-70174999D03*
%TD*%
%TO.C,D92*%
X328874999Y-92399999D03*
X328874999Y-89099999D03*
%TD*%
%TO.C,D93*%
X327449999Y-111374999D03*
X327449999Y-108074999D03*
%TD*%
%TO.C,D94*%
X346899999Y-111474999D03*
X346899999Y-108174999D03*
%TD*%
%TO.C,D95*%
X346249999Y-92574999D03*
X346249999Y-89274999D03*
%TD*%
%TO.C,D96*%
X346349999Y-73349999D03*
X346349999Y-70049999D03*
%TD*%
%TO.C,D97*%
X346799999Y-54649999D03*
X346799999Y-51349999D03*
%TD*%
%TO.C,D99*%
X365049999Y-35624999D03*
X365049999Y-32324999D03*
%TD*%
%TO.C,D101*%
X366249999Y-54649999D03*
X366249999Y-51349999D03*
%TD*%
%TO.C,D102*%
X366574999Y-72999999D03*
X366574999Y-69699999D03*
%TD*%
%TO.C,D103*%
X365699999Y-92699999D03*
X365699999Y-89399999D03*
%TD*%
%TO.C,D104*%
X366024999Y-111274999D03*
X366024999Y-107974999D03*
%TD*%
%TO.C,D109*%
X367124999Y-62524999D03*
X367124999Y-59224999D03*
%TD*%
%TO.C,D110*%
X382524999Y-28449999D03*
X382524999Y-31749999D03*
%TD*%
D26*
%TO.C,J1*%
X302175000Y-6500000D03*
X303175000Y-6500000D03*
X304175000Y-6500000D03*
X305175000Y-6500000D03*
D27*
X300875000Y-2625000D03*
X306475000Y-2625000D03*
%TD*%
D21*
%TO.C,R3*%
X300512500Y-80775000D03*
X302337500Y-80775000D03*
%TD*%
D28*
%TO.C,R4*%
X286550000Y-120475000D03*
X286550000Y-122300000D03*
%TD*%
D29*
%TO.C,U1*%
X290799392Y-107863621D03*
D30*
X292299393Y-110226122D03*
D29*
X291599392Y-107863621D03*
D30*
X292799393Y-110226122D03*
D29*
X292399392Y-107863621D03*
D30*
X293299393Y-110226122D03*
D29*
X293199392Y-107863621D03*
D30*
X293799393Y-110226122D03*
D29*
X293999392Y-107863621D03*
D30*
X294299393Y-110226122D03*
D29*
X294799392Y-107863621D03*
D30*
X294799393Y-110226122D03*
D29*
X295599392Y-107863621D03*
D30*
X295299393Y-110226122D03*
D29*
X296399392Y-107863621D03*
D30*
X295799393Y-110226122D03*
D29*
X297199392Y-107863621D03*
D30*
X296299393Y-110226122D03*
D29*
X297999392Y-107863621D03*
D30*
X296799393Y-110226122D03*
D29*
X298799392Y-107863621D03*
D30*
X297299393Y-110226122D03*
D31*
X300499392Y-109563621D03*
D32*
X298136893Y-111063622D03*
D31*
X300499392Y-110363621D03*
D32*
X298136893Y-111563622D03*
D31*
X300499392Y-111163621D03*
D32*
X298136893Y-112063622D03*
D31*
X300499392Y-111963621D03*
D32*
X298136893Y-112563622D03*
D31*
X300499392Y-112763621D03*
D32*
X298136893Y-113063622D03*
D31*
X300499392Y-113563621D03*
D32*
X298136893Y-113563622D03*
X298136893Y-114063622D03*
D31*
X300499392Y-114363621D03*
D32*
X298136893Y-114563622D03*
D31*
X300499392Y-115163621D03*
D32*
X298136893Y-115063622D03*
D31*
X300499392Y-115963621D03*
D32*
X298136893Y-115563622D03*
D31*
X300499392Y-116763621D03*
D32*
X298136893Y-116063622D03*
D31*
X300499392Y-117563621D03*
D30*
X297299393Y-116901122D03*
D29*
X298799392Y-119263621D03*
D30*
X296799393Y-116901122D03*
D29*
X297999392Y-119263621D03*
D30*
X296299393Y-116901122D03*
D29*
X297199392Y-119263621D03*
D30*
X295799393Y-116901122D03*
D29*
X296399392Y-119263621D03*
D30*
X295299393Y-116901122D03*
D29*
X295599392Y-119263621D03*
D30*
X294799393Y-116901122D03*
D29*
X294799392Y-119263621D03*
D30*
X294299393Y-116901122D03*
D29*
X293999392Y-119263621D03*
D30*
X293799393Y-116901122D03*
D29*
X293199392Y-119263621D03*
D30*
X293299393Y-116901122D03*
D29*
X292399392Y-119263621D03*
D30*
X292799393Y-116901122D03*
D29*
X291599392Y-119263621D03*
D30*
X292299393Y-116901122D03*
D29*
X290799392Y-119263621D03*
D32*
X291461893Y-116063622D03*
D31*
X289099392Y-117563621D03*
D32*
X291461893Y-115563622D03*
D31*
X289099392Y-116763621D03*
D32*
X291461893Y-115063622D03*
D31*
X289099392Y-115963621D03*
D32*
X291461893Y-114563622D03*
D31*
X289099392Y-115163621D03*
D32*
X291461893Y-114063622D03*
D31*
X289099392Y-114363621D03*
D32*
X291461893Y-113563622D03*
D31*
X289099392Y-113563621D03*
X289099392Y-112763621D03*
D32*
X291461893Y-113063622D03*
D31*
X289099392Y-111963621D03*
D32*
X291461893Y-112563622D03*
D31*
X289099392Y-111163621D03*
D32*
X291461893Y-112063622D03*
D31*
X289099392Y-110363621D03*
D32*
X291461893Y-111563622D03*
D31*
X289099392Y-109563621D03*
D32*
X291461893Y-111063622D03*
D33*
X294799392Y-113563621D03*
%TD*%
D34*
%TO.C,Y1*%
X304678249Y-111385499D03*
X304678249Y-109185499D03*
X306378249Y-109185499D03*
X306378249Y-111385499D03*
%TD*%
D24*
%TO.C,C3*%
X307090000Y-113715000D03*
X308990000Y-113715000D03*
%TD*%
D20*
%TO.C,C4*%
X306634500Y-106010500D03*
X304734500Y-106010500D03*
%TD*%
D19*
%TO.C,D98*%
X347674999Y-35349999D03*
X347674999Y-32049999D03*
%TD*%
%TO.C,D106*%
X366474999Y-101999999D03*
X366474999Y-98699999D03*
%TD*%
%TO.C,D105*%
X367649999Y-122899999D03*
X367649999Y-119599999D03*
%TD*%
D24*
%TO.C,C11*%
X263425000Y-121000000D03*
X265325000Y-121000000D03*
%TD*%
D35*
%TO.C,R5*%
X293007000Y-95515500D03*
X293007000Y-93690500D03*
%TD*%
%TO.C,R2*%
X290975000Y-95562500D03*
X290975000Y-93737500D03*
%TD*%
D19*
%TO.C,D43*%
X366724999Y-79574999D03*
X366724999Y-76274999D03*
%TD*%
D36*
%TO.C,R6*%
X270225000Y-120975000D03*
X268400000Y-120975000D03*
%TD*%
D37*
%TO.C,BUZ1*%
X259174999Y-113824999D03*
X272374999Y-113824999D03*
%TD*%
D38*
X382930000Y-128030000D02*
G75*
G03*
X385980000Y-124980000I0J3050000D01*
G01*
X3030000Y-30000D02*
G75*
G03*
X0Y-3080000I10002J-3040002D01*
G01*
X0Y-124980000D02*
G75*
G03*
X3030000Y-128030000I3040000J-10000D01*
G01*
D39*
X3030000Y-128030000D02*
X382930000Y-128030000D01*
X385980000Y-124980000D02*
X385980000Y-3080000D01*
X0Y-3080000D02*
X0Y-124980000D01*
X382930000Y-30000D02*
X3030000Y-30000D01*
X322312085Y-30600497D02*
G75*
G03*
X322312085Y-30600497I-1625192J0D01*
G01*
X149225192Y-26605000D02*
G75*
G03*
X149225192Y-26605000I-1625192J0D01*
G01*
X30725192Y-26605000D02*
G75*
G03*
X30725192Y-26605000I-1625192J0D01*
G01*
D38*
X385980000Y-3080000D02*
G75*
G03*
X382930000Y-30000I-3050000J0D01*
G01*
D39*
X35225192Y-116605000D02*
G75*
G03*
X35225192Y-116605000I-1625192J0D01*
G01*
M02*
