%TF.GenerationSoftware,KiCad,Pcbnew,(6.99.0-5015-g618347ef50-dirty)*%
%TF.CreationDate,2022-12-25T12:42:50-05:00*%
%TF.ProjectId,necpc8801mkiisr,6e656370-6338-4383-9031-6d6b69697372,rev?*%
%TF.SameCoordinates,Original*%
%TF.FileFunction,Legend,Top*%
%TF.FilePolarity,Positive*%
%FSLAX46Y46*%
G04 Gerber Fmt 4.6, Leading zero omitted, Abs format (unit mm)*
G04 Created by KiCad (PCBNEW (6.99.0-5015-g618347ef50-dirty)) date 2022-12-25 12:42:50*
%MOMM*%
%LPD*%
G01*
G04 APERTURE LIST*
%ADD10C,0.150000*%
%ADD11C,0.120000*%
%ADD12R,1.500000X1.000000*%
%ADD13O,1.070000X1.800000*%
%ADD14R,1.070000X1.800000*%
%ADD15C,5.400000*%
%ADD16C,1.750000*%
%ADD17C,3.987800*%
%ADD18C,3.000000*%
%TA.AperFunction,Profile*%
%ADD19C,0.150000*%
%TD*%
%TA.AperFunction,Profile*%
%ADD20C,0.050000*%
%TD*%
G04 APERTURE END LIST*
D10*
%TO.C,LED1*%
X196980952Y-111492380D02*
X196504762Y-111492380D01*
X196504762Y-111492380D02*
X196504762Y-110492380D01*
X197314286Y-110968571D02*
X197647619Y-110968571D01*
X197790476Y-111492380D02*
X197314286Y-111492380D01*
X197314286Y-111492380D02*
X197314286Y-110492380D01*
X197314286Y-110492380D02*
X197790476Y-110492380D01*
X198219048Y-111492380D02*
X198219048Y-110492380D01*
X198219048Y-110492380D02*
X198457143Y-110492380D01*
X198457143Y-110492380D02*
X198600000Y-110540000D01*
X198600000Y-110540000D02*
X198695238Y-110635238D01*
X198695238Y-110635238D02*
X198742857Y-110730476D01*
X198742857Y-110730476D02*
X198790476Y-110920952D01*
X198790476Y-110920952D02*
X198790476Y-111063809D01*
X198790476Y-111063809D02*
X198742857Y-111254285D01*
X198742857Y-111254285D02*
X198695238Y-111349523D01*
X198695238Y-111349523D02*
X198600000Y-111444761D01*
X198600000Y-111444761D02*
X198457143Y-111492380D01*
X198457143Y-111492380D02*
X198219048Y-111492380D01*
X199742857Y-111492380D02*
X199171429Y-111492380D01*
X199457143Y-111492380D02*
X199457143Y-110492380D01*
X199457143Y-110492380D02*
X199361905Y-110635238D01*
X199361905Y-110635238D02*
X199266667Y-110730476D01*
X199266667Y-110730476D02*
X199171429Y-110778095D01*
X194235714Y-113392380D02*
X193664286Y-113392380D01*
X193950000Y-113392380D02*
X193950000Y-112392380D01*
X193950000Y-112392380D02*
X193854762Y-112535238D01*
X193854762Y-112535238D02*
X193759524Y-112630476D01*
X193759524Y-112630476D02*
X193664286Y-112678095D01*
%TO.C,LED2*%
X220980952Y-111492380D02*
X220504762Y-111492380D01*
X220504762Y-111492380D02*
X220504762Y-110492380D01*
X221314286Y-110968571D02*
X221647619Y-110968571D01*
X221790476Y-111492380D02*
X221314286Y-111492380D01*
X221314286Y-111492380D02*
X221314286Y-110492380D01*
X221314286Y-110492380D02*
X221790476Y-110492380D01*
X222219048Y-111492380D02*
X222219048Y-110492380D01*
X222219048Y-110492380D02*
X222457143Y-110492380D01*
X222457143Y-110492380D02*
X222600000Y-110540000D01*
X222600000Y-110540000D02*
X222695238Y-110635238D01*
X222695238Y-110635238D02*
X222742857Y-110730476D01*
X222742857Y-110730476D02*
X222790476Y-110920952D01*
X222790476Y-110920952D02*
X222790476Y-111063809D01*
X222790476Y-111063809D02*
X222742857Y-111254285D01*
X222742857Y-111254285D02*
X222695238Y-111349523D01*
X222695238Y-111349523D02*
X222600000Y-111444761D01*
X222600000Y-111444761D02*
X222457143Y-111492380D01*
X222457143Y-111492380D02*
X222219048Y-111492380D01*
X223171429Y-110587619D02*
X223219048Y-110540000D01*
X223219048Y-110540000D02*
X223314286Y-110492380D01*
X223314286Y-110492380D02*
X223552381Y-110492380D01*
X223552381Y-110492380D02*
X223647619Y-110540000D01*
X223647619Y-110540000D02*
X223695238Y-110587619D01*
X223695238Y-110587619D02*
X223742857Y-110682857D01*
X223742857Y-110682857D02*
X223742857Y-110778095D01*
X223742857Y-110778095D02*
X223695238Y-110920952D01*
X223695238Y-110920952D02*
X223123810Y-111492380D01*
X223123810Y-111492380D02*
X223742857Y-111492380D01*
X218235714Y-113392380D02*
X217664286Y-113392380D01*
X217950000Y-113392380D02*
X217950000Y-112392380D01*
X217950000Y-112392380D02*
X217854762Y-112535238D01*
X217854762Y-112535238D02*
X217759524Y-112630476D01*
X217759524Y-112630476D02*
X217664286Y-112678095D01*
%TO.C,LED3*%
X244980952Y-111492380D02*
X244504762Y-111492380D01*
X244504762Y-111492380D02*
X244504762Y-110492380D01*
X245314286Y-110968571D02*
X245647619Y-110968571D01*
X245790476Y-111492380D02*
X245314286Y-111492380D01*
X245314286Y-111492380D02*
X245314286Y-110492380D01*
X245314286Y-110492380D02*
X245790476Y-110492380D01*
X246219048Y-111492380D02*
X246219048Y-110492380D01*
X246219048Y-110492380D02*
X246457143Y-110492380D01*
X246457143Y-110492380D02*
X246600000Y-110540000D01*
X246600000Y-110540000D02*
X246695238Y-110635238D01*
X246695238Y-110635238D02*
X246742857Y-110730476D01*
X246742857Y-110730476D02*
X246790476Y-110920952D01*
X246790476Y-110920952D02*
X246790476Y-111063809D01*
X246790476Y-111063809D02*
X246742857Y-111254285D01*
X246742857Y-111254285D02*
X246695238Y-111349523D01*
X246695238Y-111349523D02*
X246600000Y-111444761D01*
X246600000Y-111444761D02*
X246457143Y-111492380D01*
X246457143Y-111492380D02*
X246219048Y-111492380D01*
X247123810Y-110492380D02*
X247742857Y-110492380D01*
X247742857Y-110492380D02*
X247409524Y-110873333D01*
X247409524Y-110873333D02*
X247552381Y-110873333D01*
X247552381Y-110873333D02*
X247647619Y-110920952D01*
X247647619Y-110920952D02*
X247695238Y-110968571D01*
X247695238Y-110968571D02*
X247742857Y-111063809D01*
X247742857Y-111063809D02*
X247742857Y-111301904D01*
X247742857Y-111301904D02*
X247695238Y-111397142D01*
X247695238Y-111397142D02*
X247647619Y-111444761D01*
X247647619Y-111444761D02*
X247552381Y-111492380D01*
X247552381Y-111492380D02*
X247266667Y-111492380D01*
X247266667Y-111492380D02*
X247171429Y-111444761D01*
X247171429Y-111444761D02*
X247123810Y-111397142D01*
X242235714Y-113392380D02*
X241664286Y-113392380D01*
X241950000Y-113392380D02*
X241950000Y-112392380D01*
X241950000Y-112392380D02*
X241854762Y-112535238D01*
X241854762Y-112535238D02*
X241759524Y-112630476D01*
X241759524Y-112630476D02*
X241664286Y-112678095D01*
%TO.C,H2*%
X125338095Y-113392380D02*
X125338095Y-112392380D01*
X125338095Y-112868571D02*
X125909523Y-112868571D01*
X125909523Y-113392380D02*
X125909523Y-112392380D01*
X126338095Y-112487619D02*
X126385714Y-112440000D01*
X126385714Y-112440000D02*
X126480952Y-112392380D01*
X126480952Y-112392380D02*
X126719047Y-112392380D01*
X126719047Y-112392380D02*
X126814285Y-112440000D01*
X126814285Y-112440000D02*
X126861904Y-112487619D01*
X126861904Y-112487619D02*
X126909523Y-112582857D01*
X126909523Y-112582857D02*
X126909523Y-112678095D01*
X126909523Y-112678095D02*
X126861904Y-112820952D01*
X126861904Y-112820952D02*
X126290476Y-113392380D01*
X126290476Y-113392380D02*
X126909523Y-113392380D01*
D11*
%TO.C,LED1*%
X194450000Y-111875000D02*
X201750000Y-111875000D01*
X194450000Y-117375000D02*
X201750000Y-117375000D01*
X201750000Y-117375000D02*
X201750000Y-116225000D01*
%TO.C,LED2*%
X218450000Y-111875000D02*
X225750000Y-111875000D01*
X218450000Y-117375000D02*
X225750000Y-117375000D01*
X225750000Y-117375000D02*
X225750000Y-116225000D01*
%TO.C,LED3*%
X242450000Y-111875000D02*
X249750000Y-111875000D01*
X242450000Y-117375000D02*
X249750000Y-117375000D01*
X249750000Y-117375000D02*
X249750000Y-116225000D01*
%TD*%
%LPC*%
D12*
%TO.C,LED1*%
X195649999Y-113024999D03*
D13*
X198734999Y-114624999D03*
D12*
X195649999Y-116224999D03*
D13*
X196194999Y-114624999D03*
D14*
X197464999Y-114624999D03*
D12*
X200549999Y-116224999D03*
D13*
X200004999Y-114624999D03*
D12*
X200549999Y-113024999D03*
%TD*%
%TO.C,LED2*%
X219649999Y-113024999D03*
D13*
X222734999Y-114624999D03*
D12*
X219649999Y-116224999D03*
D13*
X220194999Y-114624999D03*
D14*
X221464999Y-114624999D03*
D12*
X224549999Y-116224999D03*
D13*
X224004999Y-114624999D03*
D12*
X224549999Y-113024999D03*
%TD*%
%TO.C,LED3*%
X243649999Y-113024999D03*
D13*
X246734999Y-114624999D03*
D12*
X243649999Y-116224999D03*
D13*
X244194999Y-114624999D03*
D14*
X245464999Y-114624999D03*
D12*
X248549999Y-116224999D03*
D13*
X248004999Y-114624999D03*
D12*
X248549999Y-113024999D03*
%TD*%
D15*
%TO.C,H2*%
X126100000Y-116725000D03*
%TD*%
D16*
%TO.C,SW_STP_1*%
X6140000Y-12050000D03*
D17*
X11220000Y-12050000D03*
D18*
X11220000Y-18550000D03*
D16*
X16300000Y-12050000D03*
%TD*%
%TO.C,SW_KPMULT_1*%
X371120000Y-59550000D03*
D17*
X376200000Y-59550000D03*
D18*
X376200000Y-66050000D03*
D16*
X381280000Y-59550000D03*
%TD*%
%TO.C,SW_RLD_1*%
X281740000Y-12050000D03*
D17*
X286820000Y-12050000D03*
D18*
X286820000Y-18550000D03*
D16*
X291900000Y-12050000D03*
%TD*%
%TO.C,SW_LS2_1*%
X34640000Y-97550000D03*
D17*
X39720000Y-97550000D03*
D18*
X39720000Y-104050000D03*
D16*
X44800000Y-97550000D03*
%TD*%
%TO.C,SW_F3_1*%
X143940000Y-12050000D03*
D17*
X149020000Y-12050000D03*
D18*
X149020000Y-18550000D03*
D16*
X154100000Y-12050000D03*
%TD*%
%TO.C,SW_KP2_1*%
X333120000Y-97550000D03*
D17*
X338200000Y-97550000D03*
D18*
X338200000Y-104050000D03*
D16*
X343280000Y-97550000D03*
%TD*%
%TO.C,SW_WE_1*%
X253140000Y-78550000D03*
D17*
X258220000Y-78550000D03*
D18*
X258220000Y-85050000D03*
D16*
X263300000Y-78550000D03*
%TD*%
%TO.C,SW_F5_1*%
X219940000Y-12050000D03*
D17*
X225020000Y-12050000D03*
D18*
X225020000Y-18550000D03*
D16*
X230100000Y-12050000D03*
%TD*%
%TO.C,SW_LT_1*%
X186640000Y-97550000D03*
D17*
X191720000Y-97550000D03*
D18*
X191720000Y-104050000D03*
D16*
X196800000Y-97550000D03*
%TD*%
%TO.C,SW_KP4_1*%
X314120000Y-78550000D03*
D17*
X319200000Y-78550000D03*
D18*
X319200000Y-85050000D03*
D16*
X324280000Y-78550000D03*
%TD*%
%TO.C,SW_CAR_1*%
X239120000Y-40550000D03*
D17*
X244200000Y-40550000D03*
D18*
X244200000Y-47050000D03*
D16*
X249280000Y-40550000D03*
%TD*%
%TO.C,SW_SUP_1*%
X53640000Y-116650000D03*
D17*
X58720000Y-116650000D03*
D18*
X58720000Y-123150000D03*
D16*
X63800000Y-116650000D03*
%TD*%
%TO.C,SW_RLU_1*%
X262740000Y-12050000D03*
D17*
X267820000Y-12050000D03*
D18*
X267820000Y-18550000D03*
D16*
X272900000Y-12050000D03*
%TD*%
%TO.C,SW_DEL_1*%
X279495000Y-40550000D03*
D17*
X284575000Y-40550000D03*
D18*
X284575000Y-47050000D03*
D16*
X289655000Y-40550000D03*
%TD*%
%TO.C,SW_J_1*%
X158140000Y-78550000D03*
D17*
X163220000Y-78550000D03*
D18*
X163220000Y-85050000D03*
D16*
X168300000Y-78550000D03*
%TD*%
%TO.C,SW_KPEQ_1*%
X371120000Y-97550000D03*
D17*
X376200000Y-97550000D03*
D18*
X376200000Y-104050000D03*
D16*
X381280000Y-97550000D03*
%TD*%
%TO.C,SW_KP3_1*%
X352120000Y-97550000D03*
D17*
X357200000Y-97550000D03*
D18*
X357200000Y-104050000D03*
D16*
X362280000Y-97550000D03*
%TD*%
%TO.C,SW_K_1*%
X177140000Y-78550000D03*
D17*
X182220000Y-78550000D03*
D18*
X182220000Y-85050000D03*
D16*
X187300000Y-78550000D03*
%TD*%
%TO.C,SW_SP2_1*%
X167640000Y-116650000D03*
D17*
X172720000Y-116650000D03*
D18*
X172720000Y-123150000D03*
D16*
X177800000Y-116650000D03*
%TD*%
%TO.C,SW_F1_1*%
X67940000Y-12050000D03*
D17*
X73020000Y-12050000D03*
D18*
X73020000Y-18550000D03*
D16*
X78100000Y-12050000D03*
%TD*%
%TO.C,SW_CPY_1*%
X25140000Y-12050000D03*
D17*
X30220000Y-12050000D03*
D18*
X30220000Y-18550000D03*
D16*
X35300000Y-12050000D03*
%TD*%
%TO.C,SW_SP1_1*%
X148640000Y-116650000D03*
D17*
X153720000Y-116650000D03*
D18*
X153720000Y-123150000D03*
D16*
X158800000Y-116650000D03*
%TD*%
%TO.C,SW_D_1*%
X82140000Y-78550000D03*
D17*
X87220000Y-78550000D03*
D18*
X87220000Y-85050000D03*
D16*
X92300000Y-78550000D03*
%TD*%
%TO.C,SW_A_1*%
X44140000Y-78550000D03*
D17*
X49220000Y-78550000D03*
D18*
X49220000Y-85050000D03*
D16*
X54300000Y-78550000D03*
%TD*%
%TO.C,SW_KPPER_1*%
X352120000Y-116550000D03*
D17*
X357200000Y-116550000D03*
D18*
X357200000Y-123050000D03*
D16*
X362280000Y-116550000D03*
%TD*%
%TO.C,SW_6_1*%
X125120000Y-40550000D03*
D17*
X130200000Y-40550000D03*
D18*
X130200000Y-47050000D03*
D16*
X135280000Y-40550000D03*
%TD*%
%TO.C,SW_KP6_1*%
X352120000Y-78550000D03*
D17*
X357200000Y-78550000D03*
D18*
X357200000Y-85050000D03*
D16*
X362280000Y-78550000D03*
%TD*%
%TO.C,SW_9_1*%
X182120000Y-40550000D03*
D17*
X187200000Y-40550000D03*
D18*
X187200000Y-47050000D03*
D16*
X192280000Y-40550000D03*
%TD*%
%TO.C,SW_CTRL_1*%
X6140000Y-78550000D03*
D17*
X11220000Y-78550000D03*
D18*
X11220000Y-85050000D03*
D16*
X16300000Y-78550000D03*
%TD*%
%TO.C,SW_KP7_1*%
X314120000Y-59550000D03*
D17*
X319200000Y-59550000D03*
D18*
X319200000Y-66050000D03*
D16*
X324280000Y-59550000D03*
%TD*%
%TO.C,SW_F4_1*%
X181940000Y-12050000D03*
D17*
X187020000Y-12050000D03*
D18*
X187020000Y-18550000D03*
D16*
X192100000Y-12050000D03*
%TD*%
%TO.C,SW_S_1*%
X63140000Y-78550000D03*
D17*
X68220000Y-78550000D03*
D18*
X68220000Y-85050000D03*
D16*
X73300000Y-78550000D03*
%TD*%
%TO.C,SW_KPHELP1*%
X333120000Y-40550000D03*
D17*
X338200000Y-40550000D03*
D18*
X338200000Y-47050000D03*
D16*
X343280000Y-40550000D03*
%TD*%
%TO.C,SW_2_1*%
X49120000Y-40550000D03*
D17*
X54200000Y-40550000D03*
D18*
X54200000Y-47050000D03*
D16*
X59280000Y-40550000D03*
%TD*%
%TO.C,SW_W_1*%
X58290000Y-59525000D03*
D17*
X63370000Y-59525000D03*
D18*
X63370000Y-66025000D03*
D16*
X68450000Y-59525000D03*
%TD*%
%TO.C,SW_X_1*%
X72640000Y-97550000D03*
D17*
X77720000Y-97550000D03*
D18*
X77720000Y-104050000D03*
D16*
X82800000Y-97550000D03*
%TD*%
%TO.C,SW_G_1*%
X120140000Y-78550000D03*
D17*
X125220000Y-78550000D03*
D18*
X125220000Y-85050000D03*
D16*
X130300000Y-78550000D03*
%TD*%
%TO.C,SW_E_1*%
X77290000Y-59525000D03*
D17*
X82370000Y-59525000D03*
D18*
X82370000Y-66025000D03*
D16*
X87450000Y-59525000D03*
%TD*%
%TO.C,SW_5_1*%
X106120000Y-40550000D03*
D17*
X111200000Y-40550000D03*
D18*
X111200000Y-47050000D03*
D16*
X116280000Y-40550000D03*
%TD*%
%TO.C,SW_I_1*%
X172290000Y-59525000D03*
D17*
X177370000Y-59525000D03*
D18*
X177370000Y-66025000D03*
D16*
X182450000Y-59525000D03*
%TD*%
%TO.C,SW_1_1*%
X30120000Y-40550000D03*
D17*
X35200000Y-40550000D03*
D18*
X35200000Y-47050000D03*
D16*
X40280000Y-40550000D03*
%TD*%
%TO.C,SW_AMG_1*%
X243640000Y-97550000D03*
D17*
X248720000Y-97550000D03*
D18*
X248720000Y-104050000D03*
D16*
X253800000Y-97550000D03*
%TD*%
%TO.C,SW_V_1*%
X110640000Y-97550000D03*
D17*
X115720000Y-97550000D03*
D18*
X115720000Y-104050000D03*
D16*
X120800000Y-97550000D03*
%TD*%
%TO.C,SW_L_1*%
X196140000Y-78550000D03*
D17*
X201220000Y-78550000D03*
D18*
X201220000Y-85050000D03*
D16*
X206300000Y-78550000D03*
%TD*%
%TO.C,SW_YEN_1*%
X258120000Y-40550000D03*
D17*
X263200000Y-40550000D03*
D18*
X263200000Y-47050000D03*
D16*
X268280000Y-40550000D03*
%TD*%
%TO.C,SW_M_1*%
X167640000Y-97550000D03*
D17*
X172720000Y-97550000D03*
D18*
X172720000Y-104050000D03*
D16*
X177800000Y-97550000D03*
%TD*%
%TO.C,SW_F2_1*%
X105940000Y-12050000D03*
D17*
X111020000Y-12050000D03*
D18*
X111020000Y-18550000D03*
D16*
X116100000Y-12050000D03*
%TD*%
%TO.C,SW_KP9_1*%
X352120000Y-59550000D03*
D17*
X357200000Y-59550000D03*
D18*
X357200000Y-66050000D03*
D16*
X362280000Y-59550000D03*
%TD*%
%TO.C,SW_KPHOME_1*%
X314120000Y-40550000D03*
D17*
X319200000Y-40550000D03*
D18*
X319200000Y-47050000D03*
D16*
X324280000Y-40550000D03*
%TD*%
%TO.C,SW_CAPS_1*%
X25140000Y-78550000D03*
D17*
X30220000Y-78550000D03*
D18*
X30220000Y-85050000D03*
D16*
X35300000Y-78550000D03*
%TD*%
%TO.C,SW_KPDIV_1*%
X371120000Y-40550000D03*
D17*
X376200000Y-40550000D03*
D18*
X376200000Y-47050000D03*
D16*
X381280000Y-40550000D03*
%TD*%
%TO.C,SW_C_1*%
X91640000Y-97550000D03*
D17*
X96720000Y-97550000D03*
D18*
X96720000Y-104050000D03*
D16*
X101800000Y-97550000D03*
%TD*%
%TO.C,SW_Q_1*%
X39290000Y-59525000D03*
D17*
X44370000Y-59525000D03*
D18*
X44370000Y-66025000D03*
D16*
X49450000Y-59525000D03*
%TD*%
%TO.C,SW_MN_1*%
X220120000Y-40550000D03*
D17*
X225200000Y-40550000D03*
D18*
X225200000Y-47050000D03*
D16*
X230280000Y-40550000D03*
%TD*%
%TO.C,SW_DOWN_1*%
X333120000Y-12050000D03*
D17*
X338200000Y-12050000D03*
D18*
X338200000Y-18550000D03*
D16*
X343280000Y-12050000D03*
%TD*%
%TO.C,SW_3_1*%
X68120000Y-40550000D03*
D17*
X73200000Y-40550000D03*
D18*
X73200000Y-47050000D03*
D16*
X78280000Y-40550000D03*
%TD*%
%TO.C,SW_AT_1*%
X229290000Y-59525000D03*
D17*
X234370000Y-59525000D03*
D18*
X234370000Y-66025000D03*
D16*
X239450000Y-59525000D03*
%TD*%
%TO.C,SW_GT_1*%
X205640000Y-97550000D03*
D17*
X210720000Y-97550000D03*
D18*
X210720000Y-104050000D03*
D16*
X215800000Y-97550000D03*
%TD*%
%TO.C,SW_Z_1*%
X53640000Y-97550000D03*
D17*
X58720000Y-97550000D03*
D18*
X58720000Y-104050000D03*
D16*
X63800000Y-97550000D03*
%TD*%
%TO.C,SW_O_1*%
X191290000Y-59525000D03*
D17*
X196370000Y-59525000D03*
D18*
X196370000Y-66025000D03*
D16*
X201450000Y-59525000D03*
%TD*%
%TO.C,SW_H_1*%
X139140000Y-78550000D03*
D17*
X144220000Y-78550000D03*
D18*
X144220000Y-85050000D03*
D16*
X149300000Y-78550000D03*
%TD*%
%TO.C,SW_FC_1*%
X248290000Y-59525000D03*
D17*
X253370000Y-59525000D03*
D18*
X253370000Y-66025000D03*
D16*
X258450000Y-59525000D03*
%TD*%
%TO.C,SW_KPENT_1*%
X371120000Y-116550000D03*
D17*
X376200000Y-116550000D03*
D18*
X376200000Y-123050000D03*
D16*
X381280000Y-116550000D03*
%TD*%
%TO.C,SW_B_1*%
X129640000Y-97550000D03*
D17*
X134720000Y-97550000D03*
D18*
X134720000Y-104050000D03*
D16*
X139800000Y-97550000D03*
%TD*%
%TO.C,SW_R_1*%
X96290000Y-59525000D03*
D17*
X101370000Y-59525000D03*
D18*
X101370000Y-66025000D03*
D16*
X106450000Y-59525000D03*
%TD*%
%TO.C,SW_0_1*%
X201120000Y-40550000D03*
D17*
X206200000Y-40550000D03*
D18*
X206200000Y-47050000D03*
D16*
X211280000Y-40550000D03*
%TD*%
%TO.C,SW_8_1*%
X163120000Y-40550000D03*
D17*
X168200000Y-40550000D03*
D18*
X168200000Y-47050000D03*
D16*
X173280000Y-40550000D03*
%TD*%
%TO.C,SW_RIGHT_1*%
X371120000Y-12050000D03*
D17*
X376200000Y-12050000D03*
D18*
X376200000Y-18550000D03*
D16*
X381280000Y-12050000D03*
%TD*%
%TO.C,SW_KP0_1*%
X314120000Y-116550000D03*
D17*
X319200000Y-116550000D03*
D18*
X319200000Y-123050000D03*
D16*
X324280000Y-116550000D03*
%TD*%
%TO.C,SW_Y_1*%
X134290000Y-59525000D03*
D17*
X139370000Y-59525000D03*
D18*
X139370000Y-66025000D03*
D16*
X144450000Y-59525000D03*
%TD*%
%TO.C,SW_RSH_1*%
X272140000Y-97550000D03*
D17*
X277220000Y-97550000D03*
D18*
X277220000Y-104050000D03*
D16*
X282300000Y-97550000D03*
%TD*%
%TO.C,SW_COL_1*%
X234140000Y-78550000D03*
D17*
X239220000Y-78550000D03*
D18*
X239220000Y-85050000D03*
D16*
X244300000Y-78550000D03*
%TD*%
%TO.C,SW_ED_1*%
X276890000Y-78550000D03*
D17*
X281970000Y-78550000D03*
D18*
X281970000Y-85050000D03*
D16*
X287050000Y-78550000D03*
%TD*%
%TO.C,SW_LS1_1*%
X6140000Y-97550000D03*
D17*
X11220000Y-97550000D03*
D18*
X11220000Y-104050000D03*
D16*
X16300000Y-97550000D03*
%TD*%
%TO.C,SW_4_1*%
X87120000Y-40550000D03*
D17*
X92200000Y-40550000D03*
D18*
X92200000Y-47050000D03*
D16*
X97280000Y-40550000D03*
%TD*%
%TO.C,SW_LEFT_1*%
X352120000Y-12050000D03*
D17*
X357200000Y-12050000D03*
D18*
X357200000Y-18550000D03*
D16*
X362280000Y-12050000D03*
%TD*%
%TO.C,SW_KPMIN_1*%
X352120000Y-40550000D03*
D17*
X357200000Y-40550000D03*
D18*
X357200000Y-47050000D03*
D16*
X362280000Y-40550000D03*
%TD*%
%TO.C,SW_U_1*%
X153290000Y-59525000D03*
D17*
X158370000Y-59525000D03*
D18*
X158370000Y-66025000D03*
D16*
X163450000Y-59525000D03*
%TD*%
%TO.C,SW_ET_1*%
X274415000Y-59525000D03*
D17*
X279495000Y-59525000D03*
D18*
X279495000Y-66025000D03*
D16*
X284575000Y-59525000D03*
%TD*%
%TO.C,SW_KPCOM_1*%
X333120000Y-116550000D03*
D17*
X338200000Y-116550000D03*
D18*
X338200000Y-123050000D03*
D16*
X343280000Y-116550000D03*
%TD*%
%TO.C,SW_KP5_1*%
X333120000Y-78550000D03*
D17*
X338200000Y-78550000D03*
D18*
X338200000Y-85050000D03*
D16*
X343280000Y-78550000D03*
%TD*%
%TO.C,SW_KP8_1*%
X333120000Y-59550000D03*
D17*
X338200000Y-59550000D03*
D18*
X338200000Y-66050000D03*
D16*
X343280000Y-59550000D03*
%TD*%
%TO.C,SW_T_1*%
X115290000Y-59525000D03*
D17*
X120370000Y-59525000D03*
D18*
X120370000Y-66025000D03*
D16*
X125450000Y-59525000D03*
%TD*%
%TO.C,SW_P_1*%
X210290000Y-59525000D03*
D17*
X215370000Y-59525000D03*
D18*
X215370000Y-66025000D03*
D16*
X220450000Y-59525000D03*
%TD*%
%TO.C,SW_KP1_1*%
X314120000Y-97550000D03*
D17*
X319200000Y-97550000D03*
D18*
X319200000Y-104050000D03*
D16*
X324280000Y-97550000D03*
%TD*%
%TO.C,SW_TAB_1*%
X13165000Y-59525000D03*
D17*
X18245000Y-59525000D03*
D18*
X18245000Y-66025000D03*
D16*
X23325000Y-59525000D03*
%TD*%
%TO.C,SW_UP_1*%
X314120000Y-12050000D03*
D17*
X319200000Y-12050000D03*
D18*
X319200000Y-18550000D03*
D16*
X324280000Y-12050000D03*
%TD*%
%TO.C,SW_ESC_1*%
X8420000Y-40550000D03*
D17*
X13500000Y-40550000D03*
D18*
X13500000Y-47050000D03*
D16*
X18580000Y-40550000D03*
%TD*%
%TO.C,SW_KPPLUS_1*%
X371120000Y-78550000D03*
D17*
X376200000Y-78550000D03*
D18*
X376200000Y-85050000D03*
D16*
X381280000Y-78550000D03*
%TD*%
%TO.C,SW_N_1*%
X148640000Y-97550000D03*
D17*
X153720000Y-97550000D03*
D18*
X153720000Y-104050000D03*
D16*
X158800000Y-97550000D03*
%TD*%
%TO.C,SW_7_1*%
X144120000Y-40550000D03*
D17*
X149200000Y-40550000D03*
D18*
X149200000Y-47050000D03*
D16*
X154280000Y-40550000D03*
%TD*%
%TO.C,SW_F_1*%
X101140000Y-78550000D03*
D17*
X106220000Y-78550000D03*
D18*
X106220000Y-85050000D03*
D16*
X111300000Y-78550000D03*
%TD*%
%TO.C,SW_SLS_1*%
X224640000Y-97550000D03*
D17*
X229720000Y-97550000D03*
D18*
X229720000Y-104050000D03*
D16*
X234800000Y-97550000D03*
%TD*%
%TO.C,SW_SMI_1*%
X215140000Y-78550000D03*
D17*
X220220000Y-78550000D03*
D18*
X220220000Y-85050000D03*
D16*
X225300000Y-78550000D03*
%TD*%
%TO.C,SW_ALT_1*%
X72640000Y-116650000D03*
D17*
X77720000Y-116650000D03*
D18*
X77720000Y-123150000D03*
D16*
X82800000Y-116650000D03*
%TD*%
D19*
X382930000Y-128030000D02*
G75*
G03*
X385980000Y-124980000I0J3050000D01*
G01*
X3030000Y-30000D02*
G75*
G03*
X0Y-3080000I10002J-3040002D01*
G01*
X0Y-124980000D02*
G75*
G03*
X3030000Y-128030000I3040000J-10000D01*
G01*
D20*
X3030000Y-128030000D02*
X382930000Y-128030000D01*
X385980000Y-124980000D02*
X385980000Y-3080000D01*
X0Y-3080000D02*
X0Y-124980000D01*
X382930000Y-30000D02*
X3030000Y-30000D01*
X322312085Y-30600497D02*
G75*
G03*
X322312085Y-30600497I-1625192J0D01*
G01*
X149225192Y-26605000D02*
G75*
G03*
X149225192Y-26605000I-1625192J0D01*
G01*
X30725192Y-26605000D02*
G75*
G03*
X30725192Y-26605000I-1625192J0D01*
G01*
D19*
X385980000Y-3080000D02*
G75*
G03*
X382930000Y-30000I-3050000J0D01*
G01*
D20*
X35225192Y-116605000D02*
G75*
G03*
X35225192Y-116605000I-1625192J0D01*
G01*
M02*
