  0
SECTION
  2
HEADER
  9
$ANGBASE
  50
0.0
  9
$ANGDIR
  70
1
  9
$MEASUREMENT
  70
0
  0
ENDSEC
  0
SECTION
  2
TABLES
  0
TABLE
  2
LTYPE
  70
4
  0
LTYPE
  5
40F
  2
CONTINUOUS
  70
0
  3
Solid line
  72
65
  73
0
  40
0.0
  0
LTYPE
  5
410
  2
DASHDOT
 70
0
  3
Dash Dot ____ _ ____ _
 72
65
 73
4
 40
2.0
 49
1.25
 49
-0.25
 49
0.25
 49
-0.25
  0
LTYPE
  5
411
  2
DASHED
 70
0
  3
Dashed __ __ __ __ __
 72
65
 73
2
 40
0.75
 49
0.5
 49
-0.25
  0
LTYPE
  5
43B
  2
DOTTED
 70
0
  3
Dotted .  .  .  .
 72
65
 73
2
 40
0.2
 49
0.0
 49
-0.2
  0
ENDTAB
  0
TABLE
  2
STYLE
  70
4
  0
STYLE
  2
KICAD
  70
0
  40
0
  41
1
  42
1
  50
0
  71
0
  3
isocp.shx
  0
STYLE
  2
KICADB
  70
0
  40
0
  41
1
  42
1
  50
0
  71
0
  3
isocp.shx
  0
STYLE
  2
KICADI
  70
0
  40
0
  41
1
  42
1
  50
15
  71
0
  3
isocp.shx
  0
STYLE
  2
KICADBI
  70
0
  40
0
  41
1
  42
1
  50
15
  71
0
  3
isocp.shx
  0
ENDTAB
  0
TABLE
  2
LAYER
  70
1
  0
LAYER
  2
BLACK
  70
0
  62
7
  6
CONTINUOUS
  0
ENDTAB
  0
ENDSEC
  0
SECTION
  2
ENTITIES
0
ARC
8
BLACK
10
15.076
20
-4.92047
40
0.120079
50
-90
51
-0
0
ARC
8
BLACK
10
0.119685
20
-0.120866
40
0.119686
50
-269.811
51
-179.812
0
ARC
8
BLACK
10
0.119685
20
-4.92087
40
0.119686
50
-180.188
51
-90.1885
0
LINE
8
BLACK
6
CONTINUOUS
10
0.119291
20
-5.04055
11
15.076
21
-5.04055
0
LINE
8
BLACK
6
CONTINUOUS
10
15.1961
20
-4.92047
11
15.1961
21
-0.12126
0
LINE
8
BLACK
6
CONTINUOUS
10
0
20
-0.12126
11
0
21
-4.92047
0
LINE
8
BLACK
6
CONTINUOUS
10
15.076
20
-0.0011811
11
0.119291
21
-0.0011811
0
CIRCLE
8
BLACK
10
12.6255
20
-1.20474
40
0.0639839
0
CIRCLE
8
BLACK
10
5.81102
20
-1.04744
40
0.0639839
0
CIRCLE
8
BLACK
10
1.14567
20
-1.04744
40
0.0639839
0
ARC
8
BLACK
10
15.076
20
-0.12126
40
0.120079
50
-0
51
90
0
CIRCLE
8
BLACK
10
1.32283
20
-4.59075
40
0.0639839
0
LINE
8
BLACK
6
CONTINUOUS
10
0.207283
20
-0.439961
11
0.276181
21
-0.508858
0
LINE
8
BLACK
6
CONTINUOUS
10
0.276181
20
-0.439961
11
0.207283
21
-0.508858
0
LINE
8
BLACK
6
CONTINUOUS
10
0.207283
20
-3.05807
11
0.276181
21
-3.12697
0
LINE
8
BLACK
6
CONTINUOUS
10
0.276181
20
-3.05807
11
0.207283
21
-3.12697
0
LINE
8
BLACK
6
CONTINUOUS
10
0.207283
20
-3.8061
11
0.276181
21
-3.875
0
LINE
8
BLACK
6
CONTINUOUS
10
0.276181
20
-3.8061
11
0.207283
21
-3.875
0
LINE
8
BLACK
6
CONTINUOUS
10
0.297047
20
-1.56201
11
0.365945
21
-1.63091
0
LINE
8
BLACK
6
CONTINUOUS
10
0.365945
20
-1.56201
11
0.297047
21
-1.63091
0
LINE
8
BLACK
6
CONTINUOUS
10
0.483858
20
-2.30906
11
0.552756
21
-2.37795
0
LINE
8
BLACK
6
CONTINUOUS
10
0.552756
20
-2.30906
11
0.483858
21
-2.37795
0
LINE
8
BLACK
6
CONTINUOUS
10
0.607283
20
-0.439961
11
0.676181
21
-0.508858
0
LINE
8
BLACK
6
CONTINUOUS
10
0.676181
20
-0.439961
11
0.607283
21
-0.508858
0
LINE
8
BLACK
6
CONTINUOUS
10
0.607283
20
-3.05807
11
0.676181
21
-3.12697
0
LINE
8
BLACK
6
CONTINUOUS
10
0.676181
20
-3.05807
11
0.607283
21
-3.12697
0
LINE
8
BLACK
6
CONTINUOUS
10
0.607283
20
-3.8061
11
0.676181
21
-3.875
0
LINE
8
BLACK
6
CONTINUOUS
10
0.676181
20
-3.8061
11
0.607283
21
-3.875
0
LINE
8
BLACK
6
CONTINUOUS
10
0.697047
20
-1.56201
11
0.765945
21
-1.63091
0
LINE
8
BLACK
6
CONTINUOUS
10
0.765945
20
-1.56201
11
0.697047
21
-1.63091
0
LINE
8
BLACK
6
CONTINUOUS
10
0.883858
20
-2.30906
11
0.952756
21
-2.37795
0
LINE
8
BLACK
6
CONTINUOUS
10
0.952756
20
-2.30906
11
0.883858
21
-2.37795
0
LINE
8
BLACK
6
CONTINUOUS
10
0.955315
20
-0.439961
11
1.02421
21
-0.508858
0
LINE
8
BLACK
6
CONTINUOUS
10
1.02421
20
-0.439961
11
0.955315
21
-0.508858
0
LINE
8
BLACK
6
CONTINUOUS
10
0.955315
20
-3.05807
11
1.02421
21
-3.12697
0
LINE
8
BLACK
6
CONTINUOUS
10
1.02421
20
-3.05807
11
0.955315
21
-3.12697
0
LINE
8
BLACK
6
CONTINUOUS
10
1.15138
20
-1.56201
11
1.22028
21
-1.63091
0
LINE
8
BLACK
6
CONTINUOUS
10
1.22028
20
-1.56201
11
1.15138
21
-1.63091
0
LINE
8
BLACK
6
CONTINUOUS
10
1.32933
20
-3.8061
11
1.39823
21
-3.875
0
LINE
8
BLACK
6
CONTINUOUS
10
1.39823
20
-3.8061
11
1.32933
21
-3.875
0
LINE
8
BLACK
6
CONTINUOUS
10
1.35531
20
-0.439961
11
1.42421
21
-0.508858
0
LINE
8
BLACK
6
CONTINUOUS
10
1.42421
20
-0.439961
11
1.35531
21
-0.508858
0
LINE
8
BLACK
6
CONTINUOUS
10
1.35531
20
-3.05807
11
1.42421
21
-3.12697
0
LINE
8
BLACK
6
CONTINUOUS
10
1.42421
20
-3.05807
11
1.35531
21
-3.12697
0
LINE
8
BLACK
6
CONTINUOUS
10
1.5124
20
-2.30906
11
1.5813
21
-2.37795
0
LINE
8
BLACK
6
CONTINUOUS
10
1.5813
20
-2.30906
11
1.5124
21
-2.37795
0
LINE
8
BLACK
6
CONTINUOUS
10
1.55138
20
-1.56201
11
1.62028
21
-1.63091
0
LINE
8
BLACK
6
CONTINUOUS
10
1.62028
20
-1.56201
11
1.55138
21
-1.63091
0
LINE
8
BLACK
6
CONTINUOUS
10
1.70335
20
-3.05807
11
1.77224
21
-3.12697
0
LINE
8
BLACK
6
CONTINUOUS
10
1.77224
20
-3.05807
11
1.70335
21
-3.12697
0
LINE
8
BLACK
6
CONTINUOUS
10
1.72933
20
-3.8061
11
1.79823
21
-3.875
0
LINE
8
BLACK
6
CONTINUOUS
10
1.79823
20
-3.8061
11
1.72933
21
-3.875
0
LINE
8
BLACK
6
CONTINUOUS
10
1.89941
20
-1.56201
11
1.96831
21
-1.63091
0
LINE
8
BLACK
6
CONTINUOUS
10
1.96831
20
-1.56201
11
1.89941
21
-1.63091
0
LINE
8
BLACK
6
CONTINUOUS
10
1.9124
20
-2.30906
11
1.9813
21
-2.37795
0
LINE
8
BLACK
6
CONTINUOUS
10
1.9813
20
-2.30906
11
1.9124
21
-2.37795
0
LINE
8
BLACK
6
CONTINUOUS
10
2.07736
20
-3.8061
11
2.14626
21
-3.875
0
LINE
8
BLACK
6
CONTINUOUS
10
2.14626
20
-3.8061
11
2.07736
21
-3.875
0
LINE
8
BLACK
6
CONTINUOUS
10
2.07736
20
-4.55807
11
2.14626
21
-4.62697
0
LINE
8
BLACK
6
CONTINUOUS
10
2.14626
20
-4.55807
11
2.07736
21
-4.62697
0
LINE
8
BLACK
6
CONTINUOUS
10
2.10335
20
-3.05807
11
2.17224
21
-3.12697
0
LINE
8
BLACK
6
CONTINUOUS
10
2.17224
20
-3.05807
11
2.10335
21
-3.12697
0
LINE
8
BLACK
6
CONTINUOUS
10
2.26043
20
-2.30906
11
2.32933
21
-2.37795
0
LINE
8
BLACK
6
CONTINUOUS
10
2.32933
20
-2.30906
11
2.26043
21
-2.37795
0
LINE
8
BLACK
6
CONTINUOUS
10
2.29941
20
-1.56201
11
2.36831
21
-1.63091
0
LINE
8
BLACK
6
CONTINUOUS
10
2.36831
20
-1.56201
11
2.29941
21
-1.63091
0
LINE
8
BLACK
6
CONTINUOUS
10
2.45138
20
-3.05807
11
2.52028
21
-3.12697
0
LINE
8
BLACK
6
CONTINUOUS
10
2.52028
20
-3.05807
11
2.45138
21
-3.12697
0
LINE
8
BLACK
6
CONTINUOUS
10
2.47736
20
-3.8061
11
2.54626
21
-3.875
0
LINE
8
BLACK
6
CONTINUOUS
10
2.54626
20
-3.8061
11
2.47736
21
-3.875
0
LINE
8
BLACK
6
CONTINUOUS
10
2.47736
20
-4.55807
11
2.54626
21
-4.62697
0
LINE
8
BLACK
6
CONTINUOUS
10
2.54626
20
-4.55807
11
2.47736
21
-4.62697
0
LINE
8
BLACK
6
CONTINUOUS
10
2.64035
20
-0.439961
11
2.70925
21
-0.508858
0
LINE
8
BLACK
6
CONTINUOUS
10
2.70925
20
-0.439961
11
2.64035
21
-0.508858
0
LINE
8
BLACK
6
CONTINUOUS
10
2.64744
20
-1.56201
11
2.71634
21
-1.63091
0
LINE
8
BLACK
6
CONTINUOUS
10
2.71634
20
-1.56201
11
2.64744
21
-1.63091
0
LINE
8
BLACK
6
CONTINUOUS
10
2.66043
20
-2.30906
11
2.72933
21
-2.37795
0
LINE
8
BLACK
6
CONTINUOUS
10
2.72933
20
-2.30906
11
2.66043
21
-2.37795
0
LINE
8
BLACK
6
CONTINUOUS
10
2.82539
20
-3.8061
11
2.89429
21
-3.875
0
LINE
8
BLACK
6
CONTINUOUS
10
2.89429
20
-3.8061
11
2.82539
21
-3.875
0
LINE
8
BLACK
6
CONTINUOUS
10
2.82539
20
-4.55807
11
2.89429
21
-4.62697
0
LINE
8
BLACK
6
CONTINUOUS
10
2.89429
20
-4.55807
11
2.82539
21
-4.62697
0
LINE
8
BLACK
6
CONTINUOUS
10
2.85138
20
-3.05807
11
2.92028
21
-3.12697
0
LINE
8
BLACK
6
CONTINUOUS
10
2.92028
20
-3.05807
11
2.85138
21
-3.12697
0
LINE
8
BLACK
6
CONTINUOUS
10
3.00846
20
-2.30906
11
3.07736
21
-2.37795
0
LINE
8
BLACK
6
CONTINUOUS
10
3.07736
20
-2.30906
11
3.00846
21
-2.37795
0
LINE
8
BLACK
6
CONTINUOUS
10
3.04035
20
-0.439961
11
3.10925
21
-0.508858
0
LINE
8
BLACK
6
CONTINUOUS
10
3.10925
20
-0.439961
11
3.04035
21
-0.508858
0
LINE
8
BLACK
6
CONTINUOUS
10
3.04744
20
-1.56201
11
3.11634
21
-1.63091
0
LINE
8
BLACK
6
CONTINUOUS
10
3.11634
20
-1.56201
11
3.04744
21
-1.63091
0
LINE
8
BLACK
6
CONTINUOUS
10
3.19941
20
-3.05807
11
3.26831
21
-3.12697
0
LINE
8
BLACK
6
CONTINUOUS
10
3.26831
20
-3.05807
11
3.19941
21
-3.12697
0
LINE
8
BLACK
6
CONTINUOUS
10
3.22539
20
-3.8061
11
3.29429
21
-3.875
0
LINE
8
BLACK
6
CONTINUOUS
10
3.29429
20
-3.8061
11
3.22539
21
-3.875
0
LINE
8
BLACK
6
CONTINUOUS
10
3.22539
20
-4.55807
11
3.29429
21
-4.62697
0
LINE
8
BLACK
6
CONTINUOUS
10
3.29429
20
-4.55807
11
3.22539
21
-4.62697
0
LINE
8
BLACK
6
CONTINUOUS
10
3.39547
20
-1.56201
11
3.46437
21
-1.63091
0
LINE
8
BLACK
6
CONTINUOUS
10
3.46437
20
-1.56201
11
3.39547
21
-1.63091
0
LINE
8
BLACK
6
CONTINUOUS
10
3.40846
20
-2.30906
11
3.47736
21
-2.37795
0
LINE
8
BLACK
6
CONTINUOUS
10
3.47736
20
-2.30906
11
3.40846
21
-2.37795
0
LINE
8
BLACK
6
CONTINUOUS
10
3.57343
20
-3.8061
11
3.64232
21
-3.875
0
LINE
8
BLACK
6
CONTINUOUS
10
3.64232
20
-3.8061
11
3.57343
21
-3.875
0
LINE
8
BLACK
6
CONTINUOUS
10
3.59941
20
-3.05807
11
3.66831
21
-3.12697
0
LINE
8
BLACK
6
CONTINUOUS
10
3.66831
20
-3.05807
11
3.59941
21
-3.12697
0
LINE
8
BLACK
6
CONTINUOUS
10
3.7565
20
-2.30906
11
3.82539
21
-2.37795
0
LINE
8
BLACK
6
CONTINUOUS
10
3.82539
20
-2.30906
11
3.7565
21
-2.37795
0
LINE
8
BLACK
6
CONTINUOUS
10
3.79547
20
-1.56201
11
3.86437
21
-1.63091
0
LINE
8
BLACK
6
CONTINUOUS
10
3.86437
20
-1.56201
11
3.79547
21
-1.63091
0
LINE
8
BLACK
6
CONTINUOUS
10
3.94744
20
-3.05807
11
4.01634
21
-3.12697
0
LINE
8
BLACK
6
CONTINUOUS
10
4.01634
20
-3.05807
11
3.94744
21
-3.12697
0
LINE
8
BLACK
6
CONTINUOUS
10
3.97343
20
-3.8061
11
4.04232
21
-3.875
0
LINE
8
BLACK
6
CONTINUOUS
10
4.04232
20
-3.8061
11
3.97343
21
-3.875
0
LINE
8
BLACK
6
CONTINUOUS
10
4.13642
20
-0.439961
11
4.20531
21
-0.508858
0
LINE
8
BLACK
6
CONTINUOUS
10
4.20531
20
-0.439961
11
4.13642
21
-0.508858
0
LINE
8
BLACK
6
CONTINUOUS
10
4.1435
20
-1.56201
11
4.2124
21
-1.63091
0
LINE
8
BLACK
6
CONTINUOUS
10
4.2124
20
-1.56201
11
4.1435
21
-1.63091
0
LINE
8
BLACK
6
CONTINUOUS
10
4.1565
20
-2.30906
11
4.22539
21
-2.37795
0
LINE
8
BLACK
6
CONTINUOUS
10
4.22539
20
-2.30906
11
4.1565
21
-2.37795
0
LINE
8
BLACK
6
CONTINUOUS
10
4.32146
20
-3.8061
11
4.39035
21
-3.875
0
LINE
8
BLACK
6
CONTINUOUS
10
4.39035
20
-3.8061
11
4.32146
21
-3.875
0
LINE
8
BLACK
6
CONTINUOUS
10
4.34744
20
-3.05807
11
4.41634
21
-3.12697
0
LINE
8
BLACK
6
CONTINUOUS
10
4.41634
20
-3.05807
11
4.34744
21
-3.12697
0
LINE
8
BLACK
6
CONTINUOUS
10
4.50453
20
-2.30906
11
4.57343
21
-2.37795
0
LINE
8
BLACK
6
CONTINUOUS
10
4.57343
20
-2.30906
11
4.50453
21
-2.37795
0
LINE
8
BLACK
6
CONTINUOUS
10
4.53642
20
-0.439961
11
4.60531
21
-0.508858
0
LINE
8
BLACK
6
CONTINUOUS
10
4.60531
20
-0.439961
11
4.53642
21
-0.508858
0
LINE
8
BLACK
6
CONTINUOUS
10
4.5435
20
-1.56201
11
4.6124
21
-1.63091
0
LINE
8
BLACK
6
CONTINUOUS
10
4.6124
20
-1.56201
11
4.5435
21
-1.63091
0
LINE
8
BLACK
6
CONTINUOUS
10
4.69547
20
-3.05807
11
4.76437
21
-3.12697
0
LINE
8
BLACK
6
CONTINUOUS
10
4.76437
20
-3.05807
11
4.69547
21
-3.12697
0
LINE
8
BLACK
6
CONTINUOUS
10
4.72146
20
-3.8061
11
4.79035
21
-3.875
0
LINE
8
BLACK
6
CONTINUOUS
10
4.79035
20
-3.8061
11
4.72146
21
-3.875
0
LINE
8
BLACK
6
CONTINUOUS
10
4.89154
20
-1.56201
11
4.96043
21
-1.63091
0
LINE
8
BLACK
6
CONTINUOUS
10
4.96043
20
-1.56201
11
4.89154
21
-1.63091
0
LINE
8
BLACK
6
CONTINUOUS
10
4.90453
20
-2.30906
11
4.97343
21
-2.37795
0
LINE
8
BLACK
6
CONTINUOUS
10
4.97343
20
-2.30906
11
4.90453
21
-2.37795
0
LINE
8
BLACK
6
CONTINUOUS
10
5.06949
20
-3.8061
11
5.13839
21
-3.875
0
LINE
8
BLACK
6
CONTINUOUS
10
5.13839
20
-3.8061
11
5.06949
21
-3.875
0
LINE
8
BLACK
6
CONTINUOUS
10
5.09547
20
-3.05807
11
5.16437
21
-3.12697
0
LINE
8
BLACK
6
CONTINUOUS
10
5.16437
20
-3.05807
11
5.09547
21
-3.12697
0
LINE
8
BLACK
6
CONTINUOUS
10
5.25256
20
-2.30906
11
5.32146
21
-2.37795
0
LINE
8
BLACK
6
CONTINUOUS
10
5.32146
20
-2.30906
11
5.25256
21
-2.37795
0
LINE
8
BLACK
6
CONTINUOUS
10
5.29154
20
-1.56201
11
5.36043
21
-1.63091
0
LINE
8
BLACK
6
CONTINUOUS
10
5.36043
20
-1.56201
11
5.29154
21
-1.63091
0
LINE
8
BLACK
6
CONTINUOUS
10
5.4435
20
-3.05807
11
5.5124
21
-3.12697
0
LINE
8
BLACK
6
CONTINUOUS
10
5.5124
20
-3.05807
11
5.4435
21
-3.12697
0
LINE
8
BLACK
6
CONTINUOUS
10
5.46949
20
-3.8061
11
5.53839
21
-3.875
0
LINE
8
BLACK
6
CONTINUOUS
10
5.53839
20
-3.8061
11
5.46949
21
-3.875
0
LINE
8
BLACK
6
CONTINUOUS
10
5.63248
20
-0.439961
11
5.70138
21
-0.508858
0
LINE
8
BLACK
6
CONTINUOUS
10
5.70138
20
-0.439961
11
5.63248
21
-0.508858
0
LINE
8
BLACK
6
CONTINUOUS
10
5.63957
20
-1.56201
11
5.70846
21
-1.63091
0
LINE
8
BLACK
6
CONTINUOUS
10
5.70846
20
-1.56201
11
5.63957
21
-1.63091
0
LINE
8
BLACK
6
CONTINUOUS
10
5.65256
20
-2.30906
11
5.72146
21
-2.37795
0
LINE
8
BLACK
6
CONTINUOUS
10
5.72146
20
-2.30906
11
5.65256
21
-2.37795
0
LINE
8
BLACK
6
CONTINUOUS
10
5.81752
20
-3.8061
11
5.88642
21
-3.875
0
LINE
8
BLACK
6
CONTINUOUS
10
5.88642
20
-3.8061
11
5.81752
21
-3.875
0
LINE
8
BLACK
6
CONTINUOUS
10
5.81752
20
-4.55807
11
5.88642
21
-4.62697
0
LINE
8
BLACK
6
CONTINUOUS
10
5.88642
20
-4.55807
11
5.81752
21
-4.62697
0
LINE
8
BLACK
6
CONTINUOUS
10
5.8435
20
-3.05807
11
5.9124
21
-3.12697
0
LINE
8
BLACK
6
CONTINUOUS
10
5.9124
20
-3.05807
11
5.8435
21
-3.12697
0
LINE
8
BLACK
6
CONTINUOUS
10
6.00059
20
-2.30906
11
6.06949
21
-2.37795
0
LINE
8
BLACK
6
CONTINUOUS
10
6.06949
20
-2.30906
11
6.00059
21
-2.37795
0
LINE
8
BLACK
6
CONTINUOUS
10
6.03248
20
-0.439961
11
6.10138
21
-0.508858
0
LINE
8
BLACK
6
CONTINUOUS
10
6.10138
20
-0.439961
11
6.03248
21
-0.508858
0
LINE
8
BLACK
6
CONTINUOUS
10
6.03957
20
-1.56201
11
6.10846
21
-1.63091
0
LINE
8
BLACK
6
CONTINUOUS
10
6.10846
20
-1.56201
11
6.03957
21
-1.63091
0
LINE
8
BLACK
6
CONTINUOUS
10
6.19154
20
-3.05807
11
6.26043
21
-3.12697
0
LINE
8
BLACK
6
CONTINUOUS
10
6.26043
20
-3.05807
11
6.19154
21
-3.12697
0
LINE
8
BLACK
6
CONTINUOUS
10
6.21752
20
-3.8061
11
6.28642
21
-3.875
0
LINE
8
BLACK
6
CONTINUOUS
10
6.28642
20
-3.8061
11
6.21752
21
-3.875
0
LINE
8
BLACK
6
CONTINUOUS
10
6.21752
20
-4.55807
11
6.28642
21
-4.62697
0
LINE
8
BLACK
6
CONTINUOUS
10
6.28642
20
-4.55807
11
6.21752
21
-4.62697
0
LINE
8
BLACK
6
CONTINUOUS
10
6.3876
20
-1.56201
11
6.4565
21
-1.63091
0
LINE
8
BLACK
6
CONTINUOUS
10
6.4565
20
-1.56201
11
6.3876
21
-1.63091
0
LINE
8
BLACK
6
CONTINUOUS
10
6.40059
20
-2.30906
11
6.46949
21
-2.37795
0
LINE
8
BLACK
6
CONTINUOUS
10
6.46949
20
-2.30906
11
6.40059
21
-2.37795
0
LINE
8
BLACK
6
CONTINUOUS
10
6.56555
20
-3.8061
11
6.63445
21
-3.875
0
LINE
8
BLACK
6
CONTINUOUS
10
6.63445
20
-3.8061
11
6.56555
21
-3.875
0
LINE
8
BLACK
6
CONTINUOUS
10
6.56555
20
-4.55807
11
6.63445
21
-4.62697
0
LINE
8
BLACK
6
CONTINUOUS
10
6.63445
20
-4.55807
11
6.56555
21
-4.62697
0
LINE
8
BLACK
6
CONTINUOUS
10
6.59154
20
-3.05807
11
6.66043
21
-3.12697
0
LINE
8
BLACK
6
CONTINUOUS
10
6.66043
20
-3.05807
11
6.59154
21
-3.12697
0
LINE
8
BLACK
6
CONTINUOUS
10
6.74862
20
-2.30906
11
6.81752
21
-2.37795
0
LINE
8
BLACK
6
CONTINUOUS
10
6.81752
20
-2.30906
11
6.74862
21
-2.37795
0
LINE
8
BLACK
6
CONTINUOUS
10
6.7876
20
-1.56201
11
6.8565
21
-1.63091
0
LINE
8
BLACK
6
CONTINUOUS
10
6.8565
20
-1.56201
11
6.7876
21
-1.63091
0
LINE
8
BLACK
6
CONTINUOUS
10
6.93957
20
-3.05807
11
7.00846
21
-3.12697
0
LINE
8
BLACK
6
CONTINUOUS
10
7.00846
20
-3.05807
11
6.93957
21
-3.12697
0
LINE
8
BLACK
6
CONTINUOUS
10
6.96555
20
-3.8061
11
7.03445
21
-3.875
0
LINE
8
BLACK
6
CONTINUOUS
10
7.03445
20
-3.8061
11
6.96555
21
-3.875
0
LINE
8
BLACK
6
CONTINUOUS
10
6.96555
20
-4.55807
11
7.03445
21
-4.62697
0
LINE
8
BLACK
6
CONTINUOUS
10
7.03445
20
-4.55807
11
6.96555
21
-4.62697
0
LINE
8
BLACK
6
CONTINUOUS
10
7.12854
20
-0.439961
11
7.19744
21
-0.508858
0
LINE
8
BLACK
6
CONTINUOUS
10
7.19744
20
-0.439961
11
7.12854
21
-0.508858
0
LINE
8
BLACK
6
CONTINUOUS
10
7.13563
20
-1.56201
11
7.20453
21
-1.63091
0
LINE
8
BLACK
6
CONTINUOUS
10
7.20453
20
-1.56201
11
7.13563
21
-1.63091
0
LINE
8
BLACK
6
CONTINUOUS
10
7.14862
20
-2.30906
11
7.21752
21
-2.37795
0
LINE
8
BLACK
6
CONTINUOUS
10
7.21752
20
-2.30906
11
7.14862
21
-2.37795
0
LINE
8
BLACK
6
CONTINUOUS
10
7.31358
20
-3.8061
11
7.38248
21
-3.875
0
LINE
8
BLACK
6
CONTINUOUS
10
7.38248
20
-3.8061
11
7.31358
21
-3.875
0
LINE
8
BLACK
6
CONTINUOUS
10
7.33957
20
-3.05807
11
7.40846
21
-3.12697
0
LINE
8
BLACK
6
CONTINUOUS
10
7.40846
20
-3.05807
11
7.33957
21
-3.12697
0
LINE
8
BLACK
6
CONTINUOUS
10
7.49665
20
-2.30906
11
7.56555
21
-2.37795
0
LINE
8
BLACK
6
CONTINUOUS
10
7.56555
20
-2.30906
11
7.49665
21
-2.37795
0
LINE
8
BLACK
6
CONTINUOUS
10
7.52854
20
-0.439961
11
7.59744
21
-0.508858
0
LINE
8
BLACK
6
CONTINUOUS
10
7.59744
20
-0.439961
11
7.52854
21
-0.508858
0
LINE
8
BLACK
6
CONTINUOUS
10
7.53563
20
-1.56201
11
7.60453
21
-1.63091
0
LINE
8
BLACK
6
CONTINUOUS
10
7.60453
20
-1.56201
11
7.53563
21
-1.63091
0
LINE
8
BLACK
6
CONTINUOUS
10
7.6876
20
-3.05807
11
7.7565
21
-3.12697
0
LINE
8
BLACK
6
CONTINUOUS
10
7.7565
20
-3.05807
11
7.6876
21
-3.12697
0
LINE
8
BLACK
6
CONTINUOUS
10
7.71358
20
-3.8061
11
7.78248
21
-3.875
0
LINE
8
BLACK
6
CONTINUOUS
10
7.78248
20
-3.8061
11
7.71358
21
-3.875
0
LINE
8
BLACK
6
CONTINUOUS
10
7.88366
20
-1.56201
11
7.95256
21
-1.63091
0
LINE
8
BLACK
6
CONTINUOUS
10
7.95256
20
-1.56201
11
7.88366
21
-1.63091
0
LINE
8
BLACK
6
CONTINUOUS
10
7.89665
20
-2.30906
11
7.96555
21
-2.37795
0
LINE
8
BLACK
6
CONTINUOUS
10
7.96555
20
-2.30906
11
7.89665
21
-2.37795
0
LINE
8
BLACK
6
CONTINUOUS
10
8.06161
20
-3.8061
11
8.13051
21
-3.875
0
LINE
8
BLACK
6
CONTINUOUS
10
8.13051
20
-3.8061
11
8.06161
21
-3.875
0
LINE
8
BLACK
6
CONTINUOUS
10
8.0876
20
-3.05807
11
8.1565
21
-3.12697
0
LINE
8
BLACK
6
CONTINUOUS
10
8.1565
20
-3.05807
11
8.0876
21
-3.12697
0
LINE
8
BLACK
6
CONTINUOUS
10
8.24469
20
-2.30906
11
8.31358
21
-2.37795
0
LINE
8
BLACK
6
CONTINUOUS
10
8.31358
20
-2.30906
11
8.24469
21
-2.37795
0
LINE
8
BLACK
6
CONTINUOUS
10
8.28366
20
-1.56201
11
8.35256
21
-1.63091
0
LINE
8
BLACK
6
CONTINUOUS
10
8.35256
20
-1.56201
11
8.28366
21
-1.63091
0
LINE
8
BLACK
6
CONTINUOUS
10
8.43563
20
-3.05807
11
8.50453
21
-3.12697
0
LINE
8
BLACK
6
CONTINUOUS
10
8.50453
20
-3.05807
11
8.43563
21
-3.12697
0
LINE
8
BLACK
6
CONTINUOUS
10
8.46161
20
-3.8061
11
8.53051
21
-3.875
0
LINE
8
BLACK
6
CONTINUOUS
10
8.53051
20
-3.8061
11
8.46161
21
-3.875
0
LINE
8
BLACK
6
CONTINUOUS
10
8.62461
20
-0.439961
11
8.6935
21
-0.508858
0
LINE
8
BLACK
6
CONTINUOUS
10
8.6935
20
-0.439961
11
8.62461
21
-0.508858
0
LINE
8
BLACK
6
CONTINUOUS
10
8.63169
20
-1.56201
11
8.70059
21
-1.63091
0
LINE
8
BLACK
6
CONTINUOUS
10
8.70059
20
-1.56201
11
8.63169
21
-1.63091
0
LINE
8
BLACK
6
CONTINUOUS
10
8.64469
20
-2.30906
11
8.71358
21
-2.37795
0
LINE
8
BLACK
6
CONTINUOUS
10
8.71358
20
-2.30906
11
8.64469
21
-2.37795
0
LINE
8
BLACK
6
CONTINUOUS
10
8.80965
20
-3.8061
11
8.87854
21
-3.875
0
LINE
8
BLACK
6
CONTINUOUS
10
8.87854
20
-3.8061
11
8.80965
21
-3.875
0
LINE
8
BLACK
6
CONTINUOUS
10
8.83563
20
-3.05807
11
8.90453
21
-3.12697
0
LINE
8
BLACK
6
CONTINUOUS
10
8.90453
20
-3.05807
11
8.83563
21
-3.12697
0
LINE
8
BLACK
6
CONTINUOUS
10
8.99272
20
-2.30906
11
9.06161
21
-2.37795
0
LINE
8
BLACK
6
CONTINUOUS
10
9.06161
20
-2.30906
11
8.99272
21
-2.37795
0
LINE
8
BLACK
6
CONTINUOUS
10
9.02461
20
-0.439961
11
9.0935
21
-0.508858
0
LINE
8
BLACK
6
CONTINUOUS
10
9.0935
20
-0.439961
11
9.02461
21
-0.508858
0
LINE
8
BLACK
6
CONTINUOUS
10
9.03169
20
-1.56201
11
9.10059
21
-1.63091
0
LINE
8
BLACK
6
CONTINUOUS
10
9.10059
20
-1.56201
11
9.03169
21
-1.63091
0
LINE
8
BLACK
6
CONTINUOUS
10
9.18366
20
-3.05807
11
9.25256
21
-3.12697
0
LINE
8
BLACK
6
CONTINUOUS
10
9.25256
20
-3.05807
11
9.18366
21
-3.12697
0
LINE
8
BLACK
6
CONTINUOUS
10
9.20965
20
-3.8061
11
9.27854
21
-3.875
0
LINE
8
BLACK
6
CONTINUOUS
10
9.27854
20
-3.8061
11
9.20965
21
-3.875
0
LINE
8
BLACK
6
CONTINUOUS
10
9.37972
20
-1.56201
11
9.44862
21
-1.63091
0
LINE
8
BLACK
6
CONTINUOUS
10
9.44862
20
-1.56201
11
9.37972
21
-1.63091
0
LINE
8
BLACK
6
CONTINUOUS
10
9.39272
20
-2.30906
11
9.46161
21
-2.37795
0
LINE
8
BLACK
6
CONTINUOUS
10
9.46161
20
-2.30906
11
9.39272
21
-2.37795
0
LINE
8
BLACK
6
CONTINUOUS
10
9.55768
20
-3.8061
11
9.62657
21
-3.875
0
LINE
8
BLACK
6
CONTINUOUS
10
9.62657
20
-3.8061
11
9.55768
21
-3.875
0
LINE
8
BLACK
6
CONTINUOUS
10
9.58366
20
-3.05807
11
9.65256
21
-3.12697
0
LINE
8
BLACK
6
CONTINUOUS
10
9.65256
20
-3.05807
11
9.58366
21
-3.12697
0
LINE
8
BLACK
6
CONTINUOUS
10
9.74075
20
-2.30906
11
9.80965
21
-2.37795
0
LINE
8
BLACK
6
CONTINUOUS
10
9.80965
20
-2.30906
11
9.74075
21
-2.37795
0
LINE
8
BLACK
6
CONTINUOUS
10
9.77972
20
-1.56201
11
9.84862
21
-1.63091
0
LINE
8
BLACK
6
CONTINUOUS
10
9.84862
20
-1.56201
11
9.77972
21
-1.63091
0
LINE
8
BLACK
6
CONTINUOUS
10
9.93169
20
-3.05807
11
10.0006
21
-3.12697
0
LINE
8
BLACK
6
CONTINUOUS
10
10.0006
20
-3.05807
11
9.93169
21
-3.12697
0
LINE
8
BLACK
6
CONTINUOUS
10
9.95768
20
-3.8061
11
10.0266
21
-3.875
0
LINE
8
BLACK
6
CONTINUOUS
10
10.0266
20
-3.8061
11
9.95768
21
-3.875
0
LINE
8
BLACK
6
CONTINUOUS
10
10.1278
20
-1.56201
11
10.1967
21
-1.63091
0
LINE
8
BLACK
6
CONTINUOUS
10
10.1967
20
-1.56201
11
10.1278
21
-1.63091
0
LINE
8
BLACK
6
CONTINUOUS
10
10.1407
20
-2.30906
11
10.2096
21
-2.37795
0
LINE
8
BLACK
6
CONTINUOUS
10
10.2096
20
-2.30906
11
10.1407
21
-2.37795
0
LINE
8
BLACK
6
CONTINUOUS
10
10.3096
20
-0.439961
11
10.3785
21
-0.508858
0
LINE
8
BLACK
6
CONTINUOUS
10
10.3785
20
-0.439961
11
10.3096
21
-0.508858
0
LINE
8
BLACK
6
CONTINUOUS
10
10.3317
20
-3.05807
11
10.4006
21
-3.12697
0
LINE
8
BLACK
6
CONTINUOUS
10
10.4006
20
-3.05807
11
10.3317
21
-3.12697
0
LINE
8
BLACK
6
CONTINUOUS
10
10.5278
20
-1.56201
11
10.5967
21
-1.63091
0
LINE
8
BLACK
6
CONTINUOUS
10
10.5967
20
-1.56201
11
10.5278
21
-1.63091
0
LINE
8
BLACK
6
CONTINUOUS
10
10.6797
20
-3.8061
11
10.7486
21
-3.875
0
LINE
8
BLACK
6
CONTINUOUS
10
10.7486
20
-3.8061
11
10.6797
21
-3.875
0
LINE
8
BLACK
6
CONTINUOUS
10
10.7096
20
-0.439961
11
10.7785
21
-0.508858
0
LINE
8
BLACK
6
CONTINUOUS
10
10.7785
20
-0.439961
11
10.7096
21
-0.508858
0
LINE
8
BLACK
6
CONTINUOUS
10
10.7693
20
-2.30906
11
10.8382
21
-2.37795
0
LINE
8
BLACK
6
CONTINUOUS
10
10.8382
20
-2.30906
11
10.7693
21
-2.37795
0
LINE
8
BLACK
6
CONTINUOUS
10
10.8667
20
-3.05807
11
10.9356
21
-3.12697
0
LINE
8
BLACK
6
CONTINUOUS
10
10.9356
20
-3.05807
11
10.8667
21
-3.12697
0
LINE
8
BLACK
6
CONTINUOUS
10
10.9693
20
-1.56201
11
11.0382
21
-1.63091
0
LINE
8
BLACK
6
CONTINUOUS
10
11.0382
20
-1.56201
11
10.9693
21
-1.63091
0
LINE
8
BLACK
6
CONTINUOUS
10
11.0577
20
-0.439961
11
11.1266
21
-0.508858
0
LINE
8
BLACK
6
CONTINUOUS
10
11.1266
20
-0.439961
11
11.0577
21
-0.508858
0
LINE
8
BLACK
6
CONTINUOUS
10
11.0797
20
-3.8061
11
11.1486
21
-3.875
0
LINE
8
BLACK
6
CONTINUOUS
10
11.1486
20
-3.8061
11
11.0797
21
-3.875
0
LINE
8
BLACK
6
CONTINUOUS
10
11.1693
20
-2.30906
11
11.2382
21
-2.37795
0
LINE
8
BLACK
6
CONTINUOUS
10
11.2382
20
-2.30906
11
11.1693
21
-2.37795
0
LINE
8
BLACK
6
CONTINUOUS
10
11.2667
20
-3.05807
11
11.3356
21
-3.12697
0
LINE
8
BLACK
6
CONTINUOUS
10
11.3356
20
-3.05807
11
11.2667
21
-3.12697
0
LINE
8
BLACK
6
CONTINUOUS
10
11.3693
20
-1.56201
11
11.4382
21
-1.63091
0
LINE
8
BLACK
6
CONTINUOUS
10
11.4382
20
-1.56201
11
11.3693
21
-1.63091
0
LINE
8
BLACK
6
CONTINUOUS
10
11.4577
20
-0.439961
11
11.5266
21
-0.508858
0
LINE
8
BLACK
6
CONTINUOUS
10
11.5266
20
-0.439961
11
11.4577
21
-0.508858
0
LINE
8
BLACK
6
CONTINUOUS
10
12.3325
20
-0.439961
11
12.4014
21
-0.508858
0
LINE
8
BLACK
6
CONTINUOUS
10
12.4014
20
-0.439961
11
12.3325
21
-0.508858
0
LINE
8
BLACK
6
CONTINUOUS
10
12.3325
20
-1.56201
11
12.4014
21
-1.63091
0
LINE
8
BLACK
6
CONTINUOUS
10
12.4014
20
-1.56201
11
12.3325
21
-1.63091
0
LINE
8
BLACK
6
CONTINUOUS
10
12.3325
20
-2.31004
11
12.4014
21
-2.37894
0
LINE
8
BLACK
6
CONTINUOUS
10
12.4014
20
-2.31004
11
12.3325
21
-2.37894
0
LINE
8
BLACK
6
CONTINUOUS
10
12.3325
20
-3.05807
11
12.4014
21
-3.12697
0
LINE
8
BLACK
6
CONTINUOUS
10
12.4014
20
-3.05807
11
12.3325
21
-3.12697
0
LINE
8
BLACK
6
CONTINUOUS
10
12.3325
20
-3.8061
11
12.4014
21
-3.875
0
LINE
8
BLACK
6
CONTINUOUS
10
12.4014
20
-3.8061
11
12.3325
21
-3.875
0
LINE
8
BLACK
6
CONTINUOUS
10
12.3325
20
-4.55413
11
12.4014
21
-4.62303
0
LINE
8
BLACK
6
CONTINUOUS
10
12.4014
20
-4.55413
11
12.3325
21
-4.62303
0
LINE
8
BLACK
6
CONTINUOUS
10
12.7325
20
-0.439961
11
12.8014
21
-0.508858
0
LINE
8
BLACK
6
CONTINUOUS
10
12.8014
20
-0.439961
11
12.7325
21
-0.508858
0
LINE
8
BLACK
6
CONTINUOUS
10
12.7325
20
-1.56201
11
12.8014
21
-1.63091
0
LINE
8
BLACK
6
CONTINUOUS
10
12.8014
20
-1.56201
11
12.7325
21
-1.63091
0
LINE
8
BLACK
6
CONTINUOUS
10
12.7325
20
-2.31004
11
12.8014
21
-2.37894
0
LINE
8
BLACK
6
CONTINUOUS
10
12.8014
20
-2.31004
11
12.7325
21
-2.37894
0
LINE
8
BLACK
6
CONTINUOUS
10
12.7325
20
-3.05807
11
12.8014
21
-3.12697
0
LINE
8
BLACK
6
CONTINUOUS
10
12.8014
20
-3.05807
11
12.7325
21
-3.12697
0
LINE
8
BLACK
6
CONTINUOUS
10
12.7325
20
-3.8061
11
12.8014
21
-3.875
0
LINE
8
BLACK
6
CONTINUOUS
10
12.8014
20
-3.8061
11
12.7325
21
-3.875
0
LINE
8
BLACK
6
CONTINUOUS
10
12.7325
20
-4.55413
11
12.8014
21
-4.62303
0
LINE
8
BLACK
6
CONTINUOUS
10
12.8014
20
-4.55413
11
12.7325
21
-4.62303
0
LINE
8
BLACK
6
CONTINUOUS
10
13.0805
20
-0.439961
11
13.1494
21
-0.508858
0
LINE
8
BLACK
6
CONTINUOUS
10
13.1494
20
-0.439961
11
13.0805
21
-0.508858
0
LINE
8
BLACK
6
CONTINUOUS
10
13.0805
20
-1.56201
11
13.1494
21
-1.63091
0
LINE
8
BLACK
6
CONTINUOUS
10
13.1494
20
-1.56201
11
13.0805
21
-1.63091
0
LINE
8
BLACK
6
CONTINUOUS
10
13.0805
20
-2.31004
11
13.1494
21
-2.37894
0
LINE
8
BLACK
6
CONTINUOUS
10
13.1494
20
-2.31004
11
13.0805
21
-2.37894
0
LINE
8
BLACK
6
CONTINUOUS
10
13.0805
20
-3.05807
11
13.1494
21
-3.12697
0
LINE
8
BLACK
6
CONTINUOUS
10
13.1494
20
-3.05807
11
13.0805
21
-3.12697
0
LINE
8
BLACK
6
CONTINUOUS
10
13.0805
20
-3.8061
11
13.1494
21
-3.875
0
LINE
8
BLACK
6
CONTINUOUS
10
13.1494
20
-3.8061
11
13.0805
21
-3.875
0
LINE
8
BLACK
6
CONTINUOUS
10
13.0805
20
-4.55413
11
13.1494
21
-4.62303
0
LINE
8
BLACK
6
CONTINUOUS
10
13.1494
20
-4.55413
11
13.0805
21
-4.62303
0
LINE
8
BLACK
6
CONTINUOUS
10
13.4805
20
-0.439961
11
13.5494
21
-0.508858
0
LINE
8
BLACK
6
CONTINUOUS
10
13.5494
20
-0.439961
11
13.4805
21
-0.508858
0
LINE
8
BLACK
6
CONTINUOUS
10
13.4805
20
-1.56201
11
13.5494
21
-1.63091
0
LINE
8
BLACK
6
CONTINUOUS
10
13.5494
20
-1.56201
11
13.4805
21
-1.63091
0
LINE
8
BLACK
6
CONTINUOUS
10
13.4805
20
-2.31004
11
13.5494
21
-2.37894
0
LINE
8
BLACK
6
CONTINUOUS
10
13.5494
20
-2.31004
11
13.4805
21
-2.37894
0
LINE
8
BLACK
6
CONTINUOUS
10
13.4805
20
-3.05807
11
13.5494
21
-3.12697
0
LINE
8
BLACK
6
CONTINUOUS
10
13.5494
20
-3.05807
11
13.4805
21
-3.12697
0
LINE
8
BLACK
6
CONTINUOUS
10
13.4805
20
-3.8061
11
13.5494
21
-3.875
0
LINE
8
BLACK
6
CONTINUOUS
10
13.5494
20
-3.8061
11
13.4805
21
-3.875
0
LINE
8
BLACK
6
CONTINUOUS
10
13.4805
20
-4.55413
11
13.5494
21
-4.62303
0
LINE
8
BLACK
6
CONTINUOUS
10
13.5494
20
-4.55413
11
13.4805
21
-4.62303
0
LINE
8
BLACK
6
CONTINUOUS
10
13.8285
20
-0.439961
11
13.8974
21
-0.508858
0
LINE
8
BLACK
6
CONTINUOUS
10
13.8974
20
-0.439961
11
13.8285
21
-0.508858
0
LINE
8
BLACK
6
CONTINUOUS
10
13.8285
20
-1.56201
11
13.8974
21
-1.63091
0
LINE
8
BLACK
6
CONTINUOUS
10
13.8974
20
-1.56201
11
13.8285
21
-1.63091
0
LINE
8
BLACK
6
CONTINUOUS
10
13.8285
20
-2.31004
11
13.8974
21
-2.37894
0
LINE
8
BLACK
6
CONTINUOUS
10
13.8974
20
-2.31004
11
13.8285
21
-2.37894
0
LINE
8
BLACK
6
CONTINUOUS
10
13.8285
20
-3.05807
11
13.8974
21
-3.12697
0
LINE
8
BLACK
6
CONTINUOUS
10
13.8974
20
-3.05807
11
13.8285
21
-3.12697
0
LINE
8
BLACK
6
CONTINUOUS
10
13.8285
20
-3.8061
11
13.8974
21
-3.875
0
LINE
8
BLACK
6
CONTINUOUS
10
13.8974
20
-3.8061
11
13.8285
21
-3.875
0
LINE
8
BLACK
6
CONTINUOUS
10
13.8285
20
-4.55413
11
13.8974
21
-4.62303
0
LINE
8
BLACK
6
CONTINUOUS
10
13.8974
20
-4.55413
11
13.8285
21
-4.62303
0
LINE
8
BLACK
6
CONTINUOUS
10
14.2285
20
-0.439961
11
14.2974
21
-0.508858
0
LINE
8
BLACK
6
CONTINUOUS
10
14.2974
20
-0.439961
11
14.2285
21
-0.508858
0
LINE
8
BLACK
6
CONTINUOUS
10
14.2285
20
-1.56201
11
14.2974
21
-1.63091
0
LINE
8
BLACK
6
CONTINUOUS
10
14.2974
20
-1.56201
11
14.2285
21
-1.63091
0
LINE
8
BLACK
6
CONTINUOUS
10
14.2285
20
-2.31004
11
14.2974
21
-2.37894
0
LINE
8
BLACK
6
CONTINUOUS
10
14.2974
20
-2.31004
11
14.2285
21
-2.37894
0
LINE
8
BLACK
6
CONTINUOUS
10
14.2285
20
-3.05807
11
14.2974
21
-3.12697
0
LINE
8
BLACK
6
CONTINUOUS
10
14.2974
20
-3.05807
11
14.2285
21
-3.12697
0
LINE
8
BLACK
6
CONTINUOUS
10
14.2285
20
-3.8061
11
14.2974
21
-3.875
0
LINE
8
BLACK
6
CONTINUOUS
10
14.2974
20
-3.8061
11
14.2285
21
-3.875
0
LINE
8
BLACK
6
CONTINUOUS
10
14.2285
20
-4.55413
11
14.2974
21
-4.62303
0
LINE
8
BLACK
6
CONTINUOUS
10
14.2974
20
-4.55413
11
14.2285
21
-4.62303
0
LINE
8
BLACK
6
CONTINUOUS
10
14.5766
20
-0.439961
11
14.6455
21
-0.508858
0
LINE
8
BLACK
6
CONTINUOUS
10
14.6455
20
-0.439961
11
14.5766
21
-0.508858
0
LINE
8
BLACK
6
CONTINUOUS
10
14.5766
20
-1.56201
11
14.6455
21
-1.63091
0
LINE
8
BLACK
6
CONTINUOUS
10
14.6455
20
-1.56201
11
14.5766
21
-1.63091
0
LINE
8
BLACK
6
CONTINUOUS
10
14.5766
20
-2.31004
11
14.6455
21
-2.37894
0
LINE
8
BLACK
6
CONTINUOUS
10
14.6455
20
-2.31004
11
14.5766
21
-2.37894
0
LINE
8
BLACK
6
CONTINUOUS
10
14.5766
20
-3.05807
11
14.6455
21
-3.12697
0
LINE
8
BLACK
6
CONTINUOUS
10
14.6455
20
-3.05807
11
14.5766
21
-3.12697
0
LINE
8
BLACK
6
CONTINUOUS
10
14.5766
20
-3.8061
11
14.6455
21
-3.875
0
LINE
8
BLACK
6
CONTINUOUS
10
14.6455
20
-3.8061
11
14.5766
21
-3.875
0
LINE
8
BLACK
6
CONTINUOUS
10
14.5766
20
-4.55413
11
14.6455
21
-4.62303
0
LINE
8
BLACK
6
CONTINUOUS
10
14.6455
20
-4.55413
11
14.5766
21
-4.62303
0
LINE
8
BLACK
6
CONTINUOUS
10
14.9766
20
-0.439961
11
15.0455
21
-0.508858
0
LINE
8
BLACK
6
CONTINUOUS
10
15.0455
20
-0.439961
11
14.9766
21
-0.508858
0
LINE
8
BLACK
6
CONTINUOUS
10
14.9766
20
-1.56201
11
15.0455
21
-1.63091
0
LINE
8
BLACK
6
CONTINUOUS
10
15.0455
20
-1.56201
11
14.9766
21
-1.63091
0
LINE
8
BLACK
6
CONTINUOUS
10
14.9766
20
-2.31004
11
15.0455
21
-2.37894
0
LINE
8
BLACK
6
CONTINUOUS
10
15.0455
20
-2.31004
11
14.9766
21
-2.37894
0
LINE
8
BLACK
6
CONTINUOUS
10
14.9766
20
-3.05807
11
15.0455
21
-3.12697
0
LINE
8
BLACK
6
CONTINUOUS
10
15.0455
20
-3.05807
11
14.9766
21
-3.12697
0
LINE
8
BLACK
6
CONTINUOUS
10
14.9766
20
-3.8061
11
15.0455
21
-3.875
0
LINE
8
BLACK
6
CONTINUOUS
10
15.0455
20
-3.8061
11
14.9766
21
-3.875
0
LINE
8
BLACK
6
CONTINUOUS
10
14.9766
20
-4.55413
11
15.0455
21
-4.62303
0
LINE
8
BLACK
6
CONTINUOUS
10
15.0455
20
-4.55413
11
14.9766
21
-4.62303
0
CIRCLE
8
BLACK
10
0.441732
20
-0.474409
40
0.0785
0
CIRCLE
8
BLACK
10
0.441732
20
-3.09252
40
0.0785
0
CIRCLE
8
BLACK
10
0.441732
20
-3.84055
40
0.0785
0
CIRCLE
8
BLACK
10
0.531496
20
-1.59646
40
0.0785
0
CIRCLE
8
BLACK
10
0.718307
20
-2.3435
40
0.0785
0
CIRCLE
8
BLACK
10
1.18976
20
-0.474409
40
0.0785
0
CIRCLE
8
BLACK
10
1.18976
20
-3.09252
40
0.0785
0
CIRCLE
8
BLACK
10
1.38583
20
-1.59646
40
0.0785
0
CIRCLE
8
BLACK
10
1.56378
20
-3.84055
40
0.0785
0
CIRCLE
8
BLACK
10
1.74685
20
-2.3435
40
0.0785
0
CIRCLE
8
BLACK
10
1.9378
20
-3.09252
40
0.0785
0
CIRCLE
8
BLACK
10
2.13386
20
-1.59646
40
0.0785
0
CIRCLE
8
BLACK
10
2.31181
20
-3.84055
40
0.0785
0
CIRCLE
8
BLACK
10
2.31181
20
-4.59252
40
0.0785
0
CIRCLE
8
BLACK
10
2.49488
20
-2.3435
40
0.0785
0
CIRCLE
8
BLACK
10
2.68583
20
-3.09252
40
0.0785
0
CIRCLE
8
BLACK
10
2.8748
20
-0.474409
40
0.0785
0
CIRCLE
8
BLACK
10
2.88189
20
-1.59646
40
0.0785
0
CIRCLE
8
BLACK
10
3.05984
20
-3.84055
40
0.0785
0
CIRCLE
8
BLACK
10
3.05984
20
-4.59252
40
0.0785
0
CIRCLE
8
BLACK
10
3.24291
20
-2.3435
40
0.0785
0
CIRCLE
8
BLACK
10
3.43386
20
-3.09252
40
0.0785
0
CIRCLE
8
BLACK
10
3.62992
20
-1.59646
40
0.0785
0
CIRCLE
8
BLACK
10
3.80787
20
-3.84055
40
0.0785
0
CIRCLE
8
BLACK
10
3.99094
20
-2.3435
40
0.0785
0
CIRCLE
8
BLACK
10
4.18189
20
-3.09252
40
0.0785
0
CIRCLE
8
BLACK
10
4.37087
20
-0.474409
40
0.0785
0
CIRCLE
8
BLACK
10
4.37795
20
-1.59646
40
0.0785
0
CIRCLE
8
BLACK
10
4.55591
20
-3.84055
40
0.0785
0
CIRCLE
8
BLACK
10
4.73898
20
-2.3435
40
0.0785
0
CIRCLE
8
BLACK
10
4.92992
20
-3.09252
40
0.0785
0
CIRCLE
8
BLACK
10
5.12598
20
-1.59646
40
0.0785
0
CIRCLE
8
BLACK
10
5.30394
20
-3.84055
40
0.0785
0
CIRCLE
8
BLACK
10
5.48701
20
-2.3435
40
0.0785
0
CIRCLE
8
BLACK
10
5.67795
20
-3.09252
40
0.0785
0
CIRCLE
8
BLACK
10
5.86693
20
-0.474409
40
0.0785
0
CIRCLE
8
BLACK
10
5.87402
20
-1.59646
40
0.0785
0
CIRCLE
8
BLACK
10
6.05197
20
-3.84055
40
0.0785
0
CIRCLE
8
BLACK
10
6.05197
20
-4.59252
40
0.0785
0
CIRCLE
8
BLACK
10
6.23504
20
-2.3435
40
0.0785
0
CIRCLE
8
BLACK
10
6.42598
20
-3.09252
40
0.0785
0
CIRCLE
8
BLACK
10
6.62205
20
-1.59646
40
0.0785
0
CIRCLE
8
BLACK
10
6.8
20
-3.84055
40
0.0785
0
CIRCLE
8
BLACK
10
6.8
20
-4.59252
40
0.0785
0
CIRCLE
8
BLACK
10
6.98307
20
-2.3435
40
0.0785
0
CIRCLE
8
BLACK
10
7.17402
20
-3.09252
40
0.0785
0
CIRCLE
8
BLACK
10
7.36299
20
-0.474409
40
0.0785
0
CIRCLE
8
BLACK
10
7.37008
20
-1.59646
40
0.0785
0
CIRCLE
8
BLACK
10
7.54803
20
-3.84055
40
0.0785
0
CIRCLE
8
BLACK
10
7.7311
20
-2.3435
40
0.0785
0
CIRCLE
8
BLACK
10
7.92205
20
-3.09252
40
0.0785
0
CIRCLE
8
BLACK
10
8.11811
20
-1.59646
40
0.0785
0
CIRCLE
8
BLACK
10
8.29606
20
-3.84055
40
0.0785
0
CIRCLE
8
BLACK
10
8.47913
20
-2.3435
40
0.0785
0
CIRCLE
8
BLACK
10
8.67008
20
-3.09252
40
0.0785
0
CIRCLE
8
BLACK
10
8.85906
20
-0.474409
40
0.0785
0
CIRCLE
8
BLACK
10
8.86614
20
-1.59646
40
0.0785
0
CIRCLE
8
BLACK
10
9.04409
20
-3.84055
40
0.0785
0
CIRCLE
8
BLACK
10
9.22717
20
-2.3435
40
0.0785
0
CIRCLE
8
BLACK
10
9.41811
20
-3.09252
40
0.0785
0
CIRCLE
8
BLACK
10
9.61417
20
-1.59646
40
0.0785
0
CIRCLE
8
BLACK
10
9.79213
20
-3.84055
40
0.0785
0
CIRCLE
8
BLACK
10
9.9752
20
-2.3435
40
0.0785
0
CIRCLE
8
BLACK
10
10.1661
20
-3.09252
40
0.0785
0
CIRCLE
8
BLACK
10
10.3622
20
-1.59646
40
0.0785
0
CIRCLE
8
BLACK
10
10.5441
20
-0.474409
40
0.0785
0
CIRCLE
8
BLACK
10
10.9142
20
-3.84055
40
0.0785
0
CIRCLE
8
BLACK
10
11.0037
20
-2.3435
40
0.0785
0
CIRCLE
8
BLACK
10
11.1012
20
-3.09252
40
0.0785
0
CIRCLE
8
BLACK
10
11.2037
20
-1.59646
40
0.0785
0
CIRCLE
8
BLACK
10
11.2921
20
-0.474409
40
0.0785
0
CIRCLE
8
BLACK
10
12.5669
20
-0.474409
40
0.0785
0
CIRCLE
8
BLACK
10
12.5669
20
-1.59646
40
0.0785
0
CIRCLE
8
BLACK
10
12.5669
20
-2.34449
40
0.0785
0
CIRCLE
8
BLACK
10
12.5669
20
-3.09252
40
0.0785
0
CIRCLE
8
BLACK
10
12.5669
20
-3.84055
40
0.0785
0
CIRCLE
8
BLACK
10
12.5669
20
-4.58858
40
0.0785
0
CIRCLE
8
BLACK
10
13.315
20
-0.474409
40
0.0785
0
CIRCLE
8
BLACK
10
13.315
20
-1.59646
40
0.0785
0
CIRCLE
8
BLACK
10
13.315
20
-2.34449
40
0.0785
0
CIRCLE
8
BLACK
10
13.315
20
-3.09252
40
0.0785
0
CIRCLE
8
BLACK
10
13.315
20
-3.84055
40
0.0785
0
CIRCLE
8
BLACK
10
13.315
20
-4.58858
40
0.0785
0
CIRCLE
8
BLACK
10
14.063
20
-0.474409
40
0.0785
0
CIRCLE
8
BLACK
10
14.063
20
-1.59646
40
0.0785
0
CIRCLE
8
BLACK
10
14.063
20
-2.34449
40
0.0785
0
CIRCLE
8
BLACK
10
14.063
20
-3.09252
40
0.0785
0
CIRCLE
8
BLACK
10
14.063
20
-3.84055
40
0.0785
0
CIRCLE
8
BLACK
10
14.063
20
-4.58858
40
0.0785
0
CIRCLE
8
BLACK
10
14.811
20
-0.474409
40
0.0785
0
CIRCLE
8
BLACK
10
14.811
20
-1.59646
40
0.0785
0
CIRCLE
8
BLACK
10
14.811
20
-2.34449
40
0.0785
0
CIRCLE
8
BLACK
10
14.811
20
-3.09252
40
0.0785
0
CIRCLE
8
BLACK
10
14.811
20
-3.84055
40
0.0785
0
CIRCLE
8
BLACK
10
14.811
20
-4.58858
40
0.0785
0
LINE
8
BLACK
6
CONTINUOUS
10
0.0945344
20
-5.15905
11
0.0945344
21
-5.08031
0
LINE
8
BLACK
6
CONTINUOUS
10
0.0945344
20
-5.08031
11
0.113282
21
-5.08031
0
LINE
8
BLACK
6
CONTINUOUS
10
0.113282
20
-5.08031
11
0.124531
21
-5.08406
0
LINE
8
BLACK
6
CONTINUOUS
10
0.124531
20
-5.08406
11
0.13203
21
-5.09155
0
LINE
8
BLACK
6
CONTINUOUS
10
0.13203
20
-5.09155
11
0.135779
21
-5.09905
0
LINE
8
BLACK
6
CONTINUOUS
10
0.135779
20
-5.09905
11
0.139529
21
-5.11405
0
LINE
8
BLACK
6
CONTINUOUS
10
0.139529
20
-5.11405
11
0.139529
21
-5.1253
0
LINE
8
BLACK
6
CONTINUOUS
10
0.139529
20
-5.1253
11
0.135779
21
-5.1403
0
LINE
8
BLACK
6
CONTINUOUS
10
0.135779
20
-5.1403
11
0.13203
21
-5.1478
0
LINE
8
BLACK
6
CONTINUOUS
10
0.13203
20
-5.1478
11
0.124531
21
-5.1553
0
LINE
8
BLACK
6
CONTINUOUS
10
0.124531
20
-5.1553
11
0.113282
21
-5.15905
0
LINE
8
BLACK
6
CONTINUOUS
10
0.113282
20
-5.15905
11
0.0945344
21
-5.15905
0
LINE
8
BLACK
6
CONTINUOUS
10
0.173275
20
-5.15905
11
0.173275
21
-5.10655
0
LINE
8
BLACK
6
CONTINUOUS
10
0.173275
20
-5.12155
11
0.177024
21
-5.11405
0
LINE
8
BLACK
6
CONTINUOUS
10
0.177024
20
-5.11405
11
0.180774
21
-5.1103
0
LINE
8
BLACK
6
CONTINUOUS
10
0.180774
20
-5.1103
11
0.188273
21
-5.10655
0
LINE
8
BLACK
6
CONTINUOUS
10
0.188273
20
-5.10655
11
0.195772
21
-5.10655
0
LINE
8
BLACK
6
CONTINUOUS
10
0.222018
20
-5.15905
11
0.222018
21
-5.10655
0
LINE
8
BLACK
6
CONTINUOUS
10
0.222018
20
-5.08031
11
0.218269
21
-5.08406
0
LINE
8
BLACK
6
CONTINUOUS
10
0.218269
20
-5.08406
11
0.222018
21
-5.0878
0
LINE
8
BLACK
6
CONTINUOUS
10
0.222018
20
-5.0878
11
0.225768
21
-5.08406
0
LINE
8
BLACK
6
CONTINUOUS
10
0.225768
20
-5.08406
11
0.222018
21
-5.08031
0
LINE
8
BLACK
6
CONTINUOUS
10
0.222018
20
-5.08031
11
0.222018
21
-5.0878
0
LINE
8
BLACK
6
CONTINUOUS
10
0.270762
20
-5.15905
11
0.263263
21
-5.1553
0
LINE
8
BLACK
6
CONTINUOUS
10
0.263263
20
-5.1553
11
0.259514
21
-5.1478
0
LINE
8
BLACK
6
CONTINUOUS
10
0.259514
20
-5.1478
11
0.259514
21
-5.08031
0
LINE
8
BLACK
6
CONTINUOUS
10
0.312007
20
-5.15905
11
0.304508
21
-5.1553
0
LINE
8
BLACK
6
CONTINUOUS
10
0.304508
20
-5.1553
11
0.300759
21
-5.1478
0
LINE
8
BLACK
6
CONTINUOUS
10
0.300759
20
-5.1478
11
0.300759
21
-5.08031
0
LINE
8
BLACK
6
CONTINUOUS
10
0.389248
20
-5.15905
11
0.389248
21
-5.08031
0
LINE
8
BLACK
6
CONTINUOUS
10
0.389248
20
-5.08031
11
0.415494
21
-5.13655
0
LINE
8
BLACK
6
CONTINUOUS
10
0.415494
20
-5.13655
11
0.441741
21
-5.08031
0
LINE
8
BLACK
6
CONTINUOUS
10
0.441741
20
-5.08031
11
0.441741
21
-5.15905
0
LINE
8
BLACK
6
CONTINUOUS
10
0.512982
20
-5.15905
11
0.512982
21
-5.1178
0
LINE
8
BLACK
6
CONTINUOUS
10
0.512982
20
-5.1178
11
0.509233
21
-5.1103
0
LINE
8
BLACK
6
CONTINUOUS
10
0.509233
20
-5.1103
11
0.501734
21
-5.10655
0
LINE
8
BLACK
6
CONTINUOUS
10
0.501734
20
-5.10655
11
0.486735
21
-5.10655
0
LINE
8
BLACK
6
CONTINUOUS
10
0.486735
20
-5.10655
11
0.479236
21
-5.1103
0
LINE
8
BLACK
6
CONTINUOUS
10
0.512982
20
-5.1553
11
0.505483
21
-5.15905
0
LINE
8
BLACK
6
CONTINUOUS
10
0.505483
20
-5.15905
11
0.486735
21
-5.15905
0
LINE
8
BLACK
6
CONTINUOUS
10
0.486735
20
-5.15905
11
0.479236
21
-5.1553
0
LINE
8
BLACK
6
CONTINUOUS
10
0.479236
20
-5.1553
11
0.475487
21
-5.1478
0
LINE
8
BLACK
6
CONTINUOUS
10
0.475487
20
-5.1478
11
0.475487
21
-5.1403
0
LINE
8
BLACK
6
CONTINUOUS
10
0.475487
20
-5.1403
11
0.479236
21
-5.1328
0
LINE
8
BLACK
6
CONTINUOUS
10
0.479236
20
-5.1328
11
0.486735
21
-5.12905
0
LINE
8
BLACK
6
CONTINUOUS
10
0.486735
20
-5.12905
11
0.505483
21
-5.12905
0
LINE
8
BLACK
6
CONTINUOUS
10
0.505483
20
-5.12905
11
0.512982
21
-5.1253
0
LINE
8
BLACK
6
CONTINUOUS
10
0.550477
20
-5.10655
11
0.550477
21
-5.18529
0
LINE
8
BLACK
6
CONTINUOUS
10
0.550477
20
-5.1103
11
0.557976
21
-5.10655
0
LINE
8
BLACK
6
CONTINUOUS
10
0.557976
20
-5.10655
11
0.572975
21
-5.10655
0
LINE
8
BLACK
6
CONTINUOUS
10
0.572975
20
-5.10655
11
0.580474
21
-5.1103
0
LINE
8
BLACK
6
CONTINUOUS
10
0.580474
20
-5.1103
11
0.584223
21
-5.11405
0
LINE
8
BLACK
6
CONTINUOUS
10
0.584223
20
-5.11405
11
0.587973
21
-5.12155
0
LINE
8
BLACK
6
CONTINUOUS
10
0.587973
20
-5.12155
11
0.587973
21
-5.14405
0
LINE
8
BLACK
6
CONTINUOUS
10
0.587973
20
-5.14405
11
0.584223
21
-5.15155
0
LINE
8
BLACK
6
CONTINUOUS
10
0.584223
20
-5.15155
11
0.580474
21
-5.1553
0
LINE
8
BLACK
6
CONTINUOUS
10
0.580474
20
-5.1553
11
0.572975
21
-5.15905
0
LINE
8
BLACK
6
CONTINUOUS
10
0.572975
20
-5.15905
11
0.557976
21
-5.15905
0
LINE
8
BLACK
6
CONTINUOUS
10
0.557976
20
-5.15905
11
0.550477
21
-5.1553
0
LINE
8
BLACK
6
CONTINUOUS
10
0.621719
20
-5.15155
11
0.625468
21
-5.1553
0
LINE
8
BLACK
6
CONTINUOUS
10
0.625468
20
-5.1553
11
0.621719
21
-5.15905
0
LINE
8
BLACK
6
CONTINUOUS
10
0.621719
20
-5.15905
11
0.617969
21
-5.1553
0
LINE
8
BLACK
6
CONTINUOUS
10
0.617969
20
-5.1553
11
0.621719
21
-5.15155
0
LINE
8
BLACK
6
CONTINUOUS
10
0.621719
20
-5.15155
11
0.621719
21
-5.15905
0
LINE
8
BLACK
6
CONTINUOUS
10
0.621719
20
-5.1103
11
0.625468
21
-5.11405
0
LINE
8
BLACK
6
CONTINUOUS
10
0.625468
20
-5.11405
11
0.621719
21
-5.1178
0
LINE
8
BLACK
6
CONTINUOUS
10
0.621719
20
-5.1178
11
0.617969
21
-5.11405
0
LINE
8
BLACK
6
CONTINUOUS
10
0.617969
20
-5.11405
11
0.621719
21
-5.1103
0
LINE
8
BLACK
6
CONTINUOUS
10
0.621719
20
-5.1103
11
0.621719
21
-5.1178
0
LINE
8
BLACK
6
CONTINUOUS
10
-0.071851
20
-5.26102
11
-0.00295339
21
-5.32992
0
LINE
8
BLACK
6
CONTINUOUS
10
-0.00295339
20
-5.26102
11
-0.071851
21
-5.32992
0
LINE
8
BLACK
6
CONTINUOUS
10
0.135779
20
-5.3244
11
0.0907849
21
-5.3244
0
LINE
8
BLACK
6
CONTINUOUS
10
0.113282
20
-5.3244
11
0.113282
21
-5.24566
0
LINE
8
BLACK
6
CONTINUOUS
10
0.113282
20
-5.24566
11
0.105783
21
-5.25691
0
LINE
8
BLACK
6
CONTINUOUS
10
0.105783
20
-5.25691
11
0.0982839
21
-5.26441
0
LINE
8
BLACK
6
CONTINUOUS
10
0.0982839
20
-5.26441
11
0.0907849
21
-5.26816
0
LINE
8
BLACK
6
CONTINUOUS
10
0.169525
20
-5.3169
11
0.173275
21
-5.32065
0
LINE
8
BLACK
6
CONTINUOUS
10
0.173275
20
-5.32065
11
0.169525
21
-5.3244
0
LINE
8
BLACK
6
CONTINUOUS
10
0.169525
20
-5.3244
11
0.165776
21
-5.32065
0
LINE
8
BLACK
6
CONTINUOUS
10
0.165776
20
-5.32065
11
0.169525
21
-5.3169
0
LINE
8
BLACK
6
CONTINUOUS
10
0.169525
20
-5.3169
11
0.169525
21
-5.3244
0
LINE
8
BLACK
6
CONTINUOUS
10
0.199521
20
-5.24566
11
0.252015
21
-5.24566
0
LINE
8
BLACK
6
CONTINUOUS
10
0.252015
20
-5.24566
11
0.218269
21
-5.3244
0
LINE
8
BLACK
6
CONTINUOUS
10
0.319506
20
-5.24566
11
0.282011
21
-5.24566
0
LINE
8
BLACK
6
CONTINUOUS
10
0.282011
20
-5.24566
11
0.278261
21
-5.28316
0
LINE
8
BLACK
6
CONTINUOUS
10
0.278261
20
-5.28316
11
0.282011
21
-5.27941
0
LINE
8
BLACK
6
CONTINUOUS
10
0.282011
20
-5.27941
11
0.28951
21
-5.27566
0
LINE
8
BLACK
6
CONTINUOUS
10
0.28951
20
-5.27566
11
0.308258
21
-5.27566
0
LINE
8
BLACK
6
CONTINUOUS
10
0.308258
20
-5.27566
11
0.315757
21
-5.27941
0
LINE
8
BLACK
6
CONTINUOUS
10
0.315757
20
-5.27941
11
0.319506
21
-5.28316
0
LINE
8
BLACK
6
CONTINUOUS
10
0.319506
20
-5.28316
11
0.323256
21
-5.29065
0
LINE
8
BLACK
6
CONTINUOUS
10
0.323256
20
-5.29065
11
0.323256
21
-5.3094
0
LINE
8
BLACK
6
CONTINUOUS
10
0.323256
20
-5.3094
11
0.319506
21
-5.3169
0
LINE
8
BLACK
6
CONTINUOUS
10
0.319506
20
-5.3169
11
0.315757
21
-5.32065
0
LINE
8
BLACK
6
CONTINUOUS
10
0.315757
20
-5.32065
11
0.308258
21
-5.3244
0
LINE
8
BLACK
6
CONTINUOUS
10
0.308258
20
-5.3244
11
0.28951
21
-5.3244
0
LINE
8
BLACK
6
CONTINUOUS
10
0.28951
20
-5.3244
11
0.282011
21
-5.32065
0
LINE
8
BLACK
6
CONTINUOUS
10
0.282011
20
-5.32065
11
0.278261
21
-5.3169
0
LINE
8
BLACK
6
CONTINUOUS
10
0.372
20
-5.24566
11
0.379499
21
-5.24566
0
LINE
8
BLACK
6
CONTINUOUS
10
0.379499
20
-5.24566
11
0.386998
21
-5.24941
0
LINE
8
BLACK
6
CONTINUOUS
10
0.386998
20
-5.24941
11
0.390747
21
-5.25316
0
LINE
8
BLACK
6
CONTINUOUS
10
0.390747
20
-5.25316
11
0.394497
21
-5.26066
0
LINE
8
BLACK
6
CONTINUOUS
10
0.394497
20
-5.26066
11
0.398246
21
-5.27566
0
LINE
8
BLACK
6
CONTINUOUS
10
0.398246
20
-5.27566
11
0.398246
21
-5.2944
0
LINE
8
BLACK
6
CONTINUOUS
10
0.398246
20
-5.2944
11
0.394497
21
-5.3094
0
LINE
8
BLACK
6
CONTINUOUS
10
0.394497
20
-5.3094
11
0.390747
21
-5.3169
0
LINE
8
BLACK
6
CONTINUOUS
10
0.390747
20
-5.3169
11
0.386998
21
-5.32065
0
LINE
8
BLACK
6
CONTINUOUS
10
0.386998
20
-5.32065
11
0.379499
21
-5.3244
0
LINE
8
BLACK
6
CONTINUOUS
10
0.379499
20
-5.3244
11
0.372
21
-5.3244
0
LINE
8
BLACK
6
CONTINUOUS
10
0.372
20
-5.3244
11
0.364501
21
-5.32065
0
LINE
8
BLACK
6
CONTINUOUS
10
0.364501
20
-5.32065
11
0.360751
21
-5.3169
0
LINE
8
BLACK
6
CONTINUOUS
10
0.360751
20
-5.3169
11
0.357002
21
-5.3094
0
LINE
8
BLACK
6
CONTINUOUS
10
0.357002
20
-5.3094
11
0.353252
21
-5.2944
0
LINE
8
BLACK
6
CONTINUOUS
10
0.353252
20
-5.2944
11
0.353252
21
-5.27566
0
LINE
8
BLACK
6
CONTINUOUS
10
0.353252
20
-5.27566
11
0.357002
21
-5.26066
0
LINE
8
BLACK
6
CONTINUOUS
10
0.357002
20
-5.26066
11
0.360751
21
-5.25316
0
LINE
8
BLACK
6
CONTINUOUS
10
0.360751
20
-5.25316
11
0.364501
21
-5.24941
0
LINE
8
BLACK
6
CONTINUOUS
10
0.364501
20
-5.24941
11
0.372
21
-5.24566
0
LINE
8
BLACK
6
CONTINUOUS
10
0.431992
20
-5.3244
11
0.431992
21
-5.27191
0
LINE
8
BLACK
6
CONTINUOUS
10
0.431992
20
-5.27941
11
0.435742
21
-5.27566
0
LINE
8
BLACK
6
CONTINUOUS
10
0.435742
20
-5.27566
11
0.443241
21
-5.27191
0
LINE
8
BLACK
6
CONTINUOUS
10
0.443241
20
-5.27191
11
0.454489
21
-5.27191
0
LINE
8
BLACK
6
CONTINUOUS
10
0.454489
20
-5.27191
11
0.461989
21
-5.27566
0
LINE
8
BLACK
6
CONTINUOUS
10
0.461989
20
-5.27566
11
0.465738
21
-5.28316
0
LINE
8
BLACK
6
CONTINUOUS
10
0.465738
20
-5.28316
11
0.465738
21
-5.3244
0
LINE
8
BLACK
6
CONTINUOUS
10
0.465738
20
-5.28316
11
0.469488
21
-5.27566
0
LINE
8
BLACK
6
CONTINUOUS
10
0.469488
20
-5.27566
11
0.476987
21
-5.27191
0
LINE
8
BLACK
6
CONTINUOUS
10
0.476987
20
-5.27191
11
0.488235
21
-5.27191
0
LINE
8
BLACK
6
CONTINUOUS
10
0.488235
20
-5.27191
11
0.495734
21
-5.27566
0
LINE
8
BLACK
6
CONTINUOUS
10
0.495734
20
-5.27566
11
0.499484
21
-5.28316
0
LINE
8
BLACK
6
CONTINUOUS
10
0.499484
20
-5.28316
11
0.499484
21
-5.3244
0
LINE
8
BLACK
6
CONTINUOUS
10
0.536979
20
-5.3244
11
0.536979
21
-5.27191
0
LINE
8
BLACK
6
CONTINUOUS
10
0.536979
20
-5.27941
11
0.540729
21
-5.27566
0
LINE
8
BLACK
6
CONTINUOUS
10
0.540729
20
-5.27566
11
0.548228
21
-5.27191
0
LINE
8
BLACK
6
CONTINUOUS
10
0.548228
20
-5.27191
11
0.559476
21
-5.27191
0
LINE
8
BLACK
6
CONTINUOUS
10
0.559476
20
-5.27191
11
0.566975
21
-5.27566
0
LINE
8
BLACK
6
CONTINUOUS
10
0.566975
20
-5.27566
11
0.570725
21
-5.28316
0
LINE
8
BLACK
6
CONTINUOUS
10
0.570725
20
-5.28316
11
0.570725
21
-5.3244
0
LINE
8
BLACK
6
CONTINUOUS
10
0.570725
20
-5.28316
11
0.574474
21
-5.27566
0
LINE
8
BLACK
6
CONTINUOUS
10
0.574474
20
-5.27566
11
0.581974
21
-5.27191
0
LINE
8
BLACK
6
CONTINUOUS
10
0.581974
20
-5.27191
11
0.593222
21
-5.27191
0
LINE
8
BLACK
6
CONTINUOUS
10
0.593222
20
-5.27191
11
0.600721
21
-5.27566
0
LINE
8
BLACK
6
CONTINUOUS
10
0.600721
20
-5.27566
11
0.604471
21
-5.28316
0
LINE
8
BLACK
6
CONTINUOUS
10
0.604471
20
-5.28316
11
0.604471
21
-5.3244
0
LINE
8
BLACK
6
CONTINUOUS
10
0.745453
20
-5.24191
11
0.677962
21
-5.34315
0
LINE
8
BLACK
6
CONTINUOUS
10
0.833942
20
-5.24566
11
0.841441
21
-5.24566
0
LINE
8
BLACK
6
CONTINUOUS
10
0.841441
20
-5.24566
11
0.84894
21
-5.24941
0
LINE
8
BLACK
6
CONTINUOUS
10
0.84894
20
-5.24941
11
0.85269
21
-5.25316
0
LINE
8
BLACK
6
CONTINUOUS
10
0.85269
20
-5.25316
11
0.856439
21
-5.26066
0
LINE
8
BLACK
6
CONTINUOUS
10
0.856439
20
-5.26066
11
0.860189
21
-5.27566
0
LINE
8
BLACK
6
CONTINUOUS
10
0.860189
20
-5.27566
11
0.860189
21
-5.2944
0
LINE
8
BLACK
6
CONTINUOUS
10
0.860189
20
-5.2944
11
0.856439
21
-5.3094
0
LINE
8
BLACK
6
CONTINUOUS
10
0.856439
20
-5.3094
11
0.85269
21
-5.3169
0
LINE
8
BLACK
6
CONTINUOUS
10
0.85269
20
-5.3169
11
0.84894
21
-5.32065
0
LINE
8
BLACK
6
CONTINUOUS
10
0.84894
20
-5.32065
11
0.841441
21
-5.3244
0
LINE
8
BLACK
6
CONTINUOUS
10
0.841441
20
-5.3244
11
0.833942
21
-5.3244
0
LINE
8
BLACK
6
CONTINUOUS
10
0.833942
20
-5.3244
11
0.826443
21
-5.32065
0
LINE
8
BLACK
6
CONTINUOUS
10
0.826443
20
-5.32065
11
0.822693
21
-5.3169
0
LINE
8
BLACK
6
CONTINUOUS
10
0.822693
20
-5.3169
11
0.818944
21
-5.3094
0
LINE
8
BLACK
6
CONTINUOUS
10
0.818944
20
-5.3094
11
0.815194
21
-5.2944
0
LINE
8
BLACK
6
CONTINUOUS
10
0.815194
20
-5.2944
11
0.815194
21
-5.27566
0
LINE
8
BLACK
6
CONTINUOUS
10
0.815194
20
-5.27566
11
0.818944
21
-5.26066
0
LINE
8
BLACK
6
CONTINUOUS
10
0.818944
20
-5.26066
11
0.822693
21
-5.25316
0
LINE
8
BLACK
6
CONTINUOUS
10
0.822693
20
-5.25316
11
0.826443
21
-5.24941
0
LINE
8
BLACK
6
CONTINUOUS
10
0.826443
20
-5.24941
11
0.833942
21
-5.24566
0
LINE
8
BLACK
6
CONTINUOUS
10
0.893935
20
-5.3169
11
0.897684
21
-5.32065
0
LINE
8
BLACK
6
CONTINUOUS
10
0.897684
20
-5.32065
11
0.893935
21
-5.3244
0
LINE
8
BLACK
6
CONTINUOUS
10
0.893935
20
-5.3244
11
0.890185
21
-5.32065
0
LINE
8
BLACK
6
CONTINUOUS
10
0.890185
20
-5.32065
11
0.893935
21
-5.3169
0
LINE
8
BLACK
6
CONTINUOUS
10
0.893935
20
-5.3169
11
0.893935
21
-5.3244
0
LINE
8
BLACK
6
CONTINUOUS
10
0.946428
20
-5.24566
11
0.953927
21
-5.24566
0
LINE
8
BLACK
6
CONTINUOUS
10
0.953927
20
-5.24566
11
0.961426
21
-5.24941
0
LINE
8
BLACK
6
CONTINUOUS
10
0.961426
20
-5.24941
11
0.965176
21
-5.25316
0
LINE
8
BLACK
6
CONTINUOUS
10
0.965176
20
-5.25316
11
0.968925
21
-5.26066
0
LINE
8
BLACK
6
CONTINUOUS
10
0.968925
20
-5.26066
11
0.972675
21
-5.27566
0
LINE
8
BLACK
6
CONTINUOUS
10
0.972675
20
-5.27566
11
0.972675
21
-5.2944
0
LINE
8
BLACK
6
CONTINUOUS
10
0.972675
20
-5.2944
11
0.968925
21
-5.3094
0
LINE
8
BLACK
6
CONTINUOUS
10
0.968925
20
-5.3094
11
0.965176
21
-5.3169
0
LINE
8
BLACK
6
CONTINUOUS
10
0.965176
20
-5.3169
11
0.961426
21
-5.32065
0
LINE
8
BLACK
6
CONTINUOUS
10
0.961426
20
-5.32065
11
0.953927
21
-5.3244
0
LINE
8
BLACK
6
CONTINUOUS
10
0.953927
20
-5.3244
11
0.946428
21
-5.3244
0
LINE
8
BLACK
6
CONTINUOUS
10
0.946428
20
-5.3244
11
0.938929
21
-5.32065
0
LINE
8
BLACK
6
CONTINUOUS
10
0.938929
20
-5.32065
11
0.935179
21
-5.3169
0
LINE
8
BLACK
6
CONTINUOUS
10
0.935179
20
-5.3169
11
0.93143
21
-5.3094
0
LINE
8
BLACK
6
CONTINUOUS
10
0.93143
20
-5.3094
11
0.92768
21
-5.2944
0
LINE
8
BLACK
6
CONTINUOUS
10
0.92768
20
-5.2944
11
0.92768
21
-5.27566
0
LINE
8
BLACK
6
CONTINUOUS
10
0.92768
20
-5.27566
11
0.93143
21
-5.26066
0
LINE
8
BLACK
6
CONTINUOUS
10
0.93143
20
-5.26066
11
0.935179
21
-5.25316
0
LINE
8
BLACK
6
CONTINUOUS
10
0.935179
20
-5.25316
11
0.938929
21
-5.24941
0
LINE
8
BLACK
6
CONTINUOUS
10
0.938929
20
-5.24941
11
0.946428
21
-5.24566
0
LINE
8
BLACK
6
CONTINUOUS
10
1.04017
20
-5.24566
11
1.02517
21
-5.24566
0
LINE
8
BLACK
6
CONTINUOUS
10
1.02517
20
-5.24566
11
1.01767
21
-5.24941
0
LINE
8
BLACK
6
CONTINUOUS
10
1.01767
20
-5.24941
11
1.01392
21
-5.25316
0
LINE
8
BLACK
6
CONTINUOUS
10
1.01392
20
-5.25316
11
1.00642
21
-5.26441
0
LINE
8
BLACK
6
CONTINUOUS
10
1.00642
20
-5.26441
11
1.00267
21
-5.27941
0
LINE
8
BLACK
6
CONTINUOUS
10
1.00267
20
-5.27941
11
1.00267
21
-5.3094
0
LINE
8
BLACK
6
CONTINUOUS
10
1.00267
20
-5.3094
11
1.00642
21
-5.3169
0
LINE
8
BLACK
6
CONTINUOUS
10
1.00642
20
-5.3169
11
1.01017
21
-5.32065
0
LINE
8
BLACK
6
CONTINUOUS
10
1.01017
20
-5.32065
11
1.01767
21
-5.3244
0
LINE
8
BLACK
6
CONTINUOUS
10
1.01767
20
-5.3244
11
1.03267
21
-5.3244
0
LINE
8
BLACK
6
CONTINUOUS
10
1.03267
20
-5.3244
11
1.04017
21
-5.32065
0
LINE
8
BLACK
6
CONTINUOUS
10
1.04017
20
-5.32065
11
1.04392
21
-5.3169
0
LINE
8
BLACK
6
CONTINUOUS
10
1.04392
20
-5.3169
11
1.04767
21
-5.3094
0
LINE
8
BLACK
6
CONTINUOUS
10
1.04767
20
-5.3094
11
1.04767
21
-5.29065
0
LINE
8
BLACK
6
CONTINUOUS
10
1.04767
20
-5.29065
11
1.04392
21
-5.28316
0
LINE
8
BLACK
6
CONTINUOUS
10
1.04392
20
-5.28316
11
1.04017
21
-5.27941
0
LINE
8
BLACK
6
CONTINUOUS
10
1.04017
20
-5.27941
11
1.03267
21
-5.27566
0
LINE
8
BLACK
6
CONTINUOUS
10
1.03267
20
-5.27566
11
1.01767
21
-5.27566
0
LINE
8
BLACK
6
CONTINUOUS
10
1.01767
20
-5.27566
11
1.01017
21
-5.27941
0
LINE
8
BLACK
6
CONTINUOUS
10
1.01017
20
-5.27941
11
1.00642
21
-5.28316
0
LINE
8
BLACK
6
CONTINUOUS
10
1.00642
20
-5.28316
11
1.00267
21
-5.29065
0
LINE
8
BLACK
6
CONTINUOUS
10
1.09266
20
-5.27941
11
1.08516
21
-5.27566
0
LINE
8
BLACK
6
CONTINUOUS
10
1.08516
20
-5.27566
11
1.08141
21
-5.27191
0
LINE
8
BLACK
6
CONTINUOUS
10
1.08141
20
-5.27191
11
1.07766
21
-5.26441
0
LINE
8
BLACK
6
CONTINUOUS
10
1.07766
20
-5.26441
11
1.07766
21
-5.26066
0
LINE
8
BLACK
6
CONTINUOUS
10
1.07766
20
-5.26066
11
1.08141
21
-5.25316
0
LINE
8
BLACK
6
CONTINUOUS
10
1.08141
20
-5.25316
11
1.08516
21
-5.24941
0
LINE
8
BLACK
6
CONTINUOUS
10
1.08516
20
-5.24941
11
1.09266
21
-5.24566
0
LINE
8
BLACK
6
CONTINUOUS
10
1.09266
20
-5.24566
11
1.10766
21
-5.24566
0
LINE
8
BLACK
6
CONTINUOUS
10
1.10766
20
-5.24566
11
1.11516
21
-5.24941
0
LINE
8
BLACK
6
CONTINUOUS
10
1.11516
20
-5.24941
11
1.11891
21
-5.25316
0
LINE
8
BLACK
6
CONTINUOUS
10
1.11891
20
-5.25316
11
1.12266
21
-5.26066
0
LINE
8
BLACK
6
CONTINUOUS
10
1.12266
20
-5.26066
11
1.12266
21
-5.26441
0
LINE
8
BLACK
6
CONTINUOUS
10
1.12266
20
-5.26441
11
1.11891
21
-5.27191
0
LINE
8
BLACK
6
CONTINUOUS
10
1.11891
20
-5.27191
11
1.11516
21
-5.27566
0
LINE
8
BLACK
6
CONTINUOUS
10
1.11516
20
-5.27566
11
1.10766
21
-5.27941
0
LINE
8
BLACK
6
CONTINUOUS
10
1.10766
20
-5.27941
11
1.09266
21
-5.27941
0
LINE
8
BLACK
6
CONTINUOUS
10
1.09266
20
-5.27941
11
1.08516
21
-5.28316
0
LINE
8
BLACK
6
CONTINUOUS
10
1.08516
20
-5.28316
11
1.08141
21
-5.2869
0
LINE
8
BLACK
6
CONTINUOUS
10
1.08141
20
-5.2869
11
1.07766
21
-5.2944
0
LINE
8
BLACK
6
CONTINUOUS
10
1.07766
20
-5.2944
11
1.07766
21
-5.3094
0
LINE
8
BLACK
6
CONTINUOUS
10
1.07766
20
-5.3094
11
1.08141
21
-5.3169
0
LINE
8
BLACK
6
CONTINUOUS
10
1.08141
20
-5.3169
11
1.08516
21
-5.32065
0
LINE
8
BLACK
6
CONTINUOUS
10
1.08516
20
-5.32065
11
1.09266
21
-5.3244
0
LINE
8
BLACK
6
CONTINUOUS
10
1.09266
20
-5.3244
11
1.10766
21
-5.3244
0
LINE
8
BLACK
6
CONTINUOUS
10
1.10766
20
-5.3244
11
1.11516
21
-5.32065
0
LINE
8
BLACK
6
CONTINUOUS
10
1.11516
20
-5.32065
11
1.11891
21
-5.3169
0
LINE
8
BLACK
6
CONTINUOUS
10
1.11891
20
-5.3169
11
1.12266
21
-5.3094
0
LINE
8
BLACK
6
CONTINUOUS
10
1.12266
20
-5.3094
11
1.12266
21
-5.2944
0
LINE
8
BLACK
6
CONTINUOUS
10
1.12266
20
-5.2944
11
1.11891
21
-5.2869
0
LINE
8
BLACK
6
CONTINUOUS
10
1.11891
20
-5.2869
11
1.11516
21
-5.28316
0
LINE
8
BLACK
6
CONTINUOUS
10
1.11516
20
-5.28316
11
1.10766
21
-5.27941
0
LINE
8
BLACK
6
CONTINUOUS
10
1.16015
20
-5.3244
11
1.17515
21
-5.3244
0
LINE
8
BLACK
6
CONTINUOUS
10
1.17515
20
-5.3244
11
1.18265
21
-5.32065
0
LINE
8
BLACK
6
CONTINUOUS
10
1.18265
20
-5.32065
11
1.1864
21
-5.3169
0
LINE
8
BLACK
6
CONTINUOUS
10
1.1864
20
-5.3169
11
1.1939
21
-5.30565
0
LINE
8
BLACK
6
CONTINUOUS
10
1.1939
20
-5.30565
11
1.19765
21
-5.29065
0
LINE
8
BLACK
6
CONTINUOUS
10
1.19765
20
-5.29065
11
1.19765
21
-5.26066
0
LINE
8
BLACK
6
CONTINUOUS
10
1.19765
20
-5.26066
11
1.1939
21
-5.25316
0
LINE
8
BLACK
6
CONTINUOUS
10
1.1939
20
-5.25316
11
1.19015
21
-5.24941
0
LINE
8
BLACK
6
CONTINUOUS
10
1.19015
20
-5.24941
11
1.18265
21
-5.24566
0
LINE
8
BLACK
6
CONTINUOUS
10
1.18265
20
-5.24566
11
1.16765
21
-5.24566
0
LINE
8
BLACK
6
CONTINUOUS
10
1.16765
20
-5.24566
11
1.16015
21
-5.24941
0
LINE
8
BLACK
6
CONTINUOUS
10
1.16015
20
-5.24941
11
1.1564
21
-5.25316
0
LINE
8
BLACK
6
CONTINUOUS
10
1.1564
20
-5.25316
11
1.15265
21
-5.26066
0
LINE
8
BLACK
6
CONTINUOUS
10
1.15265
20
-5.26066
11
1.15265
21
-5.27941
0
LINE
8
BLACK
6
CONTINUOUS
10
1.15265
20
-5.27941
11
1.1564
21
-5.2869
0
LINE
8
BLACK
6
CONTINUOUS
10
1.1564
20
-5.2869
11
1.16015
21
-5.29065
0
LINE
8
BLACK
6
CONTINUOUS
10
1.16015
20
-5.29065
11
1.16765
21
-5.2944
0
LINE
8
BLACK
6
CONTINUOUS
10
1.16765
20
-5.2944
11
1.18265
21
-5.2944
0
LINE
8
BLACK
6
CONTINUOUS
10
1.18265
20
-5.2944
11
1.19015
21
-5.29065
0
LINE
8
BLACK
6
CONTINUOUS
10
1.19015
20
-5.29065
11
1.1939
21
-5.2869
0
LINE
8
BLACK
6
CONTINUOUS
10
1.1939
20
-5.2869
11
1.19765
21
-5.27941
0
LINE
8
BLACK
6
CONTINUOUS
10
1.22764
20
-5.24566
11
1.22764
21
-5.26066
0
LINE
8
BLACK
6
CONTINUOUS
10
1.25764
20
-5.24566
11
1.25764
21
-5.26066
0
LINE
8
BLACK
6
CONTINUOUS
10
1.36113
20
-5.3544
11
1.35738
21
-5.35065
0
LINE
8
BLACK
6
CONTINUOUS
10
1.35738
20
-5.35065
11
1.34988
21
-5.3394
0
LINE
8
BLACK
6
CONTINUOUS
10
1.34988
20
-5.3394
11
1.34613
21
-5.3319
0
LINE
8
BLACK
6
CONTINUOUS
10
1.34613
20
-5.3319
11
1.34238
21
-5.32065
0
LINE
8
BLACK
6
CONTINUOUS
10
1.34238
20
-5.32065
11
1.33863
21
-5.3019
0
LINE
8
BLACK
6
CONTINUOUS
10
1.33863
20
-5.3019
11
1.33863
21
-5.2869
0
LINE
8
BLACK
6
CONTINUOUS
10
1.33863
20
-5.2869
11
1.34238
21
-5.26816
0
LINE
8
BLACK
6
CONTINUOUS
10
1.34238
20
-5.26816
11
1.34613
21
-5.25691
0
LINE
8
BLACK
6
CONTINUOUS
10
1.34613
20
-5.25691
11
1.34988
21
-5.24941
0
LINE
8
BLACK
6
CONTINUOUS
10
1.34988
20
-5.24941
11
1.35738
21
-5.23816
0
LINE
8
BLACK
6
CONTINUOUS
10
1.35738
20
-5.23816
11
1.36113
21
-5.23441
0
LINE
8
BLACK
6
CONTINUOUS
10
1.43237
20
-5.3244
11
1.38737
21
-5.3244
0
LINE
8
BLACK
6
CONTINUOUS
10
1.40987
20
-5.3244
11
1.40987
21
-5.24566
0
LINE
8
BLACK
6
CONTINUOUS
10
1.40987
20
-5.24566
11
1.40237
21
-5.25691
0
LINE
8
BLACK
6
CONTINUOUS
10
1.40237
20
-5.25691
11
1.39487
21
-5.26441
0
LINE
8
BLACK
6
CONTINUOUS
10
1.39487
20
-5.26441
11
1.38737
21
-5.26816
0
LINE
8
BLACK
6
CONTINUOUS
10
1.46986
20
-5.3244
11
1.48486
21
-5.3244
0
LINE
8
BLACK
6
CONTINUOUS
10
1.48486
20
-5.3244
11
1.49236
21
-5.32065
0
LINE
8
BLACK
6
CONTINUOUS
10
1.49236
20
-5.32065
11
1.49611
21
-5.3169
0
LINE
8
BLACK
6
CONTINUOUS
10
1.49611
20
-5.3169
11
1.50361
21
-5.30565
0
LINE
8
BLACK
6
CONTINUOUS
10
1.50361
20
-5.30565
11
1.50736
21
-5.29065
0
LINE
8
BLACK
6
CONTINUOUS
10
1.50736
20
-5.29065
11
1.50736
21
-5.26066
0
LINE
8
BLACK
6
CONTINUOUS
10
1.50736
20
-5.26066
11
1.50361
21
-5.25316
0
LINE
8
BLACK
6
CONTINUOUS
10
1.50361
20
-5.25316
11
1.49986
21
-5.24941
0
LINE
8
BLACK
6
CONTINUOUS
10
1.49986
20
-5.24941
11
1.49236
21
-5.24566
0
LINE
8
BLACK
6
CONTINUOUS
10
1.49236
20
-5.24566
11
1.47736
21
-5.24566
0
LINE
8
BLACK
6
CONTINUOUS
10
1.47736
20
-5.24566
11
1.46986
21
-5.24941
0
LINE
8
BLACK
6
CONTINUOUS
10
1.46986
20
-5.24941
11
1.46611
21
-5.25316
0
LINE
8
BLACK
6
CONTINUOUS
10
1.46611
20
-5.25316
11
1.46236
21
-5.26066
0
LINE
8
BLACK
6
CONTINUOUS
10
1.46236
20
-5.26066
11
1.46236
21
-5.27941
0
LINE
8
BLACK
6
CONTINUOUS
10
1.46236
20
-5.27941
11
1.46611
21
-5.2869
0
LINE
8
BLACK
6
CONTINUOUS
10
1.46611
20
-5.2869
11
1.46986
21
-5.29065
0
LINE
8
BLACK
6
CONTINUOUS
10
1.46986
20
-5.29065
11
1.47736
21
-5.2944
0
LINE
8
BLACK
6
CONTINUOUS
10
1.47736
20
-5.2944
11
1.49236
21
-5.2944
0
LINE
8
BLACK
6
CONTINUOUS
10
1.49236
20
-5.2944
11
1.49986
21
-5.29065
0
LINE
8
BLACK
6
CONTINUOUS
10
1.49986
20
-5.29065
11
1.50361
21
-5.2869
0
LINE
8
BLACK
6
CONTINUOUS
10
1.50361
20
-5.2869
11
1.50736
21
-5.27941
0
LINE
8
BLACK
6
CONTINUOUS
10
1.5561
20
-5.24566
11
1.5636
21
-5.24566
0
LINE
8
BLACK
6
CONTINUOUS
10
1.5636
20
-5.24566
11
1.5711
21
-5.24941
0
LINE
8
BLACK
6
CONTINUOUS
10
1.5711
20
-5.24941
11
1.57485
21
-5.25316
0
LINE
8
BLACK
6
CONTINUOUS
10
1.57485
20
-5.25316
11
1.5786
21
-5.26066
0
LINE
8
BLACK
6
CONTINUOUS
10
1.5786
20
-5.26066
11
1.58235
21
-5.27566
0
LINE
8
BLACK
6
CONTINUOUS
10
1.58235
20
-5.27566
11
1.58235
21
-5.2944
0
LINE
8
BLACK
6
CONTINUOUS
10
1.58235
20
-5.2944
11
1.5786
21
-5.3094
0
LINE
8
BLACK
6
CONTINUOUS
10
1.5786
20
-5.3094
11
1.57485
21
-5.3169
0
LINE
8
BLACK
6
CONTINUOUS
10
1.57485
20
-5.3169
11
1.5711
21
-5.32065
0
LINE
8
BLACK
6
CONTINUOUS
10
1.5711
20
-5.32065
11
1.5636
21
-5.3244
0
LINE
8
BLACK
6
CONTINUOUS
10
1.5636
20
-5.3244
11
1.5561
21
-5.3244
0
LINE
8
BLACK
6
CONTINUOUS
10
1.5561
20
-5.3244
11
1.5486
21
-5.32065
0
LINE
8
BLACK
6
CONTINUOUS
10
1.5486
20
-5.32065
11
1.54485
21
-5.3169
0
LINE
8
BLACK
6
CONTINUOUS
10
1.54485
20
-5.3169
11
1.5411
21
-5.3094
0
LINE
8
BLACK
6
CONTINUOUS
10
1.5411
20
-5.3094
11
1.53735
21
-5.2944
0
LINE
8
BLACK
6
CONTINUOUS
10
1.53735
20
-5.2944
11
1.53735
21
-5.27566
0
LINE
8
BLACK
6
CONTINUOUS
10
1.53735
20
-5.27566
11
1.5411
21
-5.26066
0
LINE
8
BLACK
6
CONTINUOUS
10
1.5411
20
-5.26066
11
1.54485
21
-5.25316
0
LINE
8
BLACK
6
CONTINUOUS
10
1.54485
20
-5.25316
11
1.5486
21
-5.24941
0
LINE
8
BLACK
6
CONTINUOUS
10
1.5486
20
-5.24941
11
1.5561
21
-5.24566
0
LINE
8
BLACK
6
CONTINUOUS
10
1.66334
20
-5.3244
11
1.66334
21
-5.24566
0
LINE
8
BLACK
6
CONTINUOUS
10
1.69708
20
-5.3244
11
1.69708
21
-5.28316
0
LINE
8
BLACK
6
CONTINUOUS
10
1.69708
20
-5.28316
11
1.69333
21
-5.27566
0
LINE
8
BLACK
6
CONTINUOUS
10
1.69333
20
-5.27566
11
1.68584
21
-5.27191
0
LINE
8
BLACK
6
CONTINUOUS
10
1.68584
20
-5.27191
11
1.67459
21
-5.27191
0
LINE
8
BLACK
6
CONTINUOUS
10
1.67459
20
-5.27191
11
1.66709
21
-5.27566
0
LINE
8
BLACK
6
CONTINUOUS
10
1.66709
20
-5.27566
11
1.66334
21
-5.27941
0
LINE
8
BLACK
6
CONTINUOUS
10
1.74583
20
-5.3244
11
1.73833
21
-5.32065
0
LINE
8
BLACK
6
CONTINUOUS
10
1.73833
20
-5.32065
11
1.73458
21
-5.3169
0
LINE
8
BLACK
6
CONTINUOUS
10
1.73458
20
-5.3169
11
1.73083
21
-5.3094
0
LINE
8
BLACK
6
CONTINUOUS
10
1.73083
20
-5.3094
11
1.73083
21
-5.2869
0
LINE
8
BLACK
6
CONTINUOUS
10
1.73083
20
-5.2869
11
1.73458
21
-5.27941
0
LINE
8
BLACK
6
CONTINUOUS
10
1.73458
20
-5.27941
11
1.73833
21
-5.27566
0
LINE
8
BLACK
6
CONTINUOUS
10
1.73833
20
-5.27566
11
1.74583
21
-5.27191
0
LINE
8
BLACK
6
CONTINUOUS
10
1.74583
20
-5.27191
11
1.75708
21
-5.27191
0
LINE
8
BLACK
6
CONTINUOUS
10
1.75708
20
-5.27191
11
1.76458
21
-5.27566
0
LINE
8
BLACK
6
CONTINUOUS
10
1.76458
20
-5.27566
11
1.76833
21
-5.27941
0
LINE
8
BLACK
6
CONTINUOUS
10
1.76833
20
-5.27941
11
1.77207
21
-5.2869
0
LINE
8
BLACK
6
CONTINUOUS
10
1.77207
20
-5.2869
11
1.77207
21
-5.3094
0
LINE
8
BLACK
6
CONTINUOUS
10
1.77207
20
-5.3094
11
1.76833
21
-5.3169
0
LINE
8
BLACK
6
CONTINUOUS
10
1.76833
20
-5.3169
11
1.76458
21
-5.32065
0
LINE
8
BLACK
6
CONTINUOUS
10
1.76458
20
-5.32065
11
1.75708
21
-5.3244
0
LINE
8
BLACK
6
CONTINUOUS
10
1.75708
20
-5.3244
11
1.74583
21
-5.3244
0
LINE
8
BLACK
6
CONTINUOUS
10
1.81707
20
-5.3244
11
1.80957
21
-5.32065
0
LINE
8
BLACK
6
CONTINUOUS
10
1.80957
20
-5.32065
11
1.80582
21
-5.31315
0
LINE
8
BLACK
6
CONTINUOUS
10
1.80582
20
-5.31315
11
1.80582
21
-5.24566
0
LINE
8
BLACK
6
CONTINUOUS
10
1.87706
20
-5.32065
11
1.86956
21
-5.3244
0
LINE
8
BLACK
6
CONTINUOUS
10
1.86956
20
-5.3244
11
1.85456
21
-5.3244
0
LINE
8
BLACK
6
CONTINUOUS
10
1.85456
20
-5.3244
11
1.84707
21
-5.32065
0
LINE
8
BLACK
6
CONTINUOUS
10
1.84707
20
-5.32065
11
1.84332
21
-5.31315
0
LINE
8
BLACK
6
CONTINUOUS
10
1.84332
20
-5.31315
11
1.84332
21
-5.28316
0
LINE
8
BLACK
6
CONTINUOUS
10
1.84332
20
-5.28316
11
1.84707
21
-5.27566
0
LINE
8
BLACK
6
CONTINUOUS
10
1.84707
20
-5.27566
11
1.85456
21
-5.27191
0
LINE
8
BLACK
6
CONTINUOUS
10
1.85456
20
-5.27191
11
1.86956
21
-5.27191
0
LINE
8
BLACK
6
CONTINUOUS
10
1.86956
20
-5.27191
11
1.87706
21
-5.27566
0
LINE
8
BLACK
6
CONTINUOUS
10
1.87706
20
-5.27566
11
1.88081
21
-5.28316
0
LINE
8
BLACK
6
CONTINUOUS
10
1.88081
20
-5.28316
11
1.88081
21
-5.29065
0
LINE
8
BLACK
6
CONTINUOUS
10
1.88081
20
-5.29065
11
1.84332
21
-5.29815
0
LINE
8
BLACK
6
CONTINUOUS
10
1.91081
20
-5.32065
11
1.91831
21
-5.3244
0
LINE
8
BLACK
6
CONTINUOUS
10
1.91831
20
-5.3244
11
1.9333
21
-5.3244
0
LINE
8
BLACK
6
CONTINUOUS
10
1.9333
20
-5.3244
11
1.9408
21
-5.32065
0
LINE
8
BLACK
6
CONTINUOUS
10
1.9408
20
-5.32065
11
1.94455
21
-5.31315
0
LINE
8
BLACK
6
CONTINUOUS
10
1.94455
20
-5.31315
11
1.94455
21
-5.3094
0
LINE
8
BLACK
6
CONTINUOUS
10
1.94455
20
-5.3094
11
1.9408
21
-5.3019
0
LINE
8
BLACK
6
CONTINUOUS
10
1.9408
20
-5.3019
11
1.9333
21
-5.29815
0
LINE
8
BLACK
6
CONTINUOUS
10
1.9333
20
-5.29815
11
1.92206
21
-5.29815
0
LINE
8
BLACK
6
CONTINUOUS
10
1.92206
20
-5.29815
11
1.91456
21
-5.2944
0
LINE
8
BLACK
6
CONTINUOUS
10
1.91456
20
-5.2944
11
1.91081
21
-5.2869
0
LINE
8
BLACK
6
CONTINUOUS
10
1.91081
20
-5.2869
11
1.91081
21
-5.28316
0
LINE
8
BLACK
6
CONTINUOUS
10
1.91081
20
-5.28316
11
1.91456
21
-5.27566
0
LINE
8
BLACK
6
CONTINUOUS
10
1.91456
20
-5.27566
11
1.92206
21
-5.27191
0
LINE
8
BLACK
6
CONTINUOUS
10
1.92206
20
-5.27191
11
1.9333
21
-5.27191
0
LINE
8
BLACK
6
CONTINUOUS
10
1.9333
20
-5.27191
11
1.9408
21
-5.27566
0
LINE
8
BLACK
6
CONTINUOUS
10
1.9708
20
-5.3544
11
1.97455
21
-5.35065
0
LINE
8
BLACK
6
CONTINUOUS
10
1.97455
20
-5.35065
11
1.98205
21
-5.3394
0
LINE
8
BLACK
6
CONTINUOUS
10
1.98205
20
-5.3394
11
1.9858
21
-5.3319
0
LINE
8
BLACK
6
CONTINUOUS
10
1.9858
20
-5.3319
11
1.98955
21
-5.32065
0
LINE
8
BLACK
6
CONTINUOUS
10
1.98955
20
-5.32065
11
1.9933
21
-5.3019
0
LINE
8
BLACK
6
CONTINUOUS
10
1.9933
20
-5.3019
11
1.9933
21
-5.2869
0
LINE
8
BLACK
6
CONTINUOUS
10
1.9933
20
-5.2869
11
1.98955
21
-5.26816
0
LINE
8
BLACK
6
CONTINUOUS
10
1.98955
20
-5.26816
11
1.9858
21
-5.25691
0
LINE
8
BLACK
6
CONTINUOUS
10
1.9858
20
-5.25691
11
1.98205
21
-5.24941
0
LINE
8
BLACK
6
CONTINUOUS
10
1.98205
20
-5.24941
11
1.97455
21
-5.23816
0
LINE
8
BLACK
6
CONTINUOUS
10
1.97455
20
-5.23816
11
1.9708
21
-5.23441
0
LINE
8
BLACK
6
CONTINUOUS
10
2.10053
20
-5.3544
11
2.09678
21
-5.35065
0
LINE
8
BLACK
6
CONTINUOUS
10
2.09678
20
-5.35065
11
2.08929
21
-5.3394
0
LINE
8
BLACK
6
CONTINUOUS
10
2.08929
20
-5.3394
11
2.08554
21
-5.3319
0
LINE
8
BLACK
6
CONTINUOUS
10
2.08554
20
-5.3319
11
2.08179
21
-5.32065
0
LINE
8
BLACK
6
CONTINUOUS
10
2.08179
20
-5.32065
11
2.07804
21
-5.3019
0
LINE
8
BLACK
6
CONTINUOUS
10
2.07804
20
-5.3019
11
2.07804
21
-5.2869
0
LINE
8
BLACK
6
CONTINUOUS
10
2.07804
20
-5.2869
11
2.08179
21
-5.26816
0
LINE
8
BLACK
6
CONTINUOUS
10
2.08179
20
-5.26816
11
2.08554
21
-5.25691
0
LINE
8
BLACK
6
CONTINUOUS
10
2.08554
20
-5.25691
11
2.08929
21
-5.24941
0
LINE
8
BLACK
6
CONTINUOUS
10
2.08929
20
-5.24941
11
2.09678
21
-5.23816
0
LINE
8
BLACK
6
CONTINUOUS
10
2.09678
20
-5.23816
11
2.10053
21
-5.23441
0
LINE
8
BLACK
6
CONTINUOUS
10
2.13053
20
-5.27191
11
2.13053
21
-5.3244
0
LINE
8
BLACK
6
CONTINUOUS
10
2.13053
20
-5.27941
11
2.13428
21
-5.27566
0
LINE
8
BLACK
6
CONTINUOUS
10
2.13428
20
-5.27566
11
2.14178
21
-5.27191
0
LINE
8
BLACK
6
CONTINUOUS
10
2.14178
20
-5.27191
11
2.15303
21
-5.27191
0
LINE
8
BLACK
6
CONTINUOUS
10
2.15303
20
-5.27191
11
2.16053
21
-5.27566
0
LINE
8
BLACK
6
CONTINUOUS
10
2.16053
20
-5.27566
11
2.16428
21
-5.28316
0
LINE
8
BLACK
6
CONTINUOUS
10
2.16428
20
-5.28316
11
2.16428
21
-5.3244
0
LINE
8
BLACK
6
CONTINUOUS
10
2.21302
20
-5.3244
11
2.20552
21
-5.32065
0
LINE
8
BLACK
6
CONTINUOUS
10
2.20552
20
-5.32065
11
2.20177
21
-5.3169
0
LINE
8
BLACK
6
CONTINUOUS
10
2.20177
20
-5.3169
11
2.19802
21
-5.3094
0
LINE
8
BLACK
6
CONTINUOUS
10
2.19802
20
-5.3094
11
2.19802
21
-5.2869
0
LINE
8
BLACK
6
CONTINUOUS
10
2.19802
20
-5.2869
11
2.20177
21
-5.27941
0
LINE
8
BLACK
6
CONTINUOUS
10
2.20177
20
-5.27941
11
2.20552
21
-5.27566
0
LINE
8
BLACK
6
CONTINUOUS
10
2.20552
20
-5.27566
11
2.21302
21
-5.27191
0
LINE
8
BLACK
6
CONTINUOUS
10
2.21302
20
-5.27191
11
2.22427
21
-5.27191
0
LINE
8
BLACK
6
CONTINUOUS
10
2.22427
20
-5.27191
11
2.23177
21
-5.27566
0
LINE
8
BLACK
6
CONTINUOUS
10
2.23177
20
-5.27566
11
2.23552
21
-5.27941
0
LINE
8
BLACK
6
CONTINUOUS
10
2.23552
20
-5.27941
11
2.23927
21
-5.2869
0
LINE
8
BLACK
6
CONTINUOUS
10
2.23927
20
-5.2869
11
2.23927
21
-5.3094
0
LINE
8
BLACK
6
CONTINUOUS
10
2.23927
20
-5.3094
11
2.23552
21
-5.3169
0
LINE
8
BLACK
6
CONTINUOUS
10
2.23552
20
-5.3169
11
2.23177
21
-5.32065
0
LINE
8
BLACK
6
CONTINUOUS
10
2.23177
20
-5.32065
11
2.22427
21
-5.3244
0
LINE
8
BLACK
6
CONTINUOUS
10
2.22427
20
-5.3244
11
2.21302
21
-5.3244
0
LINE
8
BLACK
6
CONTINUOUS
10
2.26176
20
-5.27191
11
2.29176
21
-5.27191
0
LINE
8
BLACK
6
CONTINUOUS
10
2.27301
20
-5.24566
11
2.27301
21
-5.31315
0
LINE
8
BLACK
6
CONTINUOUS
10
2.27301
20
-5.31315
11
2.27676
21
-5.32065
0
LINE
8
BLACK
6
CONTINUOUS
10
2.27676
20
-5.32065
11
2.28426
21
-5.3244
0
LINE
8
BLACK
6
CONTINUOUS
10
2.28426
20
-5.3244
11
2.29176
21
-5.3244
0
LINE
8
BLACK
6
CONTINUOUS
10
2.36525
20
-5.27191
11
2.36525
21
-5.35065
0
LINE
8
BLACK
6
CONTINUOUS
10
2.36525
20
-5.27566
11
2.37275
21
-5.27191
0
LINE
8
BLACK
6
CONTINUOUS
10
2.37275
20
-5.27191
11
2.38775
21
-5.27191
0
LINE
8
BLACK
6
CONTINUOUS
10
2.38775
20
-5.27191
11
2.39525
21
-5.27566
0
LINE
8
BLACK
6
CONTINUOUS
10
2.39525
20
-5.27566
11
2.399
21
-5.27941
0
LINE
8
BLACK
6
CONTINUOUS
10
2.399
20
-5.27941
11
2.40275
21
-5.2869
0
LINE
8
BLACK
6
CONTINUOUS
10
2.40275
20
-5.2869
11
2.40275
21
-5.3094
0
LINE
8
BLACK
6
CONTINUOUS
10
2.40275
20
-5.3094
11
2.399
21
-5.3169
0
LINE
8
BLACK
6
CONTINUOUS
10
2.399
20
-5.3169
11
2.39525
21
-5.32065
0
LINE
8
BLACK
6
CONTINUOUS
10
2.39525
20
-5.32065
11
2.38775
21
-5.3244
0
LINE
8
BLACK
6
CONTINUOUS
10
2.38775
20
-5.3244
11
2.37275
21
-5.3244
0
LINE
8
BLACK
6
CONTINUOUS
10
2.37275
20
-5.3244
11
2.36525
21
-5.32065
0
LINE
8
BLACK
6
CONTINUOUS
10
2.44774
20
-5.3244
11
2.44024
21
-5.32065
0
LINE
8
BLACK
6
CONTINUOUS
10
2.44024
20
-5.32065
11
2.43649
21
-5.31315
0
LINE
8
BLACK
6
CONTINUOUS
10
2.43649
20
-5.31315
11
2.43649
21
-5.24566
0
LINE
8
BLACK
6
CONTINUOUS
10
2.51148
20
-5.3244
11
2.51148
21
-5.28316
0
LINE
8
BLACK
6
CONTINUOUS
10
2.51148
20
-5.28316
11
2.50773
21
-5.27566
0
LINE
8
BLACK
6
CONTINUOUS
10
2.50773
20
-5.27566
11
2.50023
21
-5.27191
0
LINE
8
BLACK
6
CONTINUOUS
10
2.50023
20
-5.27191
11
2.48524
21
-5.27191
0
LINE
8
BLACK
6
CONTINUOUS
10
2.48524
20
-5.27191
11
2.47774
21
-5.27566
0
LINE
8
BLACK
6
CONTINUOUS
10
2.51148
20
-5.32065
11
2.50398
21
-5.3244
0
LINE
8
BLACK
6
CONTINUOUS
10
2.50398
20
-5.3244
11
2.48524
21
-5.3244
0
LINE
8
BLACK
6
CONTINUOUS
10
2.48524
20
-5.3244
11
2.47774
21
-5.32065
0
LINE
8
BLACK
6
CONTINUOUS
10
2.47774
20
-5.32065
11
2.47399
21
-5.31315
0
LINE
8
BLACK
6
CONTINUOUS
10
2.47399
20
-5.31315
11
2.47399
21
-5.30565
0
LINE
8
BLACK
6
CONTINUOUS
10
2.47399
20
-5.30565
11
2.47774
21
-5.29815
0
LINE
8
BLACK
6
CONTINUOUS
10
2.47774
20
-5.29815
11
2.48524
21
-5.2944
0
LINE
8
BLACK
6
CONTINUOUS
10
2.48524
20
-5.2944
11
2.50398
21
-5.2944
0
LINE
8
BLACK
6
CONTINUOUS
10
2.50398
20
-5.2944
11
2.51148
21
-5.29065
0
LINE
8
BLACK
6
CONTINUOUS
10
2.53773
20
-5.27191
11
2.56773
21
-5.27191
0
LINE
8
BLACK
6
CONTINUOUS
10
2.54898
20
-5.24566
11
2.54898
21
-5.31315
0
LINE
8
BLACK
6
CONTINUOUS
10
2.54898
20
-5.31315
11
2.55273
21
-5.32065
0
LINE
8
BLACK
6
CONTINUOUS
10
2.55273
20
-5.32065
11
2.56023
21
-5.3244
0
LINE
8
BLACK
6
CONTINUOUS
10
2.56023
20
-5.3244
11
2.56773
21
-5.3244
0
LINE
8
BLACK
6
CONTINUOUS
10
2.62397
20
-5.32065
11
2.61647
21
-5.3244
0
LINE
8
BLACK
6
CONTINUOUS
10
2.61647
20
-5.3244
11
2.60147
21
-5.3244
0
LINE
8
BLACK
6
CONTINUOUS
10
2.60147
20
-5.3244
11
2.59397
21
-5.32065
0
LINE
8
BLACK
6
CONTINUOUS
10
2.59397
20
-5.32065
11
2.59022
21
-5.31315
0
LINE
8
BLACK
6
CONTINUOUS
10
2.59022
20
-5.31315
11
2.59022
21
-5.28316
0
LINE
8
BLACK
6
CONTINUOUS
10
2.59022
20
-5.28316
11
2.59397
21
-5.27566
0
LINE
8
BLACK
6
CONTINUOUS
10
2.59397
20
-5.27566
11
2.60147
21
-5.27191
0
LINE
8
BLACK
6
CONTINUOUS
10
2.60147
20
-5.27191
11
2.61647
21
-5.27191
0
LINE
8
BLACK
6
CONTINUOUS
10
2.61647
20
-5.27191
11
2.62397
21
-5.27566
0
LINE
8
BLACK
6
CONTINUOUS
10
2.62397
20
-5.27566
11
2.62772
21
-5.28316
0
LINE
8
BLACK
6
CONTINUOUS
10
2.62772
20
-5.28316
11
2.62772
21
-5.29065
0
LINE
8
BLACK
6
CONTINUOUS
10
2.62772
20
-5.29065
11
2.59022
21
-5.29815
0
LINE
8
BLACK
6
CONTINUOUS
10
2.69521
20
-5.3244
11
2.69521
21
-5.24566
0
LINE
8
BLACK
6
CONTINUOUS
10
2.69521
20
-5.32065
11
2.68771
21
-5.3244
0
LINE
8
BLACK
6
CONTINUOUS
10
2.68771
20
-5.3244
11
2.67271
21
-5.3244
0
LINE
8
BLACK
6
CONTINUOUS
10
2.67271
20
-5.3244
11
2.66521
21
-5.32065
0
LINE
8
BLACK
6
CONTINUOUS
10
2.66521
20
-5.32065
11
2.66146
21
-5.3169
0
LINE
8
BLACK
6
CONTINUOUS
10
2.66146
20
-5.3169
11
2.65771
21
-5.3094
0
LINE
8
BLACK
6
CONTINUOUS
10
2.65771
20
-5.3094
11
2.65771
21
-5.2869
0
LINE
8
BLACK
6
CONTINUOUS
10
2.65771
20
-5.2869
11
2.66146
21
-5.27941
0
LINE
8
BLACK
6
CONTINUOUS
10
2.66146
20
-5.27941
11
2.66521
21
-5.27566
0
LINE
8
BLACK
6
CONTINUOUS
10
2.66521
20
-5.27566
11
2.67271
21
-5.27191
0
LINE
8
BLACK
6
CONTINUOUS
10
2.67271
20
-5.27191
11
2.68771
21
-5.27191
0
LINE
8
BLACK
6
CONTINUOUS
10
2.68771
20
-5.27191
11
2.69521
21
-5.27566
0
LINE
8
BLACK
6
CONTINUOUS
10
2.72521
20
-5.3544
11
2.72896
21
-5.35065
0
LINE
8
BLACK
6
CONTINUOUS
10
2.72896
20
-5.35065
11
2.73645
21
-5.3394
0
LINE
8
BLACK
6
CONTINUOUS
10
2.73645
20
-5.3394
11
2.7402
21
-5.3319
0
LINE
8
BLACK
6
CONTINUOUS
10
2.7402
20
-5.3319
11
2.74395
21
-5.32065
0
LINE
8
BLACK
6
CONTINUOUS
10
2.74395
20
-5.32065
11
2.7477
21
-5.3019
0
LINE
8
BLACK
6
CONTINUOUS
10
2.7477
20
-5.3019
11
2.7477
21
-5.2869
0
LINE
8
BLACK
6
CONTINUOUS
10
2.7477
20
-5.2869
11
2.74395
21
-5.26816
0
LINE
8
BLACK
6
CONTINUOUS
10
2.74395
20
-5.26816
11
2.7402
21
-5.25691
0
LINE
8
BLACK
6
CONTINUOUS
10
2.7402
20
-5.25691
11
2.73645
21
-5.24941
0
LINE
8
BLACK
6
CONTINUOUS
10
2.73645
20
-5.24941
11
2.72896
21
-5.23816
0
LINE
8
BLACK
6
CONTINUOUS
10
2.72896
20
-5.23816
11
2.72521
21
-5.23441
0
CIRCLE
8
BLACK
10
-0.0423235
20
-5.41161
40
0.0393701
0
LINE
8
BLACK
6
CONTINUOUS
10
0.0870354
20
-5.3618
11
0.135779
21
-5.3618
0
LINE
8
BLACK
6
CONTINUOUS
10
0.135779
20
-5.3618
11
0.109533
21
-5.3918
0
LINE
8
BLACK
6
CONTINUOUS
10
0.109533
20
-5.3918
11
0.120781
21
-5.3918
0
LINE
8
BLACK
6
CONTINUOUS
10
0.120781
20
-5.3918
11
0.12828
21
-5.39555
0
LINE
8
BLACK
6
CONTINUOUS
10
0.12828
20
-5.39555
11
0.13203
21
-5.3993
0
LINE
8
BLACK
6
CONTINUOUS
10
0.13203
20
-5.3993
11
0.135779
21
-5.4068
0
LINE
8
BLACK
6
CONTINUOUS
10
0.135779
20
-5.4068
11
0.135779
21
-5.42554
0
LINE
8
BLACK
6
CONTINUOUS
10
0.135779
20
-5.42554
11
0.13203
21
-5.43304
0
LINE
8
BLACK
6
CONTINUOUS
10
0.13203
20
-5.43304
11
0.12828
21
-5.43679
0
LINE
8
BLACK
6
CONTINUOUS
10
0.12828
20
-5.43679
11
0.120781
21
-5.44054
0
LINE
8
BLACK
6
CONTINUOUS
10
0.120781
20
-5.44054
11
0.0982839
21
-5.44054
0
LINE
8
BLACK
6
CONTINUOUS
10
0.0982839
20
-5.44054
11
0.0907849
21
-5.43679
0
LINE
8
BLACK
6
CONTINUOUS
10
0.0907849
20
-5.43679
11
0.0870354
21
-5.43304
0
LINE
8
BLACK
6
CONTINUOUS
10
0.169525
20
-5.43304
11
0.173275
21
-5.43679
0
LINE
8
BLACK
6
CONTINUOUS
10
0.173275
20
-5.43679
11
0.169525
21
-5.44054
0
LINE
8
BLACK
6
CONTINUOUS
10
0.169525
20
-5.44054
11
0.165776
21
-5.43679
0
LINE
8
BLACK
6
CONTINUOUS
10
0.165776
20
-5.43679
11
0.169525
21
-5.43304
0
LINE
8
BLACK
6
CONTINUOUS
10
0.169525
20
-5.43304
11
0.169525
21
-5.44054
0
LINE
8
BLACK
6
CONTINUOUS
10
0.21077
20
-5.44054
11
0.225768
21
-5.44054
0
LINE
8
BLACK
6
CONTINUOUS
10
0.225768
20
-5.44054
11
0.233267
21
-5.43679
0
LINE
8
BLACK
6
CONTINUOUS
10
0.233267
20
-5.43679
11
0.237017
21
-5.43304
0
LINE
8
BLACK
6
CONTINUOUS
10
0.237017
20
-5.43304
11
0.244516
21
-5.42179
0
LINE
8
BLACK
6
CONTINUOUS
10
0.244516
20
-5.42179
11
0.248265
21
-5.4068
0
LINE
8
BLACK
6
CONTINUOUS
10
0.248265
20
-5.4068
11
0.248265
21
-5.3768
0
LINE
8
BLACK
6
CONTINUOUS
10
0.248265
20
-5.3768
11
0.244516
21
-5.3693
0
LINE
8
BLACK
6
CONTINUOUS
10
0.244516
20
-5.3693
11
0.240766
21
-5.36555
0
LINE
8
BLACK
6
CONTINUOUS
10
0.240766
20
-5.36555
11
0.233267
21
-5.3618
0
LINE
8
BLACK
6
CONTINUOUS
10
0.233267
20
-5.3618
11
0.218269
21
-5.3618
0
LINE
8
BLACK
6
CONTINUOUS
10
0.218269
20
-5.3618
11
0.21077
21
-5.36555
0
LINE
8
BLACK
6
CONTINUOUS
10
0.21077
20
-5.36555
11
0.20702
21
-5.3693
0
LINE
8
BLACK
6
CONTINUOUS
10
0.20702
20
-5.3693
11
0.203271
21
-5.3768
0
LINE
8
BLACK
6
CONTINUOUS
10
0.203271
20
-5.3768
11
0.203271
21
-5.39555
0
LINE
8
BLACK
6
CONTINUOUS
10
0.203271
20
-5.39555
11
0.20702
21
-5.40305
0
LINE
8
BLACK
6
CONTINUOUS
10
0.20702
20
-5.40305
11
0.21077
21
-5.4068
0
LINE
8
BLACK
6
CONTINUOUS
10
0.21077
20
-5.4068
11
0.218269
21
-5.41055
0
LINE
8
BLACK
6
CONTINUOUS
10
0.218269
20
-5.41055
11
0.233267
21
-5.41055
0
LINE
8
BLACK
6
CONTINUOUS
10
0.233267
20
-5.41055
11
0.240766
21
-5.4068
0
LINE
8
BLACK
6
CONTINUOUS
10
0.240766
20
-5.4068
11
0.244516
21
-5.40305
0
LINE
8
BLACK
6
CONTINUOUS
10
0.244516
20
-5.40305
11
0.248265
21
-5.39555
0
LINE
8
BLACK
6
CONTINUOUS
10
0.29326
20
-5.39555
11
0.285761
21
-5.3918
0
LINE
8
BLACK
6
CONTINUOUS
10
0.285761
20
-5.3918
11
0.282011
21
-5.38805
0
LINE
8
BLACK
6
CONTINUOUS
10
0.282011
20
-5.38805
11
0.278261
21
-5.38055
0
LINE
8
BLACK
6
CONTINUOUS
10
0.278261
20
-5.38055
11
0.278261
21
-5.3768
0
LINE
8
BLACK
6
CONTINUOUS
10
0.278261
20
-5.3768
11
0.282011
21
-5.3693
0
LINE
8
BLACK
6
CONTINUOUS
10
0.282011
20
-5.3693
11
0.285761
21
-5.36555
0
LINE
8
BLACK
6
CONTINUOUS
10
0.285761
20
-5.36555
11
0.29326
21
-5.3618
0
LINE
8
BLACK
6
CONTINUOUS
10
0.29326
20
-5.3618
11
0.308258
21
-5.3618
0
LINE
8
BLACK
6
CONTINUOUS
10
0.308258
20
-5.3618
11
0.315757
21
-5.36555
0
LINE
8
BLACK
6
CONTINUOUS
10
0.315757
20
-5.36555
11
0.319506
21
-5.3693
0
LINE
8
BLACK
6
CONTINUOUS
10
0.319506
20
-5.3693
11
0.323256
21
-5.3768
0
LINE
8
BLACK
6
CONTINUOUS
10
0.323256
20
-5.3768
11
0.323256
21
-5.38055
0
LINE
8
BLACK
6
CONTINUOUS
10
0.323256
20
-5.38055
11
0.319506
21
-5.38805
0
LINE
8
BLACK
6
CONTINUOUS
10
0.319506
20
-5.38805
11
0.315757
21
-5.3918
0
LINE
8
BLACK
6
CONTINUOUS
10
0.315757
20
-5.3918
11
0.308258
21
-5.39555
0
LINE
8
BLACK
6
CONTINUOUS
10
0.308258
20
-5.39555
11
0.29326
21
-5.39555
0
LINE
8
BLACK
6
CONTINUOUS
10
0.29326
20
-5.39555
11
0.285761
21
-5.3993
0
LINE
8
BLACK
6
CONTINUOUS
10
0.285761
20
-5.3993
11
0.282011
21
-5.40305
0
LINE
8
BLACK
6
CONTINUOUS
10
0.282011
20
-5.40305
11
0.278261
21
-5.41055
0
LINE
8
BLACK
6
CONTINUOUS
10
0.278261
20
-5.41055
11
0.278261
21
-5.42554
0
LINE
8
BLACK
6
CONTINUOUS
10
0.278261
20
-5.42554
11
0.282011
21
-5.43304
0
LINE
8
BLACK
6
CONTINUOUS
10
0.282011
20
-5.43304
11
0.285761
21
-5.43679
0
LINE
8
BLACK
6
CONTINUOUS
10
0.285761
20
-5.43679
11
0.29326
21
-5.44054
0
LINE
8
BLACK
6
CONTINUOUS
10
0.29326
20
-5.44054
11
0.308258
21
-5.44054
0
LINE
8
BLACK
6
CONTINUOUS
10
0.308258
20
-5.44054
11
0.315757
21
-5.43679
0
LINE
8
BLACK
6
CONTINUOUS
10
0.315757
20
-5.43679
11
0.319506
21
-5.43304
0
LINE
8
BLACK
6
CONTINUOUS
10
0.319506
20
-5.43304
11
0.323256
21
-5.42554
0
LINE
8
BLACK
6
CONTINUOUS
10
0.323256
20
-5.42554
11
0.323256
21
-5.41055
0
LINE
8
BLACK
6
CONTINUOUS
10
0.323256
20
-5.41055
11
0.319506
21
-5.40305
0
LINE
8
BLACK
6
CONTINUOUS
10
0.319506
20
-5.40305
11
0.315757
21
-5.3993
0
LINE
8
BLACK
6
CONTINUOUS
10
0.315757
20
-5.3993
11
0.308258
21
-5.39555
0
LINE
8
BLACK
6
CONTINUOUS
10
0.36825
20
-5.39555
11
0.360751
21
-5.3918
0
LINE
8
BLACK
6
CONTINUOUS
10
0.360751
20
-5.3918
11
0.357002
21
-5.38805
0
LINE
8
BLACK
6
CONTINUOUS
10
0.357002
20
-5.38805
11
0.353252
21
-5.38055
0
LINE
8
BLACK
6
CONTINUOUS
10
0.353252
20
-5.38055
11
0.353252
21
-5.3768
0
LINE
8
BLACK
6
CONTINUOUS
10
0.353252
20
-5.3768
11
0.357002
21
-5.3693
0
LINE
8
BLACK
6
CONTINUOUS
10
0.357002
20
-5.3693
11
0.360751
21
-5.36555
0
LINE
8
BLACK
6
CONTINUOUS
10
0.360751
20
-5.36555
11
0.36825
21
-5.3618
0
LINE
8
BLACK
6
CONTINUOUS
10
0.36825
20
-5.3618
11
0.383248
21
-5.3618
0
LINE
8
BLACK
6
CONTINUOUS
10
0.383248
20
-5.3618
11
0.390747
21
-5.36555
0
LINE
8
BLACK
6
CONTINUOUS
10
0.390747
20
-5.36555
11
0.394497
21
-5.3693
0
LINE
8
BLACK
6
CONTINUOUS
10
0.394497
20
-5.3693
11
0.398246
21
-5.3768
0
LINE
8
BLACK
6
CONTINUOUS
10
0.398246
20
-5.3768
11
0.398246
21
-5.38055
0
LINE
8
BLACK
6
CONTINUOUS
10
0.398246
20
-5.38055
11
0.394497
21
-5.38805
0
LINE
8
BLACK
6
CONTINUOUS
10
0.394497
20
-5.38805
11
0.390747
21
-5.3918
0
LINE
8
BLACK
6
CONTINUOUS
10
0.390747
20
-5.3918
11
0.383248
21
-5.39555
0
LINE
8
BLACK
6
CONTINUOUS
10
0.383248
20
-5.39555
11
0.36825
21
-5.39555
0
LINE
8
BLACK
6
CONTINUOUS
10
0.36825
20
-5.39555
11
0.360751
21
-5.3993
0
LINE
8
BLACK
6
CONTINUOUS
10
0.360751
20
-5.3993
11
0.357002
21
-5.40305
0
LINE
8
BLACK
6
CONTINUOUS
10
0.357002
20
-5.40305
11
0.353252
21
-5.41055
0
LINE
8
BLACK
6
CONTINUOUS
10
0.353252
20
-5.41055
11
0.353252
21
-5.42554
0
LINE
8
BLACK
6
CONTINUOUS
10
0.353252
20
-5.42554
11
0.357002
21
-5.43304
0
LINE
8
BLACK
6
CONTINUOUS
10
0.357002
20
-5.43304
11
0.360751
21
-5.43679
0
LINE
8
BLACK
6
CONTINUOUS
10
0.360751
20
-5.43679
11
0.36825
21
-5.44054
0
LINE
8
BLACK
6
CONTINUOUS
10
0.36825
20
-5.44054
11
0.383248
21
-5.44054
0
LINE
8
BLACK
6
CONTINUOUS
10
0.383248
20
-5.44054
11
0.390747
21
-5.43679
0
LINE
8
BLACK
6
CONTINUOUS
10
0.390747
20
-5.43679
11
0.394497
21
-5.43304
0
LINE
8
BLACK
6
CONTINUOUS
10
0.394497
20
-5.43304
11
0.398246
21
-5.42554
0
LINE
8
BLACK
6
CONTINUOUS
10
0.398246
20
-5.42554
11
0.398246
21
-5.41055
0
LINE
8
BLACK
6
CONTINUOUS
10
0.398246
20
-5.41055
11
0.394497
21
-5.40305
0
LINE
8
BLACK
6
CONTINUOUS
10
0.394497
20
-5.40305
11
0.390747
21
-5.3993
0
LINE
8
BLACK
6
CONTINUOUS
10
0.390747
20
-5.3993
11
0.383248
21
-5.39555
0
LINE
8
BLACK
6
CONTINUOUS
10
0.431992
20
-5.44054
11
0.431992
21
-5.38805
0
LINE
8
BLACK
6
CONTINUOUS
10
0.431992
20
-5.39555
11
0.435742
21
-5.3918
0
LINE
8
BLACK
6
CONTINUOUS
10
0.435742
20
-5.3918
11
0.443241
21
-5.38805
0
LINE
8
BLACK
6
CONTINUOUS
10
0.443241
20
-5.38805
11
0.454489
21
-5.38805
0
LINE
8
BLACK
6
CONTINUOUS
10
0.454489
20
-5.38805
11
0.461989
21
-5.3918
0
LINE
8
BLACK
6
CONTINUOUS
10
0.461989
20
-5.3918
11
0.465738
21
-5.3993
0
LINE
8
BLACK
6
CONTINUOUS
10
0.465738
20
-5.3993
11
0.465738
21
-5.44054
0
LINE
8
BLACK
6
CONTINUOUS
10
0.465738
20
-5.3993
11
0.469488
21
-5.3918
0
LINE
8
BLACK
6
CONTINUOUS
10
0.469488
20
-5.3918
11
0.476987
21
-5.38805
0
LINE
8
BLACK
6
CONTINUOUS
10
0.476987
20
-5.38805
11
0.488235
21
-5.38805
0
LINE
8
BLACK
6
CONTINUOUS
10
0.488235
20
-5.38805
11
0.495734
21
-5.3918
0
LINE
8
BLACK
6
CONTINUOUS
10
0.495734
20
-5.3918
11
0.499484
21
-5.3993
0
LINE
8
BLACK
6
CONTINUOUS
10
0.499484
20
-5.3993
11
0.499484
21
-5.44054
0
LINE
8
BLACK
6
CONTINUOUS
10
0.536979
20
-5.44054
11
0.536979
21
-5.38805
0
LINE
8
BLACK
6
CONTINUOUS
10
0.536979
20
-5.39555
11
0.540729
21
-5.3918
0
LINE
8
BLACK
6
CONTINUOUS
10
0.540729
20
-5.3918
11
0.548228
21
-5.38805
0
LINE
8
BLACK
6
CONTINUOUS
10
0.548228
20
-5.38805
11
0.559476
21
-5.38805
0
LINE
8
BLACK
6
CONTINUOUS
10
0.559476
20
-5.38805
11
0.566975
21
-5.3918
0
LINE
8
BLACK
6
CONTINUOUS
10
0.566975
20
-5.3918
11
0.570725
21
-5.3993
0
LINE
8
BLACK
6
CONTINUOUS
10
0.570725
20
-5.3993
11
0.570725
21
-5.44054
0
LINE
8
BLACK
6
CONTINUOUS
10
0.570725
20
-5.3993
11
0.574474
21
-5.3918
0
LINE
8
BLACK
6
CONTINUOUS
10
0.574474
20
-5.3918
11
0.581974
21
-5.38805
0
LINE
8
BLACK
6
CONTINUOUS
10
0.581974
20
-5.38805
11
0.593222
21
-5.38805
0
LINE
8
BLACK
6
CONTINUOUS
10
0.593222
20
-5.38805
11
0.600721
21
-5.3918
0
LINE
8
BLACK
6
CONTINUOUS
10
0.600721
20
-5.3918
11
0.604471
21
-5.3993
0
LINE
8
BLACK
6
CONTINUOUS
10
0.604471
20
-5.3993
11
0.604471
21
-5.44054
0
LINE
8
BLACK
6
CONTINUOUS
10
0.745453
20
-5.35805
11
0.677962
21
-5.45929
0
LINE
8
BLACK
6
CONTINUOUS
10
0.833942
20
-5.3618
11
0.841441
21
-5.3618
0
LINE
8
BLACK
6
CONTINUOUS
10
0.841441
20
-5.3618
11
0.84894
21
-5.36555
0
LINE
8
BLACK
6
CONTINUOUS
10
0.84894
20
-5.36555
11
0.85269
21
-5.3693
0
LINE
8
BLACK
6
CONTINUOUS
10
0.85269
20
-5.3693
11
0.856439
21
-5.3768
0
LINE
8
BLACK
6
CONTINUOUS
10
0.856439
20
-5.3768
11
0.860189
21
-5.3918
0
LINE
8
BLACK
6
CONTINUOUS
10
0.860189
20
-5.3918
11
0.860189
21
-5.41055
0
LINE
8
BLACK
6
CONTINUOUS
10
0.860189
20
-5.41055
11
0.856439
21
-5.42554
0
LINE
8
BLACK
6
CONTINUOUS
10
0.856439
20
-5.42554
11
0.85269
21
-5.43304
0
LINE
8
BLACK
6
CONTINUOUS
10
0.85269
20
-5.43304
11
0.84894
21
-5.43679
0
LINE
8
BLACK
6
CONTINUOUS
10
0.84894
20
-5.43679
11
0.841441
21
-5.44054
0
LINE
8
BLACK
6
CONTINUOUS
10
0.841441
20
-5.44054
11
0.833942
21
-5.44054
0
LINE
8
BLACK
6
CONTINUOUS
10
0.833942
20
-5.44054
11
0.826443
21
-5.43679
0
LINE
8
BLACK
6
CONTINUOUS
10
0.826443
20
-5.43679
11
0.822693
21
-5.43304
0
LINE
8
BLACK
6
CONTINUOUS
10
0.822693
20
-5.43304
11
0.818944
21
-5.42554
0
LINE
8
BLACK
6
CONTINUOUS
10
0.818944
20
-5.42554
11
0.815194
21
-5.41055
0
LINE
8
BLACK
6
CONTINUOUS
10
0.815194
20
-5.41055
11
0.815194
21
-5.3918
0
LINE
8
BLACK
6
CONTINUOUS
10
0.815194
20
-5.3918
11
0.818944
21
-5.3768
0
LINE
8
BLACK
6
CONTINUOUS
10
0.818944
20
-5.3768
11
0.822693
21
-5.3693
0
LINE
8
BLACK
6
CONTINUOUS
10
0.822693
20
-5.3693
11
0.826443
21
-5.36555
0
LINE
8
BLACK
6
CONTINUOUS
10
0.826443
20
-5.36555
11
0.833942
21
-5.3618
0
LINE
8
BLACK
6
CONTINUOUS
10
0.893935
20
-5.43304
11
0.897684
21
-5.43679
0
LINE
8
BLACK
6
CONTINUOUS
10
0.897684
20
-5.43679
11
0.893935
21
-5.44054
0
LINE
8
BLACK
6
CONTINUOUS
10
0.893935
20
-5.44054
11
0.890185
21
-5.43679
0
LINE
8
BLACK
6
CONTINUOUS
10
0.890185
20
-5.43679
11
0.893935
21
-5.43304
0
LINE
8
BLACK
6
CONTINUOUS
10
0.893935
20
-5.43304
11
0.893935
21
-5.44054
0
LINE
8
BLACK
6
CONTINUOUS
10
0.972675
20
-5.44054
11
0.92768
21
-5.44054
0
LINE
8
BLACK
6
CONTINUOUS
10
0.950177
20
-5.44054
11
0.950177
21
-5.3618
0
LINE
8
BLACK
6
CONTINUOUS
10
0.950177
20
-5.3618
11
0.942678
21
-5.37305
0
LINE
8
BLACK
6
CONTINUOUS
10
0.942678
20
-5.37305
11
0.935179
21
-5.38055
0
LINE
8
BLACK
6
CONTINUOUS
10
0.935179
20
-5.38055
11
0.92768
21
-5.3843
0
LINE
8
BLACK
6
CONTINUOUS
10
1.04392
20
-5.3618
11
1.00642
21
-5.3618
0
LINE
8
BLACK
6
CONTINUOUS
10
1.00642
20
-5.3618
11
1.00267
21
-5.3993
0
LINE
8
BLACK
6
CONTINUOUS
10
1.00267
20
-5.3993
11
1.00642
21
-5.39555
0
LINE
8
BLACK
6
CONTINUOUS
10
1.00642
20
-5.39555
11
1.01392
21
-5.3918
0
LINE
8
BLACK
6
CONTINUOUS
10
1.01392
20
-5.3918
11
1.03267
21
-5.3918
0
LINE
8
BLACK
6
CONTINUOUS
10
1.03267
20
-5.3918
11
1.04017
21
-5.39555
0
LINE
8
BLACK
6
CONTINUOUS
10
1.04017
20
-5.39555
11
1.04392
21
-5.3993
0
LINE
8
BLACK
6
CONTINUOUS
10
1.04392
20
-5.3993
11
1.04767
21
-5.4068
0
LINE
8
BLACK
6
CONTINUOUS
10
1.04767
20
-5.4068
11
1.04767
21
-5.42554
0
LINE
8
BLACK
6
CONTINUOUS
10
1.04767
20
-5.42554
11
1.04392
21
-5.43304
0
LINE
8
BLACK
6
CONTINUOUS
10
1.04392
20
-5.43304
11
1.04017
21
-5.43679
0
LINE
8
BLACK
6
CONTINUOUS
10
1.04017
20
-5.43679
11
1.03267
21
-5.44054
0
LINE
8
BLACK
6
CONTINUOUS
10
1.03267
20
-5.44054
11
1.01392
21
-5.44054
0
LINE
8
BLACK
6
CONTINUOUS
10
1.01392
20
-5.44054
11
1.00642
21
-5.43679
0
LINE
8
BLACK
6
CONTINUOUS
10
1.00642
20
-5.43679
11
1.00267
21
-5.43304
0
LINE
8
BLACK
6
CONTINUOUS
10
1.07391
20
-5.3618
11
1.12641
21
-5.3618
0
LINE
8
BLACK
6
CONTINUOUS
10
1.12641
20
-5.3618
11
1.09266
21
-5.44054
0
LINE
8
BLACK
6
CONTINUOUS
10
1.1714
20
-5.3618
11
1.1789
21
-5.3618
0
LINE
8
BLACK
6
CONTINUOUS
10
1.1789
20
-5.3618
11
1.1864
21
-5.36555
0
LINE
8
BLACK
6
CONTINUOUS
10
1.1864
20
-5.36555
11
1.19015
21
-5.3693
0
LINE
8
BLACK
6
CONTINUOUS
10
1.19015
20
-5.3693
11
1.1939
21
-5.3768
0
LINE
8
BLACK
6
CONTINUOUS
10
1.1939
20
-5.3768
11
1.19765
21
-5.3918
0
LINE
8
BLACK
6
CONTINUOUS
10
1.19765
20
-5.3918
11
1.19765
21
-5.41055
0
LINE
8
BLACK
6
CONTINUOUS
10
1.19765
20
-5.41055
11
1.1939
21
-5.42554
0
LINE
8
BLACK
6
CONTINUOUS
10
1.1939
20
-5.42554
11
1.19015
21
-5.43304
0
LINE
8
BLACK
6
CONTINUOUS
10
1.19015
20
-5.43304
11
1.1864
21
-5.43679
0
LINE
8
BLACK
6
CONTINUOUS
10
1.1864
20
-5.43679
11
1.1789
21
-5.44054
0
LINE
8
BLACK
6
CONTINUOUS
10
1.1789
20
-5.44054
11
1.1714
21
-5.44054
0
LINE
8
BLACK
6
CONTINUOUS
10
1.1714
20
-5.44054
11
1.1639
21
-5.43679
0
LINE
8
BLACK
6
CONTINUOUS
10
1.1639
20
-5.43679
11
1.16015
21
-5.43304
0
LINE
8
BLACK
6
CONTINUOUS
10
1.16015
20
-5.43304
11
1.1564
21
-5.42554
0
LINE
8
BLACK
6
CONTINUOUS
10
1.1564
20
-5.42554
11
1.15265
21
-5.41055
0
LINE
8
BLACK
6
CONTINUOUS
10
1.15265
20
-5.41055
11
1.15265
21
-5.3918
0
LINE
8
BLACK
6
CONTINUOUS
10
1.15265
20
-5.3918
11
1.1564
21
-5.3768
0
LINE
8
BLACK
6
CONTINUOUS
10
1.1564
20
-5.3768
11
1.16015
21
-5.3693
0
LINE
8
BLACK
6
CONTINUOUS
10
1.16015
20
-5.3693
11
1.1639
21
-5.36555
0
LINE
8
BLACK
6
CONTINUOUS
10
1.1639
20
-5.36555
11
1.1714
21
-5.3618
0
LINE
8
BLACK
6
CONTINUOUS
10
1.22764
20
-5.3618
11
1.22764
21
-5.3768
0
LINE
8
BLACK
6
CONTINUOUS
10
1.25764
20
-5.3618
11
1.25764
21
-5.3768
0
LINE
8
BLACK
6
CONTINUOUS
10
1.36113
20
-5.47054
11
1.35738
21
-5.46679
0
LINE
8
BLACK
6
CONTINUOUS
10
1.35738
20
-5.46679
11
1.34988
21
-5.45554
0
LINE
8
BLACK
6
CONTINUOUS
10
1.34988
20
-5.45554
11
1.34613
21
-5.44804
0
LINE
8
BLACK
6
CONTINUOUS
10
1.34613
20
-5.44804
11
1.34238
21
-5.43679
0
LINE
8
BLACK
6
CONTINUOUS
10
1.34238
20
-5.43679
11
1.33863
21
-5.41804
0
LINE
8
BLACK
6
CONTINUOUS
10
1.33863
20
-5.41804
11
1.33863
21
-5.40305
0
LINE
8
BLACK
6
CONTINUOUS
10
1.33863
20
-5.40305
11
1.34238
21
-5.3843
0
LINE
8
BLACK
6
CONTINUOUS
10
1.34238
20
-5.3843
11
1.34613
21
-5.37305
0
LINE
8
BLACK
6
CONTINUOUS
10
1.34613
20
-5.37305
11
1.34988
21
-5.36555
0
LINE
8
BLACK
6
CONTINUOUS
10
1.34988
20
-5.36555
11
1.35738
21
-5.3543
0
LINE
8
BLACK
6
CONTINUOUS
10
1.35738
20
-5.3543
11
1.36113
21
-5.35055
0
LINE
8
BLACK
6
CONTINUOUS
10
1.39487
20
-5.44054
11
1.40987
21
-5.44054
0
LINE
8
BLACK
6
CONTINUOUS
10
1.40987
20
-5.44054
11
1.41737
21
-5.43679
0
LINE
8
BLACK
6
CONTINUOUS
10
1.41737
20
-5.43679
11
1.42112
21
-5.43304
0
LINE
8
BLACK
6
CONTINUOUS
10
1.42112
20
-5.43304
11
1.42862
21
-5.42179
0
LINE
8
BLACK
6
CONTINUOUS
10
1.42862
20
-5.42179
11
1.43237
21
-5.4068
0
LINE
8
BLACK
6
CONTINUOUS
10
1.43237
20
-5.4068
11
1.43237
21
-5.3768
0
LINE
8
BLACK
6
CONTINUOUS
10
1.43237
20
-5.3768
11
1.42862
21
-5.3693
0
LINE
8
BLACK
6
CONTINUOUS
10
1.42862
20
-5.3693
11
1.42487
21
-5.36555
0
LINE
8
BLACK
6
CONTINUOUS
10
1.42487
20
-5.36555
11
1.41737
21
-5.3618
0
LINE
8
BLACK
6
CONTINUOUS
10
1.41737
20
-5.3618
11
1.40237
21
-5.3618
0
LINE
8
BLACK
6
CONTINUOUS
10
1.40237
20
-5.3618
11
1.39487
21
-5.36555
0
LINE
8
BLACK
6
CONTINUOUS
10
1.39487
20
-5.36555
11
1.39112
21
-5.3693
0
LINE
8
BLACK
6
CONTINUOUS
10
1.39112
20
-5.3693
11
1.38737
21
-5.3768
0
LINE
8
BLACK
6
CONTINUOUS
10
1.38737
20
-5.3768
11
1.38737
21
-5.39555
0
LINE
8
BLACK
6
CONTINUOUS
10
1.38737
20
-5.39555
11
1.39112
21
-5.40305
0
LINE
8
BLACK
6
CONTINUOUS
10
1.39112
20
-5.40305
11
1.39487
21
-5.4068
0
LINE
8
BLACK
6
CONTINUOUS
10
1.39487
20
-5.4068
11
1.40237
21
-5.41055
0
LINE
8
BLACK
6
CONTINUOUS
10
1.40237
20
-5.41055
11
1.41737
21
-5.41055
0
LINE
8
BLACK
6
CONTINUOUS
10
1.41737
20
-5.41055
11
1.42487
21
-5.4068
0
LINE
8
BLACK
6
CONTINUOUS
10
1.42487
20
-5.4068
11
1.42862
21
-5.40305
0
LINE
8
BLACK
6
CONTINUOUS
10
1.42862
20
-5.40305
11
1.43237
21
-5.39555
0
LINE
8
BLACK
6
CONTINUOUS
10
1.50361
20
-5.3618
11
1.46611
21
-5.3618
0
LINE
8
BLACK
6
CONTINUOUS
10
1.46611
20
-5.3618
11
1.46236
21
-5.3993
0
LINE
8
BLACK
6
CONTINUOUS
10
1.46236
20
-5.3993
11
1.46611
21
-5.39555
0
LINE
8
BLACK
6
CONTINUOUS
10
1.46611
20
-5.39555
11
1.47361
21
-5.3918
0
LINE
8
BLACK
6
CONTINUOUS
10
1.47361
20
-5.3918
11
1.49236
21
-5.3918
0
LINE
8
BLACK
6
CONTINUOUS
10
1.49236
20
-5.3918
11
1.49986
21
-5.39555
0
LINE
8
BLACK
6
CONTINUOUS
10
1.49986
20
-5.39555
11
1.50361
21
-5.3993
0
LINE
8
BLACK
6
CONTINUOUS
10
1.50361
20
-5.3993
11
1.50736
21
-5.4068
0
LINE
8
BLACK
6
CONTINUOUS
10
1.50736
20
-5.4068
11
1.50736
21
-5.42554
0
LINE
8
BLACK
6
CONTINUOUS
10
1.50736
20
-5.42554
11
1.50361
21
-5.43304
0
LINE
8
BLACK
6
CONTINUOUS
10
1.50361
20
-5.43304
11
1.49986
21
-5.43679
0
LINE
8
BLACK
6
CONTINUOUS
10
1.49986
20
-5.43679
11
1.49236
21
-5.44054
0
LINE
8
BLACK
6
CONTINUOUS
10
1.49236
20
-5.44054
11
1.47361
21
-5.44054
0
LINE
8
BLACK
6
CONTINUOUS
10
1.47361
20
-5.44054
11
1.46611
21
-5.43679
0
LINE
8
BLACK
6
CONTINUOUS
10
1.46611
20
-5.43679
11
1.46236
21
-5.43304
0
LINE
8
BLACK
6
CONTINUOUS
10
1.58835
20
-5.44054
11
1.58835
21
-5.3618
0
LINE
8
BLACK
6
CONTINUOUS
10
1.62209
20
-5.44054
11
1.62209
21
-5.3993
0
LINE
8
BLACK
6
CONTINUOUS
10
1.62209
20
-5.3993
11
1.61834
21
-5.3918
0
LINE
8
BLACK
6
CONTINUOUS
10
1.61834
20
-5.3918
11
1.61084
21
-5.38805
0
LINE
8
BLACK
6
CONTINUOUS
10
1.61084
20
-5.38805
11
1.5996
21
-5.38805
0
LINE
8
BLACK
6
CONTINUOUS
10
1.5996
20
-5.38805
11
1.5921
21
-5.3918
0
LINE
8
BLACK
6
CONTINUOUS
10
1.5921
20
-5.3918
11
1.58835
21
-5.39555
0
LINE
8
BLACK
6
CONTINUOUS
10
1.67084
20
-5.44054
11
1.66334
21
-5.43679
0
LINE
8
BLACK
6
CONTINUOUS
10
1.66334
20
-5.43679
11
1.65959
21
-5.43304
0
LINE
8
BLACK
6
CONTINUOUS
10
1.65959
20
-5.43304
11
1.65584
21
-5.42554
0
LINE
8
BLACK
6
CONTINUOUS
10
1.65584
20
-5.42554
11
1.65584
21
-5.40305
0
LINE
8
BLACK
6
CONTINUOUS
10
1.65584
20
-5.40305
11
1.65959
21
-5.39555
0
LINE
8
BLACK
6
CONTINUOUS
10
1.65959
20
-5.39555
11
1.66334
21
-5.3918
0
LINE
8
BLACK
6
CONTINUOUS
10
1.66334
20
-5.3918
11
1.67084
21
-5.38805
0
LINE
8
BLACK
6
CONTINUOUS
10
1.67084
20
-5.38805
11
1.68209
21
-5.38805
0
LINE
8
BLACK
6
CONTINUOUS
10
1.68209
20
-5.38805
11
1.68959
21
-5.3918
0
LINE
8
BLACK
6
CONTINUOUS
10
1.68959
20
-5.3918
11
1.69333
21
-5.39555
0
LINE
8
BLACK
6
CONTINUOUS
10
1.69333
20
-5.39555
11
1.69708
21
-5.40305
0
LINE
8
BLACK
6
CONTINUOUS
10
1.69708
20
-5.40305
11
1.69708
21
-5.42554
0
LINE
8
BLACK
6
CONTINUOUS
10
1.69708
20
-5.42554
11
1.69333
21
-5.43304
0
LINE
8
BLACK
6
CONTINUOUS
10
1.69333
20
-5.43304
11
1.68959
21
-5.43679
0
LINE
8
BLACK
6
CONTINUOUS
10
1.68959
20
-5.43679
11
1.68209
21
-5.44054
0
LINE
8
BLACK
6
CONTINUOUS
10
1.68209
20
-5.44054
11
1.67084
21
-5.44054
0
LINE
8
BLACK
6
CONTINUOUS
10
1.74208
20
-5.44054
11
1.73458
21
-5.43679
0
LINE
8
BLACK
6
CONTINUOUS
10
1.73458
20
-5.43679
11
1.73083
21
-5.42929
0
LINE
8
BLACK
6
CONTINUOUS
10
1.73083
20
-5.42929
11
1.73083
21
-5.3618
0
LINE
8
BLACK
6
CONTINUOUS
10
1.80207
20
-5.43679
11
1.79457
21
-5.44054
0
LINE
8
BLACK
6
CONTINUOUS
10
1.79457
20
-5.44054
11
1.77957
21
-5.44054
0
LINE
8
BLACK
6
CONTINUOUS
10
1.77957
20
-5.44054
11
1.77207
21
-5.43679
0
LINE
8
BLACK
6
CONTINUOUS
10
1.77207
20
-5.43679
11
1.76833
21
-5.42929
0
LINE
8
BLACK
6
CONTINUOUS
10
1.76833
20
-5.42929
11
1.76833
21
-5.3993
0
LINE
8
BLACK
6
CONTINUOUS
10
1.76833
20
-5.3993
11
1.77207
21
-5.3918
0
LINE
8
BLACK
6
CONTINUOUS
10
1.77207
20
-5.3918
11
1.77957
21
-5.38805
0
LINE
8
BLACK
6
CONTINUOUS
10
1.77957
20
-5.38805
11
1.79457
21
-5.38805
0
LINE
8
BLACK
6
CONTINUOUS
10
1.79457
20
-5.38805
11
1.80207
21
-5.3918
0
LINE
8
BLACK
6
CONTINUOUS
10
1.80207
20
-5.3918
11
1.80582
21
-5.3993
0
LINE
8
BLACK
6
CONTINUOUS
10
1.80582
20
-5.3993
11
1.80582
21
-5.4068
0
LINE
8
BLACK
6
CONTINUOUS
10
1.80582
20
-5.4068
11
1.76833
21
-5.4143
0
LINE
8
BLACK
6
CONTINUOUS
10
1.83582
20
-5.43679
11
1.84332
21
-5.44054
0
LINE
8
BLACK
6
CONTINUOUS
10
1.84332
20
-5.44054
11
1.85831
21
-5.44054
0
LINE
8
BLACK
6
CONTINUOUS
10
1.85831
20
-5.44054
11
1.86581
21
-5.43679
0
LINE
8
BLACK
6
CONTINUOUS
10
1.86581
20
-5.43679
11
1.86956
21
-5.42929
0
LINE
8
BLACK
6
CONTINUOUS
10
1.86956
20
-5.42929
11
1.86956
21
-5.42554
0
LINE
8
BLACK
6
CONTINUOUS
10
1.86956
20
-5.42554
11
1.86581
21
-5.41804
0
LINE
8
BLACK
6
CONTINUOUS
10
1.86581
20
-5.41804
11
1.85831
21
-5.4143
0
LINE
8
BLACK
6
CONTINUOUS
10
1.85831
20
-5.4143
11
1.84707
21
-5.4143
0
LINE
8
BLACK
6
CONTINUOUS
10
1.84707
20
-5.4143
11
1.83957
21
-5.41055
0
LINE
8
BLACK
6
CONTINUOUS
10
1.83957
20
-5.41055
11
1.83582
21
-5.40305
0
LINE
8
BLACK
6
CONTINUOUS
10
1.83582
20
-5.40305
11
1.83582
21
-5.3993
0
LINE
8
BLACK
6
CONTINUOUS
10
1.83582
20
-5.3993
11
1.83957
21
-5.3918
0
LINE
8
BLACK
6
CONTINUOUS
10
1.83957
20
-5.3918
11
1.84707
21
-5.38805
0
LINE
8
BLACK
6
CONTINUOUS
10
1.84707
20
-5.38805
11
1.85831
21
-5.38805
0
LINE
8
BLACK
6
CONTINUOUS
10
1.85831
20
-5.38805
11
1.86581
21
-5.3918
0
LINE
8
BLACK
6
CONTINUOUS
10
1.89581
20
-5.47054
11
1.89956
21
-5.46679
0
LINE
8
BLACK
6
CONTINUOUS
10
1.89956
20
-5.46679
11
1.90706
21
-5.45554
0
LINE
8
BLACK
6
CONTINUOUS
10
1.90706
20
-5.45554
11
1.91081
21
-5.44804
0
LINE
8
BLACK
6
CONTINUOUS
10
1.91081
20
-5.44804
11
1.91456
21
-5.43679
0
LINE
8
BLACK
6
CONTINUOUS
10
1.91456
20
-5.43679
11
1.91831
21
-5.41804
0
LINE
8
BLACK
6
CONTINUOUS
10
1.91831
20
-5.41804
11
1.91831
21
-5.40305
0
LINE
8
BLACK
6
CONTINUOUS
10
1.91831
20
-5.40305
11
1.91456
21
-5.3843
0
LINE
8
BLACK
6
CONTINUOUS
10
1.91456
20
-5.3843
11
1.91081
21
-5.37305
0
LINE
8
BLACK
6
CONTINUOUS
10
1.91081
20
-5.37305
11
1.90706
21
-5.36555
0
LINE
8
BLACK
6
CONTINUOUS
10
1.90706
20
-5.36555
11
1.89956
21
-5.3543
0
LINE
8
BLACK
6
CONTINUOUS
10
1.89956
20
-5.3543
11
1.89581
21
-5.35055
0
LINE
8
BLACK
6
CONTINUOUS
10
2.02554
20
-5.47054
11
2.02179
21
-5.46679
0
LINE
8
BLACK
6
CONTINUOUS
10
2.02179
20
-5.46679
11
2.01429
21
-5.45554
0
LINE
8
BLACK
6
CONTINUOUS
10
2.01429
20
-5.45554
11
2.01055
21
-5.44804
0
LINE
8
BLACK
6
CONTINUOUS
10
2.01055
20
-5.44804
11
2.0068
21
-5.43679
0
LINE
8
BLACK
6
CONTINUOUS
10
2.0068
20
-5.43679
11
2.00305
21
-5.41804
0
LINE
8
BLACK
6
CONTINUOUS
10
2.00305
20
-5.41804
11
2.00305
21
-5.40305
0
LINE
8
BLACK
6
CONTINUOUS
10
2.00305
20
-5.40305
11
2.0068
21
-5.3843
0
LINE
8
BLACK
6
CONTINUOUS
10
2.0068
20
-5.3843
11
2.01055
21
-5.37305
0
LINE
8
BLACK
6
CONTINUOUS
10
2.01055
20
-5.37305
11
2.01429
21
-5.36555
0
LINE
8
BLACK
6
CONTINUOUS
10
2.01429
20
-5.36555
11
2.02179
21
-5.3543
0
LINE
8
BLACK
6
CONTINUOUS
10
2.02179
20
-5.3543
11
2.02554
21
-5.35055
0
LINE
8
BLACK
6
CONTINUOUS
10
2.05554
20
-5.38805
11
2.05554
21
-5.44054
0
LINE
8
BLACK
6
CONTINUOUS
10
2.05554
20
-5.39555
11
2.05929
21
-5.3918
0
LINE
8
BLACK
6
CONTINUOUS
10
2.05929
20
-5.3918
11
2.06679
21
-5.38805
0
LINE
8
BLACK
6
CONTINUOUS
10
2.06679
20
-5.38805
11
2.07804
21
-5.38805
0
LINE
8
BLACK
6
CONTINUOUS
10
2.07804
20
-5.38805
11
2.08554
21
-5.3918
0
LINE
8
BLACK
6
CONTINUOUS
10
2.08554
20
-5.3918
11
2.08929
21
-5.3993
0
LINE
8
BLACK
6
CONTINUOUS
10
2.08929
20
-5.3993
11
2.08929
21
-5.44054
0
LINE
8
BLACK
6
CONTINUOUS
10
2.13803
20
-5.44054
11
2.13053
21
-5.43679
0
LINE
8
BLACK
6
CONTINUOUS
10
2.13053
20
-5.43679
11
2.12678
21
-5.43304
0
LINE
8
BLACK
6
CONTINUOUS
10
2.12678
20
-5.43304
11
2.12303
21
-5.42554
0
LINE
8
BLACK
6
CONTINUOUS
10
2.12303
20
-5.42554
11
2.12303
21
-5.40305
0
LINE
8
BLACK
6
CONTINUOUS
10
2.12303
20
-5.40305
11
2.12678
21
-5.39555
0
LINE
8
BLACK
6
CONTINUOUS
10
2.12678
20
-5.39555
11
2.13053
21
-5.3918
0
LINE
8
BLACK
6
CONTINUOUS
10
2.13053
20
-5.3918
11
2.13803
21
-5.38805
0
LINE
8
BLACK
6
CONTINUOUS
10
2.13803
20
-5.38805
11
2.14928
21
-5.38805
0
LINE
8
BLACK
6
CONTINUOUS
10
2.14928
20
-5.38805
11
2.15678
21
-5.3918
0
LINE
8
BLACK
6
CONTINUOUS
10
2.15678
20
-5.3918
11
2.16053
21
-5.39555
0
LINE
8
BLACK
6
CONTINUOUS
10
2.16053
20
-5.39555
11
2.16428
21
-5.40305
0
LINE
8
BLACK
6
CONTINUOUS
10
2.16428
20
-5.40305
11
2.16428
21
-5.42554
0
LINE
8
BLACK
6
CONTINUOUS
10
2.16428
20
-5.42554
11
2.16053
21
-5.43304
0
LINE
8
BLACK
6
CONTINUOUS
10
2.16053
20
-5.43304
11
2.15678
21
-5.43679
0
LINE
8
BLACK
6
CONTINUOUS
10
2.15678
20
-5.43679
11
2.14928
21
-5.44054
0
LINE
8
BLACK
6
CONTINUOUS
10
2.14928
20
-5.44054
11
2.13803
21
-5.44054
0
LINE
8
BLACK
6
CONTINUOUS
10
2.18677
20
-5.38805
11
2.21677
21
-5.38805
0
LINE
8
BLACK
6
CONTINUOUS
10
2.19802
20
-5.3618
11
2.19802
21
-5.42929
0
LINE
8
BLACK
6
CONTINUOUS
10
2.19802
20
-5.42929
11
2.20177
21
-5.43679
0
LINE
8
BLACK
6
CONTINUOUS
10
2.20177
20
-5.43679
11
2.20927
21
-5.44054
0
LINE
8
BLACK
6
CONTINUOUS
10
2.20927
20
-5.44054
11
2.21677
21
-5.44054
0
LINE
8
BLACK
6
CONTINUOUS
10
2.29026
20
-5.38805
11
2.29026
21
-5.46679
0
LINE
8
BLACK
6
CONTINUOUS
10
2.29026
20
-5.3918
11
2.29776
21
-5.38805
0
LINE
8
BLACK
6
CONTINUOUS
10
2.29776
20
-5.38805
11
2.31276
21
-5.38805
0
LINE
8
BLACK
6
CONTINUOUS
10
2.31276
20
-5.38805
11
2.32026
21
-5.3918
0
LINE
8
BLACK
6
CONTINUOUS
10
2.32026
20
-5.3918
11
2.32401
21
-5.39555
0
LINE
8
BLACK
6
CONTINUOUS
10
2.32401
20
-5.39555
11
2.32776
21
-5.40305
0
LINE
8
BLACK
6
CONTINUOUS
10
2.32776
20
-5.40305
11
2.32776
21
-5.42554
0
LINE
8
BLACK
6
CONTINUOUS
10
2.32776
20
-5.42554
11
2.32401
21
-5.43304
0
LINE
8
BLACK
6
CONTINUOUS
10
2.32401
20
-5.43304
11
2.32026
21
-5.43679
0
LINE
8
BLACK
6
CONTINUOUS
10
2.32026
20
-5.43679
11
2.31276
21
-5.44054
0
LINE
8
BLACK
6
CONTINUOUS
10
2.31276
20
-5.44054
11
2.29776
21
-5.44054
0
LINE
8
BLACK
6
CONTINUOUS
10
2.29776
20
-5.44054
11
2.29026
21
-5.43679
0
LINE
8
BLACK
6
CONTINUOUS
10
2.37275
20
-5.44054
11
2.36525
21
-5.43679
0
LINE
8
BLACK
6
CONTINUOUS
10
2.36525
20
-5.43679
11
2.3615
21
-5.42929
0
LINE
8
BLACK
6
CONTINUOUS
10
2.3615
20
-5.42929
11
2.3615
21
-5.3618
0
LINE
8
BLACK
6
CONTINUOUS
10
2.43649
20
-5.44054
11
2.43649
21
-5.3993
0
LINE
8
BLACK
6
CONTINUOUS
10
2.43649
20
-5.3993
11
2.43274
21
-5.3918
0
LINE
8
BLACK
6
CONTINUOUS
10
2.43274
20
-5.3918
11
2.42524
21
-5.38805
0
LINE
8
BLACK
6
CONTINUOUS
10
2.42524
20
-5.38805
11
2.41025
21
-5.38805
0
LINE
8
BLACK
6
CONTINUOUS
10
2.41025
20
-5.38805
11
2.40275
21
-5.3918
0
LINE
8
BLACK
6
CONTINUOUS
10
2.43649
20
-5.43679
11
2.42899
21
-5.44054
0
LINE
8
BLACK
6
CONTINUOUS
10
2.42899
20
-5.44054
11
2.41025
21
-5.44054
0
LINE
8
BLACK
6
CONTINUOUS
10
2.41025
20
-5.44054
11
2.40275
21
-5.43679
0
LINE
8
BLACK
6
CONTINUOUS
10
2.40275
20
-5.43679
11
2.399
21
-5.42929
0
LINE
8
BLACK
6
CONTINUOUS
10
2.399
20
-5.42929
11
2.399
21
-5.42179
0
LINE
8
BLACK
6
CONTINUOUS
10
2.399
20
-5.42179
11
2.40275
21
-5.4143
0
LINE
8
BLACK
6
CONTINUOUS
10
2.40275
20
-5.4143
11
2.41025
21
-5.41055
0
LINE
8
BLACK
6
CONTINUOUS
10
2.41025
20
-5.41055
11
2.42899
21
-5.41055
0
LINE
8
BLACK
6
CONTINUOUS
10
2.42899
20
-5.41055
11
2.43649
21
-5.4068
0
LINE
8
BLACK
6
CONTINUOUS
10
2.46274
20
-5.38805
11
2.49273
21
-5.38805
0
LINE
8
BLACK
6
CONTINUOUS
10
2.47399
20
-5.3618
11
2.47399
21
-5.42929
0
LINE
8
BLACK
6
CONTINUOUS
10
2.47399
20
-5.42929
11
2.47774
21
-5.43679
0
LINE
8
BLACK
6
CONTINUOUS
10
2.47774
20
-5.43679
11
2.48524
21
-5.44054
0
LINE
8
BLACK
6
CONTINUOUS
10
2.48524
20
-5.44054
11
2.49273
21
-5.44054
0
LINE
8
BLACK
6
CONTINUOUS
10
2.54898
20
-5.43679
11
2.54148
21
-5.44054
0
LINE
8
BLACK
6
CONTINUOUS
10
2.54148
20
-5.44054
11
2.52648
21
-5.44054
0
LINE
8
BLACK
6
CONTINUOUS
10
2.52648
20
-5.44054
11
2.51898
21
-5.43679
0
LINE
8
BLACK
6
CONTINUOUS
10
2.51898
20
-5.43679
11
2.51523
21
-5.42929
0
LINE
8
BLACK
6
CONTINUOUS
10
2.51523
20
-5.42929
11
2.51523
21
-5.3993
0
LINE
8
BLACK
6
CONTINUOUS
10
2.51523
20
-5.3993
11
2.51898
21
-5.3918
0
LINE
8
BLACK
6
CONTINUOUS
10
2.51898
20
-5.3918
11
2.52648
21
-5.38805
0
LINE
8
BLACK
6
CONTINUOUS
10
2.52648
20
-5.38805
11
2.54148
21
-5.38805
0
LINE
8
BLACK
6
CONTINUOUS
10
2.54148
20
-5.38805
11
2.54898
21
-5.3918
0
LINE
8
BLACK
6
CONTINUOUS
10
2.54898
20
-5.3918
11
2.55273
21
-5.3993
0
LINE
8
BLACK
6
CONTINUOUS
10
2.55273
20
-5.3993
11
2.55273
21
-5.4068
0
LINE
8
BLACK
6
CONTINUOUS
10
2.55273
20
-5.4068
11
2.51523
21
-5.4143
0
LINE
8
BLACK
6
CONTINUOUS
10
2.62022
20
-5.44054
11
2.62022
21
-5.3618
0
LINE
8
BLACK
6
CONTINUOUS
10
2.62022
20
-5.43679
11
2.61272
21
-5.44054
0
LINE
8
BLACK
6
CONTINUOUS
10
2.61272
20
-5.44054
11
2.59772
21
-5.44054
0
LINE
8
BLACK
6
CONTINUOUS
10
2.59772
20
-5.44054
11
2.59022
21
-5.43679
0
LINE
8
BLACK
6
CONTINUOUS
10
2.59022
20
-5.43679
11
2.58647
21
-5.43304
0
LINE
8
BLACK
6
CONTINUOUS
10
2.58647
20
-5.43304
11
2.58272
21
-5.42554
0
LINE
8
BLACK
6
CONTINUOUS
10
2.58272
20
-5.42554
11
2.58272
21
-5.40305
0
LINE
8
BLACK
6
CONTINUOUS
10
2.58272
20
-5.40305
11
2.58647
21
-5.39555
0
LINE
8
BLACK
6
CONTINUOUS
10
2.58647
20
-5.39555
11
2.59022
21
-5.3918
0
LINE
8
BLACK
6
CONTINUOUS
10
2.59022
20
-5.3918
11
2.59772
21
-5.38805
0
LINE
8
BLACK
6
CONTINUOUS
10
2.59772
20
-5.38805
11
2.61272
21
-5.38805
0
LINE
8
BLACK
6
CONTINUOUS
10
2.61272
20
-5.38805
11
2.62022
21
-5.3918
0
LINE
8
BLACK
6
CONTINUOUS
10
2.65022
20
-5.47054
11
2.65396
21
-5.46679
0
LINE
8
BLACK
6
CONTINUOUS
10
2.65396
20
-5.46679
11
2.66146
21
-5.45554
0
LINE
8
BLACK
6
CONTINUOUS
10
2.66146
20
-5.45554
11
2.66521
21
-5.44804
0
LINE
8
BLACK
6
CONTINUOUS
10
2.66521
20
-5.44804
11
2.66896
21
-5.43679
0
LINE
8
BLACK
6
CONTINUOUS
10
2.66896
20
-5.43679
11
2.67271
21
-5.41804
0
LINE
8
BLACK
6
CONTINUOUS
10
2.67271
20
-5.41804
11
2.67271
21
-5.40305
0
LINE
8
BLACK
6
CONTINUOUS
10
2.67271
20
-5.40305
11
2.66896
21
-5.3843
0
LINE
8
BLACK
6
CONTINUOUS
10
2.66896
20
-5.3843
11
2.66521
21
-5.37305
0
LINE
8
BLACK
6
CONTINUOUS
10
2.66521
20
-5.37305
11
2.66146
21
-5.36555
0
LINE
8
BLACK
6
CONTINUOUS
10
2.66146
20
-5.36555
11
2.65396
21
-5.3543
0
LINE
8
BLACK
6
CONTINUOUS
10
2.65396
20
-5.3543
11
2.65022
21
-5.35055
  0
ENDSEC
  0
EOF
