%TF.GenerationSoftware,KiCad,Pcbnew,(6.99.0-5015-g618347ef50-dirty)*%
%TF.CreationDate,2022-12-25T02:18:07-05:00*%
%TF.ProjectId,necpc8801mkiisr,6e656370-6338-4383-9031-6d6b69697372,rev?*%
%TF.SameCoordinates,Original*%
%TF.FileFunction,Legend,Top*%
%TF.FilePolarity,Positive*%
%FSLAX46Y46*%
G04 Gerber Fmt 4.6, Leading zero omitted, Abs format (unit mm)*
G04 Created by KiCad (PCBNEW (6.99.0-5015-g618347ef50-dirty)) date 2022-12-25 02:18:07*
%MOMM*%
%LPD*%
G01*
G04 APERTURE LIST*
%ADD10C,0.150000*%
%ADD11C,0.120000*%
%ADD12C,1.750000*%
%ADD13C,3.987800*%
%ADD14R,1.500000X1.000000*%
%ADD15O,1.070000X1.800000*%
%ADD16R,1.070000X1.800000*%
%ADD17C,5.400000*%
%TA.AperFunction,Profile*%
%ADD18C,0.150000*%
%TD*%
%TA.AperFunction,Profile*%
%ADD19C,0.050000*%
%TD*%
G04 APERTURE END LIST*
D10*
%TO.C,LED1*%
X196980952Y-111492380D02*
X196504762Y-111492380D01*
X196504762Y-111492380D02*
X196504762Y-110492380D01*
X197314286Y-110968571D02*
X197647619Y-110968571D01*
X197790476Y-111492380D02*
X197314286Y-111492380D01*
X197314286Y-111492380D02*
X197314286Y-110492380D01*
X197314286Y-110492380D02*
X197790476Y-110492380D01*
X198219048Y-111492380D02*
X198219048Y-110492380D01*
X198219048Y-110492380D02*
X198457143Y-110492380D01*
X198457143Y-110492380D02*
X198600000Y-110540000D01*
X198600000Y-110540000D02*
X198695238Y-110635238D01*
X198695238Y-110635238D02*
X198742857Y-110730476D01*
X198742857Y-110730476D02*
X198790476Y-110920952D01*
X198790476Y-110920952D02*
X198790476Y-111063809D01*
X198790476Y-111063809D02*
X198742857Y-111254285D01*
X198742857Y-111254285D02*
X198695238Y-111349523D01*
X198695238Y-111349523D02*
X198600000Y-111444761D01*
X198600000Y-111444761D02*
X198457143Y-111492380D01*
X198457143Y-111492380D02*
X198219048Y-111492380D01*
X199742857Y-111492380D02*
X199171429Y-111492380D01*
X199457143Y-111492380D02*
X199457143Y-110492380D01*
X199457143Y-110492380D02*
X199361905Y-110635238D01*
X199361905Y-110635238D02*
X199266667Y-110730476D01*
X199266667Y-110730476D02*
X199171429Y-110778095D01*
X194235714Y-113392380D02*
X193664286Y-113392380D01*
X193950000Y-113392380D02*
X193950000Y-112392380D01*
X193950000Y-112392380D02*
X193854762Y-112535238D01*
X193854762Y-112535238D02*
X193759524Y-112630476D01*
X193759524Y-112630476D02*
X193664286Y-112678095D01*
%TO.C,LED2*%
X220980952Y-111492380D02*
X220504762Y-111492380D01*
X220504762Y-111492380D02*
X220504762Y-110492380D01*
X221314286Y-110968571D02*
X221647619Y-110968571D01*
X221790476Y-111492380D02*
X221314286Y-111492380D01*
X221314286Y-111492380D02*
X221314286Y-110492380D01*
X221314286Y-110492380D02*
X221790476Y-110492380D01*
X222219048Y-111492380D02*
X222219048Y-110492380D01*
X222219048Y-110492380D02*
X222457143Y-110492380D01*
X222457143Y-110492380D02*
X222600000Y-110540000D01*
X222600000Y-110540000D02*
X222695238Y-110635238D01*
X222695238Y-110635238D02*
X222742857Y-110730476D01*
X222742857Y-110730476D02*
X222790476Y-110920952D01*
X222790476Y-110920952D02*
X222790476Y-111063809D01*
X222790476Y-111063809D02*
X222742857Y-111254285D01*
X222742857Y-111254285D02*
X222695238Y-111349523D01*
X222695238Y-111349523D02*
X222600000Y-111444761D01*
X222600000Y-111444761D02*
X222457143Y-111492380D01*
X222457143Y-111492380D02*
X222219048Y-111492380D01*
X223171429Y-110587619D02*
X223219048Y-110540000D01*
X223219048Y-110540000D02*
X223314286Y-110492380D01*
X223314286Y-110492380D02*
X223552381Y-110492380D01*
X223552381Y-110492380D02*
X223647619Y-110540000D01*
X223647619Y-110540000D02*
X223695238Y-110587619D01*
X223695238Y-110587619D02*
X223742857Y-110682857D01*
X223742857Y-110682857D02*
X223742857Y-110778095D01*
X223742857Y-110778095D02*
X223695238Y-110920952D01*
X223695238Y-110920952D02*
X223123810Y-111492380D01*
X223123810Y-111492380D02*
X223742857Y-111492380D01*
X218235714Y-113392380D02*
X217664286Y-113392380D01*
X217950000Y-113392380D02*
X217950000Y-112392380D01*
X217950000Y-112392380D02*
X217854762Y-112535238D01*
X217854762Y-112535238D02*
X217759524Y-112630476D01*
X217759524Y-112630476D02*
X217664286Y-112678095D01*
%TO.C,LED3*%
X244980952Y-111492380D02*
X244504762Y-111492380D01*
X244504762Y-111492380D02*
X244504762Y-110492380D01*
X245314286Y-110968571D02*
X245647619Y-110968571D01*
X245790476Y-111492380D02*
X245314286Y-111492380D01*
X245314286Y-111492380D02*
X245314286Y-110492380D01*
X245314286Y-110492380D02*
X245790476Y-110492380D01*
X246219048Y-111492380D02*
X246219048Y-110492380D01*
X246219048Y-110492380D02*
X246457143Y-110492380D01*
X246457143Y-110492380D02*
X246600000Y-110540000D01*
X246600000Y-110540000D02*
X246695238Y-110635238D01*
X246695238Y-110635238D02*
X246742857Y-110730476D01*
X246742857Y-110730476D02*
X246790476Y-110920952D01*
X246790476Y-110920952D02*
X246790476Y-111063809D01*
X246790476Y-111063809D02*
X246742857Y-111254285D01*
X246742857Y-111254285D02*
X246695238Y-111349523D01*
X246695238Y-111349523D02*
X246600000Y-111444761D01*
X246600000Y-111444761D02*
X246457143Y-111492380D01*
X246457143Y-111492380D02*
X246219048Y-111492380D01*
X247123810Y-110492380D02*
X247742857Y-110492380D01*
X247742857Y-110492380D02*
X247409524Y-110873333D01*
X247409524Y-110873333D02*
X247552381Y-110873333D01*
X247552381Y-110873333D02*
X247647619Y-110920952D01*
X247647619Y-110920952D02*
X247695238Y-110968571D01*
X247695238Y-110968571D02*
X247742857Y-111063809D01*
X247742857Y-111063809D02*
X247742857Y-111301904D01*
X247742857Y-111301904D02*
X247695238Y-111397142D01*
X247695238Y-111397142D02*
X247647619Y-111444761D01*
X247647619Y-111444761D02*
X247552381Y-111492380D01*
X247552381Y-111492380D02*
X247266667Y-111492380D01*
X247266667Y-111492380D02*
X247171429Y-111444761D01*
X247171429Y-111444761D02*
X247123810Y-111397142D01*
X242235714Y-113392380D02*
X241664286Y-113392380D01*
X241950000Y-113392380D02*
X241950000Y-112392380D01*
X241950000Y-112392380D02*
X241854762Y-112535238D01*
X241854762Y-112535238D02*
X241759524Y-112630476D01*
X241759524Y-112630476D02*
X241664286Y-112678095D01*
%TO.C,H2*%
X125338095Y-113392380D02*
X125338095Y-112392380D01*
X125338095Y-112868571D02*
X125909523Y-112868571D01*
X125909523Y-113392380D02*
X125909523Y-112392380D01*
X126338095Y-112487619D02*
X126385714Y-112440000D01*
X126385714Y-112440000D02*
X126480952Y-112392380D01*
X126480952Y-112392380D02*
X126719047Y-112392380D01*
X126719047Y-112392380D02*
X126814285Y-112440000D01*
X126814285Y-112440000D02*
X126861904Y-112487619D01*
X126861904Y-112487619D02*
X126909523Y-112582857D01*
X126909523Y-112582857D02*
X126909523Y-112678095D01*
X126909523Y-112678095D02*
X126861904Y-112820952D01*
X126861904Y-112820952D02*
X126290476Y-113392380D01*
X126290476Y-113392380D02*
X126909523Y-113392380D01*
%TO.C,SW1*%
X300016667Y-78869761D02*
X300159524Y-78917380D01*
X300159524Y-78917380D02*
X300397619Y-78917380D01*
X300397619Y-78917380D02*
X300492857Y-78869761D01*
X300492857Y-78869761D02*
X300540476Y-78822142D01*
X300540476Y-78822142D02*
X300588095Y-78726904D01*
X300588095Y-78726904D02*
X300588095Y-78631666D01*
X300588095Y-78631666D02*
X300540476Y-78536428D01*
X300540476Y-78536428D02*
X300492857Y-78488809D01*
X300492857Y-78488809D02*
X300397619Y-78441190D01*
X300397619Y-78441190D02*
X300207143Y-78393571D01*
X300207143Y-78393571D02*
X300111905Y-78345952D01*
X300111905Y-78345952D02*
X300064286Y-78298333D01*
X300064286Y-78298333D02*
X300016667Y-78203095D01*
X300016667Y-78203095D02*
X300016667Y-78107857D01*
X300016667Y-78107857D02*
X300064286Y-78012619D01*
X300064286Y-78012619D02*
X300111905Y-77965000D01*
X300111905Y-77965000D02*
X300207143Y-77917380D01*
X300207143Y-77917380D02*
X300445238Y-77917380D01*
X300445238Y-77917380D02*
X300588095Y-77965000D01*
X300921429Y-77917380D02*
X301159524Y-78917380D01*
X301159524Y-78917380D02*
X301350000Y-78203095D01*
X301350000Y-78203095D02*
X301540476Y-78917380D01*
X301540476Y-78917380D02*
X301778572Y-77917380D01*
X302683333Y-78917380D02*
X302111905Y-78917380D01*
X302397619Y-78917380D02*
X302397619Y-77917380D01*
X302397619Y-77917380D02*
X302302381Y-78060238D01*
X302302381Y-78060238D02*
X302207143Y-78155476D01*
X302207143Y-78155476D02*
X302111905Y-78203095D01*
%TO.C,C1*%
X285174285Y-106446288D02*
X285221904Y-106493907D01*
X285221904Y-106493907D02*
X285269523Y-106636764D01*
X285269523Y-106636764D02*
X285269523Y-106732002D01*
X285269523Y-106732002D02*
X285221904Y-106874859D01*
X285221904Y-106874859D02*
X285126666Y-106970097D01*
X285126666Y-106970097D02*
X285031428Y-107017716D01*
X285031428Y-107017716D02*
X284840952Y-107065335D01*
X284840952Y-107065335D02*
X284698095Y-107065335D01*
X284698095Y-107065335D02*
X284507619Y-107017716D01*
X284507619Y-107017716D02*
X284412381Y-106970097D01*
X284412381Y-106970097D02*
X284317143Y-106874859D01*
X284317143Y-106874859D02*
X284269523Y-106732002D01*
X284269523Y-106732002D02*
X284269523Y-106636764D01*
X284269523Y-106636764D02*
X284317143Y-106493907D01*
X284317143Y-106493907D02*
X284364762Y-106446288D01*
X285269523Y-105493907D02*
X285269523Y-106065335D01*
X285269523Y-105779621D02*
X284269523Y-105779621D01*
X284269523Y-105779621D02*
X284412381Y-105874859D01*
X284412381Y-105874859D02*
X284507619Y-105970097D01*
X284507619Y-105970097D02*
X284555238Y-106065335D01*
%TO.C,C5*%
X299877476Y-124299764D02*
X299829857Y-124347383D01*
X299829857Y-124347383D02*
X299687000Y-124395002D01*
X299687000Y-124395002D02*
X299591762Y-124395002D01*
X299591762Y-124395002D02*
X299448905Y-124347383D01*
X299448905Y-124347383D02*
X299353667Y-124252145D01*
X299353667Y-124252145D02*
X299306048Y-124156907D01*
X299306048Y-124156907D02*
X299258429Y-123966431D01*
X299258429Y-123966431D02*
X299258429Y-123823574D01*
X299258429Y-123823574D02*
X299306048Y-123633098D01*
X299306048Y-123633098D02*
X299353667Y-123537860D01*
X299353667Y-123537860D02*
X299448905Y-123442622D01*
X299448905Y-123442622D02*
X299591762Y-123395002D01*
X299591762Y-123395002D02*
X299687000Y-123395002D01*
X299687000Y-123395002D02*
X299829857Y-123442622D01*
X299829857Y-123442622D02*
X299877476Y-123490241D01*
X300782238Y-123395002D02*
X300306048Y-123395002D01*
X300306048Y-123395002D02*
X300258429Y-123871193D01*
X300258429Y-123871193D02*
X300306048Y-123823574D01*
X300306048Y-123823574D02*
X300401286Y-123775955D01*
X300401286Y-123775955D02*
X300639381Y-123775955D01*
X300639381Y-123775955D02*
X300734619Y-123823574D01*
X300734619Y-123823574D02*
X300782238Y-123871193D01*
X300782238Y-123871193D02*
X300829857Y-123966431D01*
X300829857Y-123966431D02*
X300829857Y-124204526D01*
X300829857Y-124204526D02*
X300782238Y-124299764D01*
X300782238Y-124299764D02*
X300734619Y-124347383D01*
X300734619Y-124347383D02*
X300639381Y-124395002D01*
X300639381Y-124395002D02*
X300401286Y-124395002D01*
X300401286Y-124395002D02*
X300306048Y-124347383D01*
X300306048Y-124347383D02*
X300258429Y-124299764D01*
%TO.C,C6*%
X296811765Y-102510433D02*
X296859384Y-102558052D01*
X296859384Y-102558052D02*
X296907003Y-102700909D01*
X296907003Y-102700909D02*
X296907003Y-102796147D01*
X296907003Y-102796147D02*
X296859384Y-102939004D01*
X296859384Y-102939004D02*
X296764146Y-103034242D01*
X296764146Y-103034242D02*
X296668908Y-103081861D01*
X296668908Y-103081861D02*
X296478432Y-103129480D01*
X296478432Y-103129480D02*
X296335575Y-103129480D01*
X296335575Y-103129480D02*
X296145099Y-103081861D01*
X296145099Y-103081861D02*
X296049861Y-103034242D01*
X296049861Y-103034242D02*
X295954623Y-102939004D01*
X295954623Y-102939004D02*
X295907003Y-102796147D01*
X295907003Y-102796147D02*
X295907003Y-102700909D01*
X295907003Y-102700909D02*
X295954623Y-102558052D01*
X295954623Y-102558052D02*
X296002242Y-102510433D01*
X295907003Y-101653290D02*
X295907003Y-101843766D01*
X295907003Y-101843766D02*
X295954623Y-101939004D01*
X295954623Y-101939004D02*
X296002242Y-101986623D01*
X296002242Y-101986623D02*
X296145099Y-102081861D01*
X296145099Y-102081861D02*
X296335575Y-102129480D01*
X296335575Y-102129480D02*
X296716527Y-102129480D01*
X296716527Y-102129480D02*
X296811765Y-102081861D01*
X296811765Y-102081861D02*
X296859384Y-102034242D01*
X296859384Y-102034242D02*
X296907003Y-101939004D01*
X296907003Y-101939004D02*
X296907003Y-101748528D01*
X296907003Y-101748528D02*
X296859384Y-101653290D01*
X296859384Y-101653290D02*
X296811765Y-101605671D01*
X296811765Y-101605671D02*
X296716527Y-101558052D01*
X296716527Y-101558052D02*
X296478432Y-101558052D01*
X296478432Y-101558052D02*
X296383194Y-101605671D01*
X296383194Y-101605671D02*
X296335575Y-101653290D01*
X296335575Y-101653290D02*
X296287956Y-101748528D01*
X296287956Y-101748528D02*
X296287956Y-101939004D01*
X296287956Y-101939004D02*
X296335575Y-102034242D01*
X296335575Y-102034242D02*
X296383194Y-102081861D01*
X296383194Y-102081861D02*
X296478432Y-102129480D01*
%TO.C,C7*%
X305517833Y-101740142D02*
X305470214Y-101787761D01*
X305470214Y-101787761D02*
X305327357Y-101835380D01*
X305327357Y-101835380D02*
X305232119Y-101835380D01*
X305232119Y-101835380D02*
X305089262Y-101787761D01*
X305089262Y-101787761D02*
X304994024Y-101692523D01*
X304994024Y-101692523D02*
X304946405Y-101597285D01*
X304946405Y-101597285D02*
X304898786Y-101406809D01*
X304898786Y-101406809D02*
X304898786Y-101263952D01*
X304898786Y-101263952D02*
X304946405Y-101073476D01*
X304946405Y-101073476D02*
X304994024Y-100978238D01*
X304994024Y-100978238D02*
X305089262Y-100883000D01*
X305089262Y-100883000D02*
X305232119Y-100835380D01*
X305232119Y-100835380D02*
X305327357Y-100835380D01*
X305327357Y-100835380D02*
X305470214Y-100883000D01*
X305470214Y-100883000D02*
X305517833Y-100930619D01*
X305851167Y-100835380D02*
X306517833Y-100835380D01*
X306517833Y-100835380D02*
X306089262Y-101835380D01*
%TO.C,J1*%
X303341666Y-7847380D02*
X303341666Y-8561666D01*
X303341666Y-8561666D02*
X303294047Y-8704523D01*
X303294047Y-8704523D02*
X303198809Y-8799761D01*
X303198809Y-8799761D02*
X303055952Y-8847380D01*
X303055952Y-8847380D02*
X302960714Y-8847380D01*
X304341666Y-8847380D02*
X303770238Y-8847380D01*
X304055952Y-8847380D02*
X304055952Y-7847380D01*
X304055952Y-7847380D02*
X303960714Y-7990238D01*
X303960714Y-7990238D02*
X303865476Y-8085476D01*
X303865476Y-8085476D02*
X303770238Y-8133095D01*
%TO.C,R3*%
X301258333Y-82792380D02*
X300925000Y-82316190D01*
X300686905Y-82792380D02*
X300686905Y-81792380D01*
X300686905Y-81792380D02*
X301067857Y-81792380D01*
X301067857Y-81792380D02*
X301163095Y-81840000D01*
X301163095Y-81840000D02*
X301210714Y-81887619D01*
X301210714Y-81887619D02*
X301258333Y-81982857D01*
X301258333Y-81982857D02*
X301258333Y-82125714D01*
X301258333Y-82125714D02*
X301210714Y-82220952D01*
X301210714Y-82220952D02*
X301163095Y-82268571D01*
X301163095Y-82268571D02*
X301067857Y-82316190D01*
X301067857Y-82316190D02*
X300686905Y-82316190D01*
X301591667Y-81792380D02*
X302210714Y-81792380D01*
X302210714Y-81792380D02*
X301877381Y-82173333D01*
X301877381Y-82173333D02*
X302020238Y-82173333D01*
X302020238Y-82173333D02*
X302115476Y-82220952D01*
X302115476Y-82220952D02*
X302163095Y-82268571D01*
X302163095Y-82268571D02*
X302210714Y-82363809D01*
X302210714Y-82363809D02*
X302210714Y-82601904D01*
X302210714Y-82601904D02*
X302163095Y-82697142D01*
X302163095Y-82697142D02*
X302115476Y-82744761D01*
X302115476Y-82744761D02*
X302020238Y-82792380D01*
X302020238Y-82792380D02*
X301734524Y-82792380D01*
X301734524Y-82792380D02*
X301639286Y-82744761D01*
X301639286Y-82744761D02*
X301591667Y-82697142D01*
%TO.C,R4*%
X285267380Y-121554166D02*
X284791190Y-121887499D01*
X285267380Y-122125594D02*
X284267380Y-122125594D01*
X284267380Y-122125594D02*
X284267380Y-121744642D01*
X284267380Y-121744642D02*
X284315000Y-121649404D01*
X284315000Y-121649404D02*
X284362619Y-121601785D01*
X284362619Y-121601785D02*
X284457857Y-121554166D01*
X284457857Y-121554166D02*
X284600714Y-121554166D01*
X284600714Y-121554166D02*
X284695952Y-121601785D01*
X284695952Y-121601785D02*
X284743571Y-121649404D01*
X284743571Y-121649404D02*
X284791190Y-121744642D01*
X284791190Y-121744642D02*
X284791190Y-122125594D01*
X284600714Y-120697023D02*
X285267380Y-120697023D01*
X284219761Y-120935118D02*
X284934047Y-121173213D01*
X284934047Y-121173213D02*
X284934047Y-120554166D01*
%TO.C,Y1*%
X307869440Y-110761690D02*
X308345630Y-110761690D01*
X307345630Y-111095023D02*
X307869440Y-110761690D01*
X307869440Y-110761690D02*
X307345630Y-110428357D01*
X308345630Y-109571214D02*
X308345630Y-110142642D01*
X308345630Y-109856928D02*
X307345630Y-109856928D01*
X307345630Y-109856928D02*
X307488488Y-109952166D01*
X307488488Y-109952166D02*
X307583726Y-110047404D01*
X307583726Y-110047404D02*
X307631345Y-110142642D01*
%TO.C,C3*%
X307873333Y-115667142D02*
X307825714Y-115714761D01*
X307825714Y-115714761D02*
X307682857Y-115762380D01*
X307682857Y-115762380D02*
X307587619Y-115762380D01*
X307587619Y-115762380D02*
X307444762Y-115714761D01*
X307444762Y-115714761D02*
X307349524Y-115619523D01*
X307349524Y-115619523D02*
X307301905Y-115524285D01*
X307301905Y-115524285D02*
X307254286Y-115333809D01*
X307254286Y-115333809D02*
X307254286Y-115190952D01*
X307254286Y-115190952D02*
X307301905Y-115000476D01*
X307301905Y-115000476D02*
X307349524Y-114905238D01*
X307349524Y-114905238D02*
X307444762Y-114810000D01*
X307444762Y-114810000D02*
X307587619Y-114762380D01*
X307587619Y-114762380D02*
X307682857Y-114762380D01*
X307682857Y-114762380D02*
X307825714Y-114810000D01*
X307825714Y-114810000D02*
X307873333Y-114857619D01*
X308206667Y-114762380D02*
X308825714Y-114762380D01*
X308825714Y-114762380D02*
X308492381Y-115143333D01*
X308492381Y-115143333D02*
X308635238Y-115143333D01*
X308635238Y-115143333D02*
X308730476Y-115190952D01*
X308730476Y-115190952D02*
X308778095Y-115238571D01*
X308778095Y-115238571D02*
X308825714Y-115333809D01*
X308825714Y-115333809D02*
X308825714Y-115571904D01*
X308825714Y-115571904D02*
X308778095Y-115667142D01*
X308778095Y-115667142D02*
X308730476Y-115714761D01*
X308730476Y-115714761D02*
X308635238Y-115762380D01*
X308635238Y-115762380D02*
X308349524Y-115762380D01*
X308349524Y-115762380D02*
X308254286Y-115714761D01*
X308254286Y-115714761D02*
X308206667Y-115667142D01*
%TO.C,C4*%
X305517833Y-104602642D02*
X305470214Y-104650261D01*
X305470214Y-104650261D02*
X305327357Y-104697880D01*
X305327357Y-104697880D02*
X305232119Y-104697880D01*
X305232119Y-104697880D02*
X305089262Y-104650261D01*
X305089262Y-104650261D02*
X304994024Y-104555023D01*
X304994024Y-104555023D02*
X304946405Y-104459785D01*
X304946405Y-104459785D02*
X304898786Y-104269309D01*
X304898786Y-104269309D02*
X304898786Y-104126452D01*
X304898786Y-104126452D02*
X304946405Y-103935976D01*
X304946405Y-103935976D02*
X304994024Y-103840738D01*
X304994024Y-103840738D02*
X305089262Y-103745500D01*
X305089262Y-103745500D02*
X305232119Y-103697880D01*
X305232119Y-103697880D02*
X305327357Y-103697880D01*
X305327357Y-103697880D02*
X305470214Y-103745500D01*
X305470214Y-103745500D02*
X305517833Y-103793119D01*
X306374976Y-104031214D02*
X306374976Y-104697880D01*
X306136881Y-103650261D02*
X305898786Y-104364547D01*
X305898786Y-104364547D02*
X306517833Y-104364547D01*
D11*
%TO.C,LED1*%
X194450000Y-111875000D02*
X201750000Y-111875000D01*
X194450000Y-117375000D02*
X201750000Y-117375000D01*
X201750000Y-117375000D02*
X201750000Y-116225000D01*
%TO.C,LED2*%
X218450000Y-111875000D02*
X225750000Y-111875000D01*
X218450000Y-117375000D02*
X225750000Y-117375000D01*
X225750000Y-117375000D02*
X225750000Y-116225000D01*
%TO.C,LED3*%
X242450000Y-111875000D02*
X249750000Y-111875000D01*
X242450000Y-117375000D02*
X249750000Y-117375000D01*
X249750000Y-117375000D02*
X249750000Y-116225000D01*
%TD*%
%LPC*%
D12*
%TO.C,SW_SP2_1*%
X167640000Y-116650000D03*
D13*
X172720000Y-116650000D03*
D12*
X177800000Y-116650000D03*
%TD*%
D14*
%TO.C,LED1*%
X195649999Y-113024999D03*
D15*
X198734999Y-114624999D03*
D14*
X195649999Y-116224999D03*
D15*
X196194999Y-114624999D03*
D16*
X197464999Y-114624999D03*
D14*
X200549999Y-116224999D03*
D15*
X200004999Y-114624999D03*
D14*
X200549999Y-113024999D03*
%TD*%
%TO.C,LED2*%
X219649999Y-113024999D03*
D15*
X222734999Y-114624999D03*
D14*
X219649999Y-116224999D03*
D15*
X220194999Y-114624999D03*
D16*
X221464999Y-114624999D03*
D14*
X224549999Y-116224999D03*
D15*
X224004999Y-114624999D03*
D14*
X224549999Y-113024999D03*
%TD*%
%TO.C,LED3*%
X243649999Y-113024999D03*
D15*
X246734999Y-114624999D03*
D14*
X243649999Y-116224999D03*
D15*
X244194999Y-114624999D03*
D16*
X245464999Y-114624999D03*
D14*
X248549999Y-116224999D03*
D15*
X248004999Y-114624999D03*
D14*
X248549999Y-113024999D03*
%TD*%
D17*
%TO.C,H2*%
X126100000Y-116725000D03*
%TD*%
D12*
%TO.C,SW_STP_1*%
X6140000Y-12050000D03*
D13*
X11220000Y-12050000D03*
D12*
X16300000Y-12050000D03*
%TD*%
%TO.C,SW_KPMULT_1*%
X371120000Y-59550000D03*
D13*
X376200000Y-59550000D03*
D12*
X381280000Y-59550000D03*
%TD*%
%TO.C,SW_RLD_1*%
X281740000Y-12050000D03*
D13*
X286820000Y-12050000D03*
D12*
X291900000Y-12050000D03*
%TD*%
%TO.C,SW_LS2_1*%
X34640000Y-97550000D03*
D13*
X39720000Y-97550000D03*
D12*
X44800000Y-97550000D03*
%TD*%
%TO.C,SW_F3_1*%
X143940000Y-12050000D03*
D13*
X149020000Y-12050000D03*
D12*
X154100000Y-12050000D03*
%TD*%
%TO.C,SW_KP2_1*%
X333120000Y-97550000D03*
D13*
X338200000Y-97550000D03*
D12*
X343280000Y-97550000D03*
%TD*%
%TO.C,SW_WE_1*%
X253140000Y-78550000D03*
D13*
X258220000Y-78550000D03*
D12*
X263300000Y-78550000D03*
%TD*%
%TO.C,SW_F5_1*%
X219940000Y-12050000D03*
D13*
X225020000Y-12050000D03*
D12*
X230100000Y-12050000D03*
%TD*%
%TO.C,SW_LT_1*%
X186640000Y-97550000D03*
D13*
X191720000Y-97550000D03*
D12*
X196800000Y-97550000D03*
%TD*%
%TO.C,SW_KP4_1*%
X314120000Y-78550000D03*
D13*
X319200000Y-78550000D03*
D12*
X324280000Y-78550000D03*
%TD*%
%TO.C,SW_CAR_1*%
X239120000Y-40550000D03*
D13*
X244200000Y-40550000D03*
D12*
X249280000Y-40550000D03*
%TD*%
%TO.C,SW_SUP_1*%
X53640000Y-116650000D03*
D13*
X58720000Y-116650000D03*
D12*
X63800000Y-116650000D03*
%TD*%
%TO.C,SW_RLU_1*%
X262740000Y-12050000D03*
D13*
X267820000Y-12050000D03*
D12*
X272900000Y-12050000D03*
%TD*%
%TO.C,SW_DEL_1*%
X279495000Y-40550000D03*
D13*
X284575000Y-40550000D03*
D12*
X289655000Y-40550000D03*
%TD*%
%TO.C,SW_J_1*%
X158140000Y-78550000D03*
D13*
X163220000Y-78550000D03*
D12*
X168300000Y-78550000D03*
%TD*%
%TO.C,SW_KPEQ_1*%
X371120000Y-97550000D03*
D13*
X376200000Y-97550000D03*
D12*
X381280000Y-97550000D03*
%TD*%
%TO.C,SW_KP3_1*%
X352120000Y-97550000D03*
D13*
X357200000Y-97550000D03*
D12*
X362280000Y-97550000D03*
%TD*%
%TO.C,SW_K_1*%
X177140000Y-78550000D03*
D13*
X182220000Y-78550000D03*
D12*
X187300000Y-78550000D03*
%TD*%
%TO.C,SW_F1_1*%
X67940000Y-12050000D03*
D13*
X73020000Y-12050000D03*
D12*
X78100000Y-12050000D03*
%TD*%
%TO.C,SW_CPY_1*%
X25140000Y-12050000D03*
D13*
X30220000Y-12050000D03*
D12*
X35300000Y-12050000D03*
%TD*%
%TO.C,SW_SP1_1*%
X148640000Y-116650000D03*
D13*
X153720000Y-116650000D03*
D12*
X158800000Y-116650000D03*
%TD*%
%TO.C,SW_D_1*%
X82140000Y-78550000D03*
D13*
X87220000Y-78550000D03*
D12*
X92300000Y-78550000D03*
%TD*%
%TO.C,SW_A_1*%
X44140000Y-78550000D03*
D13*
X49220000Y-78550000D03*
D12*
X54300000Y-78550000D03*
%TD*%
%TO.C,SW_KPPER_1*%
X352120000Y-116550000D03*
D13*
X357200000Y-116550000D03*
D12*
X362280000Y-116550000D03*
%TD*%
%TO.C,SW_6_1*%
X125120000Y-40550000D03*
D13*
X130200000Y-40550000D03*
D12*
X135280000Y-40550000D03*
%TD*%
%TO.C,SW_KP6_1*%
X352120000Y-78550000D03*
D13*
X357200000Y-78550000D03*
D12*
X362280000Y-78550000D03*
%TD*%
%TO.C,SW_9_1*%
X182120000Y-40550000D03*
D13*
X187200000Y-40550000D03*
D12*
X192280000Y-40550000D03*
%TD*%
%TO.C,SW_CTRL_1*%
X6140000Y-78550000D03*
D13*
X11220000Y-78550000D03*
D12*
X16300000Y-78550000D03*
%TD*%
%TO.C,SW_KP7_1*%
X314120000Y-59550000D03*
D13*
X319200000Y-59550000D03*
D12*
X324280000Y-59550000D03*
%TD*%
%TO.C,SW_F4_1*%
X181940000Y-12050000D03*
D13*
X187020000Y-12050000D03*
D12*
X192100000Y-12050000D03*
%TD*%
%TO.C,SW_S_1*%
X63140000Y-78550000D03*
D13*
X68220000Y-78550000D03*
D12*
X73300000Y-78550000D03*
%TD*%
%TO.C,SW_KPHELP1*%
X333120000Y-40550000D03*
D13*
X338200000Y-40550000D03*
D12*
X343280000Y-40550000D03*
%TD*%
%TO.C,SW_2_1*%
X49120000Y-40550000D03*
D13*
X54200000Y-40550000D03*
D12*
X59280000Y-40550000D03*
%TD*%
%TO.C,SW_W_1*%
X58290000Y-59525000D03*
D13*
X63370000Y-59525000D03*
D12*
X68450000Y-59525000D03*
%TD*%
%TO.C,SW_X_1*%
X72640000Y-97550000D03*
D13*
X77720000Y-97550000D03*
D12*
X82800000Y-97550000D03*
%TD*%
%TO.C,SW_G_1*%
X120140000Y-78550000D03*
D13*
X125220000Y-78550000D03*
D12*
X130300000Y-78550000D03*
%TD*%
%TO.C,SW_E_1*%
X77290000Y-59525000D03*
D13*
X82370000Y-59525000D03*
D12*
X87450000Y-59525000D03*
%TD*%
%TO.C,SW_5_1*%
X106120000Y-40550000D03*
D13*
X111200000Y-40550000D03*
D12*
X116280000Y-40550000D03*
%TD*%
%TO.C,SW_I_1*%
X172290000Y-59525000D03*
D13*
X177370000Y-59525000D03*
D12*
X182450000Y-59525000D03*
%TD*%
%TO.C,SW_1_1*%
X30120000Y-40550000D03*
D13*
X35200000Y-40550000D03*
D12*
X40280000Y-40550000D03*
%TD*%
%TO.C,SW_AMG_1*%
X243640000Y-97550000D03*
D13*
X248720000Y-97550000D03*
D12*
X253800000Y-97550000D03*
%TD*%
%TO.C,SW_V_1*%
X110640000Y-97550000D03*
D13*
X115720000Y-97550000D03*
D12*
X120800000Y-97550000D03*
%TD*%
%TO.C,SW_L_1*%
X196140000Y-78550000D03*
D13*
X201220000Y-78550000D03*
D12*
X206300000Y-78550000D03*
%TD*%
%TO.C,SW_YEN_1*%
X258120000Y-40550000D03*
D13*
X263200000Y-40550000D03*
D12*
X268280000Y-40550000D03*
%TD*%
%TO.C,SW_M_1*%
X167640000Y-97550000D03*
D13*
X172720000Y-97550000D03*
D12*
X177800000Y-97550000D03*
%TD*%
%TO.C,SW_F2_1*%
X105940000Y-12050000D03*
D13*
X111020000Y-12050000D03*
D12*
X116100000Y-12050000D03*
%TD*%
%TO.C,SW_KP9_1*%
X352120000Y-59550000D03*
D13*
X357200000Y-59550000D03*
D12*
X362280000Y-59550000D03*
%TD*%
%TO.C,SW_KPHOME_1*%
X314120000Y-40550000D03*
D13*
X319200000Y-40550000D03*
D12*
X324280000Y-40550000D03*
%TD*%
%TO.C,SW_CAPS_1*%
X25140000Y-78550000D03*
D13*
X30220000Y-78550000D03*
D12*
X35300000Y-78550000D03*
%TD*%
%TO.C,SW_KPDIV_1*%
X371120000Y-40550000D03*
D13*
X376200000Y-40550000D03*
D12*
X381280000Y-40550000D03*
%TD*%
%TO.C,SW_C_1*%
X91640000Y-97550000D03*
D13*
X96720000Y-97550000D03*
D12*
X101800000Y-97550000D03*
%TD*%
%TO.C,SW_Q_1*%
X39290000Y-59525000D03*
D13*
X44370000Y-59525000D03*
D12*
X49450000Y-59525000D03*
%TD*%
%TO.C,SW_MN_1*%
X220120000Y-40550000D03*
D13*
X225200000Y-40550000D03*
D12*
X230280000Y-40550000D03*
%TD*%
%TO.C,SW_DOWN_1*%
X333120000Y-12050000D03*
D13*
X338200000Y-12050000D03*
D12*
X343280000Y-12050000D03*
%TD*%
%TO.C,SW_3_1*%
X68120000Y-40550000D03*
D13*
X73200000Y-40550000D03*
D12*
X78280000Y-40550000D03*
%TD*%
%TO.C,SW_AT_1*%
X229290000Y-59525000D03*
D13*
X234370000Y-59525000D03*
D12*
X239450000Y-59525000D03*
%TD*%
%TO.C,SW_GT_1*%
X205640000Y-97550000D03*
D13*
X210720000Y-97550000D03*
D12*
X215800000Y-97550000D03*
%TD*%
%TO.C,SW_Z_1*%
X53640000Y-97550000D03*
D13*
X58720000Y-97550000D03*
D12*
X63800000Y-97550000D03*
%TD*%
%TO.C,SW_O_1*%
X191290000Y-59525000D03*
D13*
X196370000Y-59525000D03*
D12*
X201450000Y-59525000D03*
%TD*%
%TO.C,SW_H_1*%
X139140000Y-78550000D03*
D13*
X144220000Y-78550000D03*
D12*
X149300000Y-78550000D03*
%TD*%
%TO.C,SW_FC_1*%
X248290000Y-59525000D03*
D13*
X253370000Y-59525000D03*
D12*
X258450000Y-59525000D03*
%TD*%
%TO.C,SW_KPENT_1*%
X371120000Y-116550000D03*
D13*
X376200000Y-116550000D03*
D12*
X381280000Y-116550000D03*
%TD*%
%TO.C,SW_B_1*%
X129640000Y-97550000D03*
D13*
X134720000Y-97550000D03*
D12*
X139800000Y-97550000D03*
%TD*%
%TO.C,SW_R_1*%
X96290000Y-59525000D03*
D13*
X101370000Y-59525000D03*
D12*
X106450000Y-59525000D03*
%TD*%
%TO.C,SW_0_1*%
X201120000Y-40550000D03*
D13*
X206200000Y-40550000D03*
D12*
X211280000Y-40550000D03*
%TD*%
%TO.C,SW_8_1*%
X163120000Y-40550000D03*
D13*
X168200000Y-40550000D03*
D12*
X173280000Y-40550000D03*
%TD*%
%TO.C,SW_RIGHT_1*%
X371120000Y-12050000D03*
D13*
X376200000Y-12050000D03*
D12*
X381280000Y-12050000D03*
%TD*%
%TO.C,SW_KP0_1*%
X314120000Y-116550000D03*
D13*
X319200000Y-116550000D03*
D12*
X324280000Y-116550000D03*
%TD*%
%TO.C,SW_Y_1*%
X134290000Y-59525000D03*
D13*
X139370000Y-59525000D03*
D12*
X144450000Y-59525000D03*
%TD*%
%TO.C,SW_RSH_1*%
X272140000Y-97550000D03*
D13*
X277220000Y-97550000D03*
D12*
X282300000Y-97550000D03*
%TD*%
%TO.C,SW_COL_1*%
X234140000Y-78550000D03*
D13*
X239220000Y-78550000D03*
D12*
X244300000Y-78550000D03*
%TD*%
%TO.C,SW_ED_1*%
X276890000Y-78550000D03*
D13*
X281970000Y-78550000D03*
D12*
X287050000Y-78550000D03*
%TD*%
%TO.C,SW_LS1_1*%
X6140000Y-97550000D03*
D13*
X11220000Y-97550000D03*
D12*
X16300000Y-97550000D03*
%TD*%
%TO.C,SW_4_1*%
X87120000Y-40550000D03*
D13*
X92200000Y-40550000D03*
D12*
X97280000Y-40550000D03*
%TD*%
%TO.C,SW_LEFT_1*%
X352120000Y-12050000D03*
D13*
X357200000Y-12050000D03*
D12*
X362280000Y-12050000D03*
%TD*%
%TO.C,SW_KPMIN_1*%
X352120000Y-40550000D03*
D13*
X357200000Y-40550000D03*
D12*
X362280000Y-40550000D03*
%TD*%
%TO.C,SW_U_1*%
X153290000Y-59525000D03*
D13*
X158370000Y-59525000D03*
D12*
X163450000Y-59525000D03*
%TD*%
%TO.C,SW_ET_1*%
X274415000Y-59525000D03*
D13*
X279495000Y-59525000D03*
D12*
X284575000Y-59525000D03*
%TD*%
%TO.C,SW_KPCOM_1*%
X333120000Y-116550000D03*
D13*
X338200000Y-116550000D03*
D12*
X343280000Y-116550000D03*
%TD*%
%TO.C,SW_KP5_1*%
X333120000Y-78550000D03*
D13*
X338200000Y-78550000D03*
D12*
X343280000Y-78550000D03*
%TD*%
%TO.C,SW_KP8_1*%
X333120000Y-59550000D03*
D13*
X338200000Y-59550000D03*
D12*
X343280000Y-59550000D03*
%TD*%
%TO.C,SW_T_1*%
X115290000Y-59525000D03*
D13*
X120370000Y-59525000D03*
D12*
X125450000Y-59525000D03*
%TD*%
%TO.C,SW_P_1*%
X210290000Y-59525000D03*
D13*
X215370000Y-59525000D03*
D12*
X220450000Y-59525000D03*
%TD*%
%TO.C,SW_KP1_1*%
X314120000Y-97550000D03*
D13*
X319200000Y-97550000D03*
D12*
X324280000Y-97550000D03*
%TD*%
%TO.C,SW_TAB_1*%
X13165000Y-59525000D03*
D13*
X18245000Y-59525000D03*
D12*
X23325000Y-59525000D03*
%TD*%
%TO.C,SW_UP_1*%
X314120000Y-12050000D03*
D13*
X319200000Y-12050000D03*
D12*
X324280000Y-12050000D03*
%TD*%
%TO.C,SW_ESC_1*%
X8420000Y-40550000D03*
D13*
X13500000Y-40550000D03*
D12*
X18580000Y-40550000D03*
%TD*%
%TO.C,SW_KPPLUS_1*%
X371120000Y-78550000D03*
D13*
X376200000Y-78550000D03*
D12*
X381280000Y-78550000D03*
%TD*%
%TO.C,SW_N_1*%
X148640000Y-97550000D03*
D13*
X153720000Y-97550000D03*
D12*
X158800000Y-97550000D03*
%TD*%
%TO.C,SW_7_1*%
X144120000Y-40550000D03*
D13*
X149200000Y-40550000D03*
D12*
X154280000Y-40550000D03*
%TD*%
%TO.C,SW_F_1*%
X101140000Y-78550000D03*
D13*
X106220000Y-78550000D03*
D12*
X111300000Y-78550000D03*
%TD*%
%TO.C,SW_SLS_1*%
X224640000Y-97550000D03*
D13*
X229720000Y-97550000D03*
D12*
X234800000Y-97550000D03*
%TD*%
%TO.C,SW_SMI_1*%
X215140000Y-78550000D03*
D13*
X220220000Y-78550000D03*
D12*
X225300000Y-78550000D03*
%TD*%
%TO.C,SW_ALT_1*%
X72640000Y-116650000D03*
D13*
X77720000Y-116650000D03*
D12*
X82800000Y-116650000D03*
%TD*%
D18*
X382934500Y-128030000D02*
G75*
G03*
X385982500Y-124982000I0J3048000D01*
G01*
X3034500Y-32000D02*
G75*
G03*
X-13500Y-3080000I2J-3048002D01*
G01*
X-13500Y-124982000D02*
G75*
G03*
X3034500Y-128030000I3048000J0D01*
G01*
D19*
X3034500Y-128030000D02*
X382934500Y-128030000D01*
X385982500Y-124982000D02*
X385982500Y-3080000D01*
X-13500Y-3080000D02*
X-13500Y-124982000D01*
X255507999Y-31999D02*
X3034500Y-32000D01*
X236507999Y-31999D02*
X382934500Y-32000D01*
X322312085Y-30600497D02*
G75*
G03*
X322312085Y-30600497I-1625192J0D01*
G01*
X149225192Y-26605000D02*
G75*
G03*
X149225192Y-26605000I-1625192J0D01*
G01*
X30725192Y-26605000D02*
G75*
G03*
X30725192Y-26605000I-1625192J0D01*
G01*
X322225192Y-96605000D02*
G75*
G03*
X322225192Y-96605000I-1625192J0D01*
G01*
D18*
X385982500Y-3080000D02*
G75*
G03*
X382934500Y-32000I-3048000J0D01*
G01*
D19*
X35225192Y-116605000D02*
G75*
G03*
X35225192Y-116605000I-1625192J0D01*
G01*
M02*
